{"glyphs":{"0":{"ha":936,"x_min":83,"x_max":853,"o":"m 468 -21 q 309 19 380 -21 q 187 128 238 58 q 110 290 137 199 q 83 486 83 382 q 110 683 83 591 q 187 844 137 774 q 309 953 238 914 q 468 993 380 993 q 626 953 556 993 q 748 844 697 914 q 826 683 799 774 q 853 486 853 591 q 826 290 853 382 q 748 128 799 199 q 626 19 697 58 q 468 -21 556 -21 m 468 57 q 590 87 535 57 q 684 174 644 117 q 745 309 724 230 q 767 486 767 388 q 729 713 767 617 q 624 863 692 810 q 468 915 557 915 q 347 885 401 915 q 252 799 292 855 q 191 663 213 742 q 169 486 169 584 q 207 259 169 356 q 312 110 244 163 q 468 57 379 57 z "},"1":{"ha":565,"x_min":17,"x_max":399,"o":"m 321 0 l 321 894 l 38 788 l 17 849 l 392 993 l 399 993 l 399 0 l 321 0 z "},"2":{"ha":811,"x_min":97,"x_max":721,"o":"m 97 0 l 97 71 l 311 271 q 483 443 415 368 q 585 583 551 518 q 618 713 618 647 q 552 863 618 808 q 369 918 485 918 q 245 899 305 918 q 147 842 185 879 l 113 901 q 233 970 165 947 q 381 993 301 993 q 545 959 474 993 q 657 863 617 925 q 697 714 697 800 q 673 590 697 653 q 585 448 649 527 q 404 261 522 369 l 201 75 l 721 75 l 721 0 l 97 0 z "},"3":{"ha":803,"x_min":68,"x_max":707,"o":"m 363 -21 q 251 -10 306 -21 q 149 20 197 1 q 68 65 101 40 l 103 139 q 222 79 152 101 q 358 57 292 57 q 498 85 439 57 q 589 163 557 113 q 621 283 621 214 q 545 445 621 387 q 343 503 470 503 q 286 500 315 503 q 226 490 257 497 l 197 550 l 551 897 l 72 897 l 72 972 l 663 972 l 663 903 l 317 568 q 510 546 422 575 q 653 452 599 517 q 707 283 707 386 q 663 123 707 191 q 541 17 619 54 q 363 -21 463 -21 z "},"4":{"ha":833,"x_min":31,"x_max":782,"o":"m 536 0 l 536 217 l 31 217 l 31 286 l 419 972 l 510 972 l 121 292 l 536 292 l 536 533 l 614 533 l 614 292 l 782 292 l 782 217 l 614 217 l 614 0 l 536 0 z "},"5":{"ha":803,"x_min":68,"x_max":715,"o":"m 363 -21 q 199 3 278 -21 q 68 66 119 27 l 103 139 q 222 79 152 101 q 358 57 292 57 q 502 86 442 57 q 596 170 563 116 q 629 297 629 224 q 594 419 629 368 q 498 497 558 469 q 361 524 437 524 q 265 513 315 524 q 164 479 215 501 l 129 513 l 179 969 l 690 972 l 690 897 l 242 897 l 204 560 q 298 587 251 578 q 388 596 344 596 q 553 560 478 596 q 671 458 627 525 q 715 297 715 391 q 670 129 715 201 q 545 18 625 58 q 363 -21 466 -21 z "},"6":{"ha":881,"x_min":94,"x_max":808,"o":"m 458 -21 q 270 25 353 -21 q 141 161 188 72 q 94 379 94 250 q 139 606 94 502 q 263 790 183 710 q 451 923 342 871 q 688 993 559 974 l 718 924 q 498 869 592 912 q 338 762 403 826 q 235 619 272 697 q 186 458 198 541 q 306 576 230 532 q 475 619 383 619 q 644 580 568 619 q 764 471 719 541 q 808 310 808 401 q 782 180 808 240 q 709 75 756 119 q 599 5 663 30 q 458 -21 535 -21 m 458 58 q 595 89 535 58 q 688 174 654 120 q 722 299 722 228 q 687 422 722 367 q 592 508 652 476 q 458 540 533 540 q 324 508 384 540 q 230 422 265 476 q 194 299 194 367 q 228 174 194 228 q 322 89 262 120 q 458 58 381 58 z "},"7":{"ha":747,"x_min":79,"x_max":672,"o":"m 139 0 l 582 897 l 79 897 l 79 972 l 672 972 l 672 903 l 229 0 l 139 0 z "},"8":{"ha":850,"x_min":90,"x_max":760,"o":"m 425 -21 q 248 18 324 -21 q 132 124 173 58 q 90 271 90 190 q 112 376 90 330 q 175 455 133 422 q 275 511 216 489 q 167 590 213 534 q 122 729 122 646 q 161 865 122 806 q 268 959 200 925 q 425 993 337 993 q 584 959 515 993 q 692 865 653 924 q 731 729 731 805 q 710 630 731 674 q 654 557 689 587 q 578 511 619 526 q 710 419 661 478 q 760 271 760 360 q 719 124 760 190 q 603 18 678 58 q 425 -21 528 -21 m 425 57 q 548 80 492 57 q 639 150 605 103 q 674 264 674 196 q 641 378 674 331 q 551 448 608 424 q 425 472 495 472 q 247 419 317 472 q 176 264 176 365 q 210 150 176 196 q 300 80 244 103 q 425 57 357 57 m 426 550 q 541 571 491 550 q 619 632 591 592 q 647 725 647 671 q 586 861 647 806 q 426 915 526 915 q 311 890 360 915 q 233 822 261 865 q 206 725 206 779 q 268 597 206 644 q 426 550 330 550 z "},"9":{"ha":864,"x_min":72,"x_max":769,"o":"m 183 -21 l 153 49 q 370 105 277 61 q 528 216 464 149 q 630 364 593 283 q 678 531 667 445 q 561 413 635 457 q 397 369 488 369 q 233 409 307 369 q 116 518 159 448 q 72 679 72 588 q 116 839 72 768 q 238 951 160 910 q 414 993 315 993 q 598 948 517 993 q 724 816 678 903 q 769 601 769 728 q 726 372 769 477 q 603 185 683 266 q 417 51 524 103 q 183 -21 310 -2 m 414 449 q 544 479 486 449 q 635 563 601 510 q 669 682 669 616 q 637 802 669 750 q 547 884 604 854 q 414 914 489 914 q 282 884 340 914 q 191 802 224 854 q 158 682 158 750 q 192 563 158 616 q 284 479 226 510 q 414 449 342 449 z "},"A":{"ha":919,"x_min":25,"x_max":894,"o":"m 25 0 l 417 972 l 486 972 l 894 0 l 804 0 l 693 267 l 218 267 l 113 0 l 25 0 m 247 342 l 663 342 l 449 853 l 247 342 z "},"Á":{"ha":919,"x_min":25,"x_max":894,"o":"m 25 0 l 417 972 l 486 972 l 894 0 l 804 0 l 693 267 l 218 267 l 113 0 l 25 0 m 247 342 l 663 342 l 449 853 l 247 342 m 407 1107 l 539 1324 l 622 1324 l 482 1107 l 407 1107 z "},"Ă":{"ha":919,"x_min":25,"x_max":894,"o":"m 25 0 l 417 972 l 486 972 l 894 0 l 804 0 l 693 267 l 218 267 l 113 0 l 25 0 m 247 342 l 663 342 l 449 853 l 247 342 m 451 1100 q 327 1129 381 1100 q 244 1208 274 1158 q 217 1324 214 1259 l 288 1324 q 330 1209 285 1253 q 451 1165 376 1165 q 572 1209 528 1165 q 611 1324 615 1253 l 683 1324 q 655 1208 685 1259 q 572 1129 625 1158 q 451 1100 519 1100 z "},"Ắ":{"ha":919,"x_min":25,"x_max":894,"o":"m 25 0 l 417 972 l 486 972 l 894 0 l 804 0 l 693 267 l 218 267 l 113 0 l 25 0 m 247 342 l 663 342 l 449 853 l 247 342 m 451 1100 q 327 1129 381 1100 q 244 1208 274 1158 q 217 1324 214 1259 l 288 1324 q 330 1209 285 1253 q 451 1165 376 1165 q 572 1209 528 1165 q 611 1324 615 1253 l 683 1324 q 655 1208 685 1259 q 572 1129 625 1158 q 451 1100 519 1100 m 407 1394 l 539 1611 l 622 1611 l 482 1394 l 407 1394 z "},"Ặ":{"ha":919,"x_min":25,"x_max":894,"o":"m 25 0 l 417 972 l 486 972 l 894 0 l 804 0 l 693 267 l 218 267 l 113 0 l 25 0 m 247 342 l 663 342 l 449 853 l 247 342 m 451 -328 q 405 -309 424 -328 q 386 -262 386 -290 q 405 -216 386 -235 q 451 -197 424 -197 q 498 -216 478 -197 q 517 -262 517 -235 q 498 -309 517 -290 q 451 -328 478 -328 m 451 1100 q 327 1129 381 1100 q 244 1208 274 1158 q 217 1324 214 1259 l 288 1324 q 330 1209 285 1253 q 451 1165 376 1165 q 572 1209 528 1165 q 611 1324 615 1253 l 683 1324 q 655 1208 685 1259 q 572 1129 625 1158 q 451 1100 519 1100 z "},"Ằ":{"ha":919,"x_min":25,"x_max":894,"o":"m 25 0 l 417 972 l 486 972 l 894 0 l 804 0 l 693 267 l 218 267 l 113 0 l 25 0 m 247 342 l 663 342 l 449 853 l 247 342 m 451 1100 q 327 1129 381 1100 q 244 1208 274 1158 q 217 1324 214 1259 l 288 1324 q 330 1209 285 1253 q 451 1165 376 1165 q 572 1209 528 1165 q 611 1324 615 1253 l 683 1324 q 655 1208 685 1259 q 572 1129 625 1158 q 451 1100 519 1100 m 431 1394 l 290 1611 l 378 1611 l 508 1394 l 431 1394 z "},"Ẳ":{"ha":919,"x_min":25,"x_max":894,"o":"m 25 0 l 417 972 l 486 972 l 894 0 l 804 0 l 693 267 l 218 267 l 113 0 l 25 0 m 247 342 l 663 342 l 449 853 l 247 342 m 451 1100 q 327 1129 381 1100 q 244 1208 274 1158 q 217 1324 214 1259 l 288 1324 q 330 1209 285 1253 q 451 1165 376 1165 q 572 1209 528 1165 q 611 1324 615 1253 l 683 1324 q 655 1208 685 1259 q 572 1129 625 1158 q 451 1100 519 1100 m 408 1394 q 400 1468 385 1438 q 474 1517 415 1497 q 542 1545 526 1535 q 558 1578 558 1556 q 528 1621 558 1605 q 450 1638 497 1638 q 377 1630 414 1638 q 315 1611 340 1623 l 290 1663 q 367 1686 326 1678 q 453 1694 409 1694 q 541 1681 502 1694 q 602 1644 580 1667 q 625 1590 625 1620 q 603 1532 625 1553 q 522 1486 582 1510 q 465 1450 476 1467 q 474 1394 455 1432 l 408 1394 z "},"Ẵ":{"ha":919,"x_min":25,"x_max":894,"o":"m 25 0 l 417 972 l 486 972 l 894 0 l 804 0 l 693 267 l 218 267 l 113 0 l 25 0 m 247 342 l 663 342 l 449 853 l 247 342 m 451 1100 q 327 1129 381 1100 q 244 1208 274 1158 q 217 1324 214 1259 l 288 1324 q 330 1209 285 1253 q 451 1165 376 1165 q 572 1209 528 1165 q 611 1324 615 1253 l 683 1324 q 655 1208 685 1259 q 572 1129 625 1158 q 451 1100 519 1100 m 258 1422 l 206 1453 q 264 1539 228 1506 q 347 1571 299 1571 q 423 1554 387 1571 q 491 1520 458 1537 q 556 1503 524 1503 q 608 1524 586 1503 q 644 1583 630 1546 l 697 1551 q 637 1467 674 1497 q 554 1436 600 1436 q 480 1453 515 1436 q 411 1486 444 1469 q 347 1503 378 1503 q 296 1483 318 1503 q 258 1422 274 1463 z "},"Ǎ":{"ha":919,"x_min":25,"x_max":894,"o":"m 25 0 l 417 972 l 486 972 l 894 0 l 804 0 l 693 267 l 218 267 l 113 0 l 25 0 m 247 342 l 663 342 l 449 853 l 247 342 m 403 1107 l 226 1324 l 310 1324 l 447 1160 l 590 1324 l 676 1324 l 489 1107 l 403 1107 z "},"Â":{"ha":919,"x_min":25,"x_max":894,"o":"m 25 0 l 417 972 l 486 972 l 894 0 l 804 0 l 693 267 l 218 267 l 113 0 l 25 0 m 247 342 l 663 342 l 449 853 l 247 342 m 226 1107 l 414 1324 l 501 1324 l 676 1107 l 593 1107 l 456 1271 l 313 1107 l 226 1107 z "},"Ấ":{"ha":919,"x_min":25,"x_max":894,"o":"m 25 0 l 417 972 l 486 972 l 894 0 l 804 0 l 693 267 l 218 267 l 113 0 l 25 0 m 247 342 l 663 342 l 449 853 l 247 342 m 226 1107 l 414 1324 l 501 1324 l 676 1107 l 593 1107 l 456 1271 l 313 1107 l 226 1107 m 628 1279 l 760 1496 l 843 1496 l 703 1279 l 628 1279 z "},"Ậ":{"ha":919,"x_min":25,"x_max":894,"o":"m 25 0 l 417 972 l 486 972 l 894 0 l 804 0 l 693 267 l 218 267 l 113 0 l 25 0 m 247 342 l 663 342 l 449 853 l 247 342 m 451 -328 q 405 -309 424 -328 q 386 -262 386 -290 q 405 -216 386 -235 q 451 -197 424 -197 q 498 -216 478 -197 q 517 -262 517 -235 q 498 -309 517 -290 q 451 -328 478 -328 m 226 1107 l 414 1324 l 501 1324 l 676 1107 l 593 1107 l 456 1271 l 313 1107 l 226 1107 z "},"Ầ":{"ha":919,"x_min":25,"x_max":894,"o":"m 25 0 l 417 972 l 486 972 l 894 0 l 804 0 l 693 267 l 218 267 l 113 0 l 25 0 m 247 342 l 663 342 l 449 853 l 247 342 m 226 1107 l 414 1324 l 501 1324 l 676 1107 l 593 1107 l 456 1271 l 313 1107 l 226 1107 m 651 1279 l 511 1496 l 599 1496 l 729 1279 l 651 1279 z "},"Ẩ":{"ha":919,"x_min":25,"x_max":894,"o":"m 25 0 l 417 972 l 486 972 l 894 0 l 804 0 l 693 267 l 218 267 l 113 0 l 25 0 m 247 342 l 663 342 l 449 853 l 247 342 m 226 1107 l 414 1324 l 501 1324 l 676 1107 l 593 1107 l 456 1271 l 313 1107 l 226 1107 m 629 1279 q 621 1352 606 1323 q 694 1401 636 1382 q 763 1430 747 1419 q 779 1463 779 1441 q 749 1506 779 1490 q 671 1522 718 1522 q 598 1515 635 1522 q 536 1496 561 1508 l 511 1547 q 588 1571 547 1563 q 674 1579 630 1579 q 762 1566 723 1579 q 823 1528 801 1552 q 846 1475 846 1505 q 824 1416 846 1438 q 743 1371 803 1395 q 686 1334 697 1352 q 694 1279 676 1317 l 629 1279 z "},"Ẫ":{"ha":919,"x_min":25,"x_max":894,"o":"m 25 0 l 417 972 l 486 972 l 894 0 l 804 0 l 693 267 l 218 267 l 113 0 l 25 0 m 247 342 l 663 342 l 449 853 l 247 342 m 226 1107 l 414 1324 l 501 1324 l 676 1107 l 593 1107 l 456 1271 l 313 1107 l 226 1107 m 258 1447 l 206 1478 q 264 1564 228 1531 q 347 1596 299 1596 q 423 1579 387 1596 q 491 1545 458 1562 q 556 1528 524 1528 q 608 1549 586 1528 q 644 1608 630 1571 l 697 1576 q 637 1492 674 1522 q 554 1461 600 1461 q 480 1478 515 1461 q 411 1511 444 1494 q 347 1528 378 1528 q 296 1508 318 1528 q 258 1447 274 1488 z "},"Ȁ":{"ha":919,"x_min":25,"x_max":894,"o":"m 25 0 l 417 972 l 486 972 l 894 0 l 804 0 l 693 267 l 218 267 l 113 0 l 25 0 m 247 342 l 663 342 l 449 853 l 247 342 m 611 1107 l 536 1107 l 396 1324 l 481 1324 l 611 1107 m 368 1107 l 293 1107 l 153 1324 l 236 1324 l 368 1107 z "},"Ä":{"ha":919,"x_min":25,"x_max":894,"o":"m 25 0 l 417 972 l 486 972 l 894 0 l 804 0 l 693 267 l 218 267 l 113 0 l 25 0 m 247 342 l 663 342 l 449 853 l 247 342 m 322 1101 q 275 1120 294 1101 q 256 1165 256 1140 q 265 1197 256 1183 q 289 1219 274 1211 q 322 1228 304 1228 q 369 1210 349 1228 q 389 1165 389 1192 q 380 1133 389 1148 q 356 1110 372 1119 q 322 1101 341 1101 m 582 1101 q 535 1120 554 1101 q 515 1165 515 1140 q 524 1196 515 1182 q 548 1219 533 1210 q 582 1228 563 1228 q 629 1210 609 1228 q 649 1165 649 1192 q 640 1133 649 1148 q 615 1110 631 1119 q 582 1101 600 1101 z "},"Ạ":{"ha":919,"x_min":25,"x_max":894,"o":"m 25 0 l 417 972 l 486 972 l 894 0 l 804 0 l 693 267 l 218 267 l 113 0 l 25 0 m 247 342 l 663 342 l 449 853 l 247 342 m 451 -328 q 405 -309 424 -328 q 386 -262 386 -290 q 405 -216 386 -235 q 451 -197 424 -197 q 498 -216 478 -197 q 517 -262 517 -235 q 498 -309 517 -290 q 451 -328 478 -328 z "},"À":{"ha":919,"x_min":25,"x_max":894,"o":"m 25 0 l 417 972 l 486 972 l 894 0 l 804 0 l 693 267 l 218 267 l 113 0 l 25 0 m 247 342 l 663 342 l 449 853 l 247 342 m 431 1107 l 290 1324 l 378 1324 l 508 1107 l 431 1107 z "},"Ả":{"ha":919,"x_min":25,"x_max":894,"o":"m 25 0 l 417 972 l 486 972 l 894 0 l 804 0 l 693 267 l 218 267 l 113 0 l 25 0 m 247 342 l 663 342 l 449 853 l 247 342 m 408 1107 q 400 1180 385 1151 q 474 1229 415 1210 q 542 1258 526 1247 q 558 1290 558 1269 q 528 1334 558 1317 q 450 1350 497 1350 q 377 1343 414 1350 q 315 1324 340 1335 l 290 1375 q 367 1399 326 1391 q 453 1407 409 1407 q 541 1393 502 1407 q 602 1356 580 1380 q 625 1303 625 1333 q 603 1244 625 1265 q 522 1199 582 1223 q 465 1162 476 1180 q 474 1107 455 1144 l 408 1107 z "},"Ȃ":{"ha":919,"x_min":25,"x_max":894,"o":"m 25 0 l 417 972 l 486 972 l 894 0 l 804 0 l 693 267 l 218 267 l 113 0 l 25 0 m 247 342 l 663 342 l 449 853 l 247 342 m 217 1107 q 244 1224 214 1174 q 329 1302 275 1274 q 451 1331 383 1331 q 573 1301 519 1331 q 656 1222 626 1272 q 683 1107 685 1171 l 611 1107 q 571 1222 615 1178 q 451 1265 526 1265 q 330 1222 376 1265 q 288 1107 285 1178 l 217 1107 z "},"Ā":{"ha":919,"x_min":25,"x_max":894,"o":"m 25 0 l 417 972 l 486 972 l 894 0 l 804 0 l 693 267 l 218 267 l 113 0 l 25 0 m 247 342 l 663 342 l 449 853 l 247 342 m 244 1146 l 244 1215 l 658 1215 l 658 1146 l 244 1146 z "},"Ą":{"ha":919,"x_min":25,"x_max":896,"o":"m 25 0 l 417 972 l 486 972 l 894 0 l 804 0 l 693 267 l 218 267 l 113 0 l 25 0 m 247 342 l 663 342 l 449 853 l 247 342 m 783 -312 q 679 -273 715 -312 q 644 -177 644 -233 q 677 -73 646 -118 q 758 2 708 -28 q 867 47 808 33 l 894 0 q 809 -34 846 -13 q 750 -85 772 -55 q 728 -159 729 -116 q 742 -214 727 -191 q 794 -236 756 -236 q 833 -231 815 -236 q 867 -217 851 -226 l 896 -284 q 841 -305 870 -297 q 783 -312 813 -312 z "},"Å":{"ha":919,"x_min":25,"x_max":894,"o":"m 25 0 l 417 972 l 486 972 l 894 0 l 804 0 l 693 267 l 218 267 l 113 0 l 25 0 m 247 342 l 663 342 l 449 853 l 247 342 m 451 1015 q 356 1040 400 1015 q 286 1106 313 1064 q 260 1199 260 1147 q 286 1292 260 1250 q 356 1358 313 1333 q 451 1382 400 1382 q 547 1358 503 1382 q 617 1292 590 1333 q 643 1199 643 1250 q 617 1106 643 1147 q 547 1040 590 1064 q 451 1015 503 1015 m 451 1079 q 541 1113 505 1079 q 576 1199 576 1147 q 541 1284 576 1251 q 451 1318 505 1318 q 363 1284 399 1318 q 326 1199 326 1251 q 363 1113 326 1147 q 451 1079 399 1079 z "},"Ǻ":{"ha":919,"x_min":25,"x_max":894,"o":"m 25 0 l 417 972 l 486 972 l 894 0 l 804 0 l 693 267 l 218 267 l 113 0 l 25 0 m 247 342 l 663 342 l 449 853 l 247 342 m 451 1015 q 356 1040 400 1015 q 286 1106 313 1064 q 260 1199 260 1147 q 286 1292 260 1250 q 356 1358 313 1333 q 451 1382 400 1382 q 547 1358 503 1382 q 617 1292 590 1333 q 643 1199 643 1250 q 617 1106 643 1147 q 547 1040 590 1064 q 451 1015 503 1015 m 451 1079 q 541 1113 505 1079 q 576 1199 576 1147 q 541 1284 576 1251 q 451 1318 505 1318 q 363 1284 399 1318 q 326 1199 326 1251 q 363 1113 326 1147 q 451 1079 399 1079 m 407 1446 l 539 1663 l 622 1663 l 482 1446 l 407 1446 z "},"Ã":{"ha":919,"x_min":25,"x_max":894,"o":"m 25 0 l 417 972 l 486 972 l 894 0 l 804 0 l 693 267 l 218 267 l 113 0 l 25 0 m 247 342 l 663 342 l 449 853 l 247 342 m 258 1135 l 206 1165 q 264 1251 228 1219 q 347 1283 299 1283 q 423 1266 387 1283 q 491 1232 458 1249 q 556 1215 524 1215 q 608 1237 586 1215 q 644 1296 630 1258 l 697 1264 q 637 1179 674 1210 q 554 1149 600 1149 q 480 1165 515 1149 q 411 1199 444 1182 q 347 1215 378 1215 q 296 1195 318 1215 q 258 1135 274 1176 z "},"Æ":{"ha":1210,"x_min":-7,"x_max":1106,"o":"m -7 0 l 488 972 l 1100 972 l 1100 897 l 617 897 l 617 553 l 1053 553 l 1053 478 l 617 478 l 617 75 l 1106 75 l 1106 0 l 536 0 l 536 264 l 210 264 l 81 0 l -7 0 m 242 336 l 536 336 l 536 911 l 242 336 z "},"Ǽ":{"ha":1210,"x_min":-7,"x_max":1106,"o":"m -7 0 l 488 972 l 1100 972 l 1100 897 l 617 897 l 617 553 l 1053 553 l 1053 478 l 617 478 l 617 75 l 1106 75 l 1106 0 l 536 0 l 536 264 l 210 264 l 81 0 l -7 0 m 242 336 l 536 336 l 536 911 l 242 336 m 739 1107 l 871 1324 l 954 1324 l 814 1107 l 739 1107 z "},"B":{"ha":847,"x_min":139,"x_max":757,"o":"m 139 0 l 139 972 l 429 972 q 643 910 560 972 q 726 728 726 848 q 701 635 726 680 q 638 556 676 590 q 561 511 599 523 q 700 425 642 490 q 757 261 757 361 q 720 128 757 188 q 614 35 683 69 q 451 0 545 0 l 139 0 m 219 75 l 432 75 q 616 122 556 75 q 676 268 676 169 q 614 415 676 365 q 419 465 552 465 l 219 465 l 219 75 m 219 540 l 413 540 q 535 563 483 540 q 617 626 588 585 q 646 726 646 668 q 585 853 646 810 q 411 897 524 897 l 219 897 l 219 540 z "},"C":{"ha":967,"x_min":78,"x_max":918,"o":"m 574 -21 q 311 43 423 -21 q 139 221 200 106 q 78 488 78 335 q 114 689 78 597 q 217 850 151 781 q 375 956 284 918 q 574 993 465 993 q 753 968 674 993 q 888 897 833 943 l 840 832 q 724 896 790 875 q 581 917 659 917 q 409 887 486 917 q 276 801 331 857 q 191 666 221 745 q 161 488 161 587 q 214 255 161 351 q 363 108 267 158 q 590 57 460 57 q 744 81 672 57 q 879 160 817 105 l 918 90 q 759 6 844 32 q 574 -21 673 -21 z "},"Ć":{"ha":967,"x_min":78,"x_max":918,"o":"m 574 -21 q 311 43 423 -21 q 139 221 200 106 q 78 488 78 335 q 114 689 78 597 q 217 850 151 781 q 375 956 284 918 q 574 993 465 993 q 753 968 674 993 q 888 897 833 943 l 840 832 q 724 896 790 875 q 581 917 659 917 q 409 887 486 917 q 276 801 331 857 q 191 666 221 745 q 161 488 161 587 q 214 255 161 351 q 363 108 267 158 q 590 57 460 57 q 744 81 672 57 q 879 160 817 105 l 918 90 q 759 6 844 32 q 574 -21 673 -21 m 501 1107 l 633 1324 l 717 1324 l 576 1107 l 501 1107 z "},"Č":{"ha":967,"x_min":78,"x_max":918,"o":"m 574 -21 q 311 43 423 -21 q 139 221 200 106 q 78 488 78 335 q 114 689 78 597 q 217 850 151 781 q 375 956 284 918 q 574 993 465 993 q 753 968 674 993 q 888 897 833 943 l 840 832 q 724 896 790 875 q 581 917 659 917 q 409 887 486 917 q 276 801 331 857 q 191 666 221 745 q 161 488 161 587 q 214 255 161 351 q 363 108 267 158 q 590 57 460 57 q 744 81 672 57 q 879 160 817 105 l 918 90 q 759 6 844 32 q 574 -21 673 -21 m 497 1107 l 321 1324 l 404 1324 l 542 1160 l 685 1324 l 771 1324 l 583 1107 l 497 1107 z "},"Ç":{"ha":967,"x_min":78,"x_max":918,"o":"m 574 -21 q 311 43 423 -21 q 139 221 200 106 q 78 488 78 335 q 114 689 78 597 q 217 850 151 781 q 375 956 284 918 q 574 993 465 993 q 753 968 674 993 q 888 897 833 943 l 840 832 q 724 896 790 875 q 581 917 659 917 q 409 887 486 917 q 276 801 331 857 q 191 666 221 745 q 161 488 161 587 q 214 255 161 351 q 363 108 267 158 q 590 57 460 57 q 744 81 672 57 q 879 160 817 105 l 918 90 q 759 6 844 32 q 574 -21 673 -21 m 535 -312 q 458 -302 493 -312 q 393 -274 422 -292 l 419 -214 q 465 -239 432 -228 q 532 -250 499 -250 q 593 -236 563 -250 q 622 -187 622 -222 q 584 -137 622 -151 q 501 -129 547 -123 l 478 -87 l 515 28 l 572 28 l 544 -65 q 654 -99 610 -69 q 697 -185 697 -129 q 670 -260 697 -232 q 605 -300 643 -288 q 535 -312 567 -312 z "},"Ĉ":{"ha":967,"x_min":78,"x_max":918,"o":"m 574 -21 q 311 43 423 -21 q 139 221 200 106 q 78 488 78 335 q 114 689 78 597 q 217 850 151 781 q 375 956 284 918 q 574 993 465 993 q 753 968 674 993 q 888 897 833 943 l 840 832 q 724 896 790 875 q 581 917 659 917 q 409 887 486 917 q 276 801 331 857 q 191 666 221 745 q 161 488 161 587 q 214 255 161 351 q 363 108 267 158 q 590 57 460 57 q 744 81 672 57 q 879 160 817 105 l 918 90 q 759 6 844 32 q 574 -21 673 -21 m 321 1107 l 508 1324 l 596 1324 l 771 1107 l 688 1107 l 550 1271 l 407 1107 l 321 1107 z "},"Ċ":{"ha":967,"x_min":78,"x_max":918,"o":"m 574 -21 q 311 43 423 -21 q 139 221 200 106 q 78 488 78 335 q 114 689 78 597 q 217 850 151 781 q 375 956 284 918 q 574 993 465 993 q 753 968 674 993 q 888 897 833 943 l 840 832 q 724 896 790 875 q 581 917 659 917 q 409 887 486 917 q 276 801 331 857 q 191 666 221 745 q 161 488 161 587 q 214 255 161 351 q 363 108 267 158 q 590 57 460 57 q 744 81 672 57 q 879 160 817 105 l 918 90 q 759 6 844 32 q 574 -21 673 -21 m 546 1101 q 499 1120 518 1101 q 479 1165 479 1140 q 499 1210 479 1192 q 546 1228 519 1228 q 593 1210 573 1228 q 613 1165 613 1192 q 593 1120 613 1140 q 546 1101 573 1101 z "},"D":{"ha":969,"x_min":139,"x_max":892,"o":"m 139 0 l 139 972 l 414 972 q 660 910 552 972 q 830 737 768 847 q 892 485 892 627 q 856 291 892 380 q 757 137 821 202 q 605 36 692 72 q 414 0 517 0 l 139 0 m 219 75 l 388 75 q 560 104 483 75 q 693 188 638 133 q 778 317 749 242 q 808 485 808 392 q 756 702 808 609 q 610 846 704 794 q 388 897 515 897 l 219 897 l 219 75 z "},"Ǆ":{"ha":1772,"x_min":139,"x_max":1707,"o":"m 139 0 l 139 972 l 414 972 q 660 910 552 972 q 830 737 768 847 q 892 485 892 627 q 856 291 892 380 q 757 137 821 202 q 605 36 692 72 q 414 0 517 0 l 139 0 m 219 75 l 388 75 q 560 104 483 75 q 693 188 638 133 q 778 317 749 242 q 808 485 808 392 q 756 702 808 609 q 610 846 704 794 q 388 897 515 897 l 219 897 l 219 75 m 1043 0 l 1043 68 l 1606 897 l 1058 897 l 1058 972 l 1701 972 l 1701 904 l 1140 75 l 1707 75 l 1707 0 l 1043 0 m 1328 1107 l 1151 1324 l 1235 1324 l 1372 1160 l 1515 1324 l 1601 1324 l 1414 1107 l 1328 1107 z "},"Ð":{"ha":997,"x_min":44,"x_max":919,"o":"m 44 485 l 44 546 l 617 546 l 617 485 l 44 485 m 167 0 l 167 972 l 442 972 q 688 910 580 972 q 858 737 796 847 q 919 485 919 627 q 884 291 919 380 q 784 137 849 202 q 633 36 720 72 q 442 0 545 0 l 167 0 m 247 75 l 415 75 q 588 104 510 75 q 721 188 665 133 q 806 317 776 242 q 836 485 836 392 q 784 702 836 609 q 638 846 732 794 q 415 897 543 897 l 247 897 l 247 75 z "},"Ď":{"ha":969,"x_min":139,"x_max":892,"o":"m 139 0 l 139 972 l 414 972 q 660 910 552 972 q 830 737 768 847 q 892 485 892 627 q 856 291 892 380 q 757 137 821 202 q 605 36 692 72 q 414 0 517 0 l 139 0 m 219 75 l 388 75 q 560 104 483 75 q 693 188 638 133 q 778 317 749 242 q 808 485 808 392 q 756 702 808 609 q 610 846 704 794 q 388 897 515 897 l 219 897 l 219 75 m 421 1107 l 244 1324 l 328 1324 l 465 1160 l 608 1324 l 694 1324 l 507 1107 l 421 1107 z "},"Đ":{"ha":997,"x_min":44,"x_max":919,"o":"m 44 485 l 44 546 l 617 546 l 617 485 l 44 485 m 167 0 l 167 972 l 442 972 q 688 910 580 972 q 858 737 796 847 q 919 485 919 627 q 884 291 919 380 q 784 137 849 202 q 633 36 720 72 q 442 0 545 0 l 167 0 m 247 75 l 415 75 q 588 104 510 75 q 721 188 665 133 q 806 317 776 242 q 836 485 836 392 q 784 702 836 609 q 638 846 732 794 q 415 897 543 897 l 247 897 l 247 75 z "},"ǅ":{"ha":1610,"x_min":139,"x_max":1540,"o":"m 139 0 l 139 972 l 414 972 q 660 910 552 972 q 830 737 768 847 q 892 485 892 627 q 856 291 892 380 q 757 137 821 202 q 605 36 692 72 q 414 0 517 0 l 139 0 m 219 75 l 388 75 q 560 104 483 75 q 693 188 638 133 q 778 317 749 242 q 808 485 808 392 q 756 702 808 609 q 610 846 704 794 q 388 897 515 897 l 219 897 l 219 75 m 1039 0 l 1039 67 l 1440 594 l 1043 594 l 1043 667 l 1535 667 l 1535 600 l 1133 72 l 1540 72 l 1540 0 l 1039 0 m 1242 813 l 1071 1044 l 1154 1044 l 1285 867 l 1422 1044 l 1507 1044 l 1326 813 l 1242 813 z "},"E":{"ha":819,"x_min":139,"x_max":715,"o":"m 139 0 l 139 972 l 711 972 l 711 897 l 219 897 l 219 553 l 656 553 l 656 478 l 219 478 l 219 75 l 715 75 l 715 0 l 139 0 z "},"É":{"ha":819,"x_min":139,"x_max":715,"o":"m 139 0 l 139 972 l 711 972 l 711 897 l 219 897 l 219 553 l 656 553 l 656 478 l 219 478 l 219 75 l 715 75 l 715 0 l 139 0 m 374 1107 l 506 1324 l 589 1324 l 449 1107 l 374 1107 z "},"Ĕ":{"ha":819,"x_min":139,"x_max":715,"o":"m 139 0 l 139 972 l 711 972 l 711 897 l 219 897 l 219 553 l 656 553 l 656 478 l 219 478 l 219 75 l 715 75 l 715 0 l 139 0 m 418 1100 q 294 1129 348 1100 q 210 1208 240 1158 q 183 1324 181 1259 l 254 1324 q 297 1209 251 1253 q 418 1165 342 1165 q 538 1209 494 1165 q 578 1324 582 1253 l 650 1324 q 622 1208 652 1259 q 539 1129 592 1158 q 418 1100 485 1100 z "},"Ě":{"ha":819,"x_min":139,"x_max":715,"o":"m 139 0 l 139 972 l 711 972 l 711 897 l 219 897 l 219 553 l 656 553 l 656 478 l 219 478 l 219 75 l 715 75 l 715 0 l 139 0 m 369 1107 l 193 1324 l 276 1324 l 414 1160 l 557 1324 l 643 1324 l 456 1107 l 369 1107 z "},"Ê":{"ha":819,"x_min":139,"x_max":715,"o":"m 139 0 l 139 972 l 711 972 l 711 897 l 219 897 l 219 553 l 656 553 l 656 478 l 219 478 l 219 75 l 715 75 l 715 0 l 139 0 m 193 1107 l 381 1324 l 468 1324 l 643 1107 l 560 1107 l 422 1271 l 279 1107 l 193 1107 z "},"Ế":{"ha":819,"x_min":139,"x_max":810,"o":"m 139 0 l 139 972 l 711 972 l 711 897 l 219 897 l 219 553 l 656 553 l 656 478 l 219 478 l 219 75 l 715 75 l 715 0 l 139 0 m 193 1107 l 381 1324 l 468 1324 l 643 1107 l 560 1107 l 422 1271 l 279 1107 l 193 1107 m 594 1279 l 726 1496 l 810 1496 l 669 1279 l 594 1279 z "},"Ệ":{"ha":819,"x_min":139,"x_max":715,"o":"m 139 0 l 139 972 l 711 972 l 711 897 l 219 897 l 219 553 l 656 553 l 656 478 l 219 478 l 219 75 l 715 75 l 715 0 l 139 0 m 418 -328 q 372 -309 391 -328 q 353 -262 353 -290 q 372 -216 353 -235 q 418 -197 391 -197 q 464 -216 445 -197 q 483 -262 483 -235 q 464 -309 483 -290 q 418 -328 445 -328 m 193 1107 l 381 1324 l 468 1324 l 643 1107 l 560 1107 l 422 1271 l 279 1107 l 193 1107 z "},"Ề":{"ha":819,"x_min":139,"x_max":715,"o":"m 139 0 l 139 972 l 711 972 l 711 897 l 219 897 l 219 553 l 656 553 l 656 478 l 219 478 l 219 75 l 715 75 l 715 0 l 139 0 m 193 1107 l 381 1324 l 468 1324 l 643 1107 l 560 1107 l 422 1271 l 279 1107 l 193 1107 m 618 1279 l 478 1496 l 565 1496 l 696 1279 l 618 1279 z "},"Ể":{"ha":819,"x_min":139,"x_max":813,"o":"m 139 0 l 139 972 l 711 972 l 711 897 l 219 897 l 219 553 l 656 553 l 656 478 l 219 478 l 219 75 l 715 75 l 715 0 l 139 0 m 193 1107 l 381 1324 l 468 1324 l 643 1107 l 560 1107 l 422 1271 l 279 1107 l 193 1107 m 596 1279 q 588 1352 573 1323 q 661 1401 603 1382 q 730 1430 713 1419 q 746 1463 746 1441 q 715 1506 746 1490 q 638 1522 685 1522 q 565 1515 601 1522 q 503 1496 528 1508 l 478 1547 q 555 1571 513 1563 q 640 1579 597 1579 q 728 1566 690 1579 q 790 1528 767 1552 q 813 1475 813 1505 q 791 1416 813 1438 q 710 1371 769 1395 q 653 1334 663 1352 q 661 1279 642 1317 l 596 1279 z "},"Ễ":{"ha":819,"x_min":139,"x_max":715,"o":"m 139 0 l 139 972 l 711 972 l 711 897 l 219 897 l 219 553 l 656 553 l 656 478 l 219 478 l 219 75 l 715 75 l 715 0 l 139 0 m 193 1107 l 381 1324 l 468 1324 l 643 1107 l 560 1107 l 422 1271 l 279 1107 l 193 1107 m 225 1447 l 172 1478 q 230 1564 194 1531 q 314 1596 266 1596 q 389 1579 353 1596 q 458 1545 425 1562 q 522 1528 491 1528 q 575 1549 553 1528 q 611 1608 597 1571 l 664 1576 q 604 1492 641 1522 q 521 1461 567 1461 q 447 1478 482 1461 q 378 1511 411 1494 q 314 1528 345 1528 q 263 1508 285 1528 q 225 1447 241 1488 z "},"Ȅ":{"ha":819,"x_min":119,"x_max":715,"o":"m 139 0 l 139 972 l 711 972 l 711 897 l 219 897 l 219 553 l 656 553 l 656 478 l 219 478 l 219 75 l 715 75 l 715 0 l 139 0 m 578 1107 l 503 1107 l 363 1324 l 447 1324 l 578 1107 m 335 1107 l 260 1107 l 119 1324 l 203 1324 l 335 1107 z "},"Ë":{"ha":819,"x_min":139,"x_max":715,"o":"m 139 0 l 139 972 l 711 972 l 711 897 l 219 897 l 219 553 l 656 553 l 656 478 l 219 478 l 219 75 l 715 75 l 715 0 l 139 0 m 289 1101 q 242 1120 261 1101 q 222 1165 222 1140 q 231 1197 222 1183 q 256 1219 240 1211 q 289 1228 271 1228 q 336 1210 316 1228 q 356 1165 356 1192 q 347 1133 356 1148 q 323 1110 338 1119 q 289 1101 308 1101 m 549 1101 q 501 1120 521 1101 q 482 1165 482 1140 q 491 1196 482 1182 q 515 1219 499 1210 q 549 1228 530 1228 q 595 1210 576 1228 q 615 1165 615 1192 q 606 1133 615 1148 q 582 1110 597 1119 q 549 1101 567 1101 z "},"Ė":{"ha":819,"x_min":139,"x_max":715,"o":"m 139 0 l 139 972 l 711 972 l 711 897 l 219 897 l 219 553 l 656 553 l 656 478 l 219 478 l 219 75 l 715 75 l 715 0 l 139 0 m 418 1101 q 371 1120 390 1101 q 351 1165 351 1140 q 371 1210 351 1192 q 418 1228 391 1228 q 465 1210 445 1228 q 485 1165 485 1192 q 465 1120 485 1140 q 418 1101 445 1101 z "},"Ẹ":{"ha":819,"x_min":139,"x_max":715,"o":"m 139 0 l 139 972 l 711 972 l 711 897 l 219 897 l 219 553 l 656 553 l 656 478 l 219 478 l 219 75 l 715 75 l 715 0 l 139 0 m 418 -328 q 372 -309 391 -328 q 353 -262 353 -290 q 372 -216 353 -235 q 418 -197 391 -197 q 464 -216 445 -197 q 483 -262 483 -235 q 464 -309 483 -290 q 418 -328 445 -328 z "},"È":{"ha":819,"x_min":139,"x_max":715,"o":"m 139 0 l 139 972 l 711 972 l 711 897 l 219 897 l 219 553 l 656 553 l 656 478 l 219 478 l 219 75 l 715 75 l 715 0 l 139 0 m 397 1107 l 257 1324 l 344 1324 l 475 1107 l 397 1107 z "},"Ẻ":{"ha":819,"x_min":139,"x_max":715,"o":"m 139 0 l 139 972 l 711 972 l 711 897 l 219 897 l 219 553 l 656 553 l 656 478 l 219 478 l 219 75 l 715 75 l 715 0 l 139 0 m 375 1107 q 367 1180 352 1151 q 440 1229 382 1210 q 509 1258 492 1247 q 525 1290 525 1269 q 494 1334 525 1317 q 417 1350 464 1350 q 344 1343 381 1350 q 282 1324 307 1335 l 257 1375 q 334 1399 292 1391 q 419 1407 376 1407 q 508 1393 469 1407 q 569 1356 547 1380 q 592 1303 592 1333 q 570 1244 592 1265 q 489 1199 549 1223 q 432 1162 442 1180 q 440 1107 422 1144 l 375 1107 z "},"Ȇ":{"ha":819,"x_min":139,"x_max":715,"o":"m 139 0 l 139 972 l 711 972 l 711 897 l 219 897 l 219 553 l 656 553 l 656 478 l 219 478 l 219 75 l 715 75 l 715 0 l 139 0 m 183 1107 q 211 1224 181 1174 q 296 1302 242 1274 q 418 1331 350 1331 q 539 1301 486 1331 q 622 1222 592 1272 q 650 1107 652 1171 l 578 1107 q 538 1222 582 1178 q 418 1265 493 1265 q 297 1222 342 1265 q 254 1107 251 1178 l 183 1107 z "},"Ē":{"ha":819,"x_min":139,"x_max":715,"o":"m 139 0 l 139 972 l 711 972 l 711 897 l 219 897 l 219 553 l 656 553 l 656 478 l 219 478 l 219 75 l 715 75 l 715 0 l 139 0 m 211 1146 l 211 1215 l 625 1215 l 625 1146 l 211 1146 z "},"Ę":{"ha":819,"x_min":139,"x_max":717,"o":"m 139 0 l 139 972 l 711 972 l 711 897 l 219 897 l 219 553 l 656 553 l 656 478 l 219 478 l 219 75 l 715 75 l 715 0 l 139 0 m 604 -312 q 500 -273 535 -312 q 465 -177 465 -233 q 498 -73 467 -118 q 579 2 529 -28 q 688 47 629 33 l 715 0 q 630 -34 667 -13 q 571 -85 592 -55 q 549 -159 550 -116 q 563 -214 548 -191 q 615 -236 577 -236 q 654 -231 635 -236 q 688 -217 672 -226 l 717 -284 q 662 -305 691 -297 q 604 -312 633 -312 z "},"Ẽ":{"ha":819,"x_min":139,"x_max":715,"o":"m 139 0 l 139 972 l 711 972 l 711 897 l 219 897 l 219 553 l 656 553 l 656 478 l 219 478 l 219 75 l 715 75 l 715 0 l 139 0 m 225 1135 l 172 1165 q 230 1251 194 1219 q 314 1283 266 1283 q 389 1266 353 1283 q 458 1232 425 1249 q 522 1215 491 1215 q 575 1237 553 1215 q 611 1296 597 1258 l 664 1264 q 604 1179 641 1210 q 521 1149 567 1149 q 447 1165 482 1149 q 378 1199 411 1182 q 314 1215 345 1215 q 263 1195 285 1215 q 225 1135 241 1176 z "},"Ə":{"ha":1110,"x_min":74,"x_max":1033,"o":"m 540 -21 q 348 17 435 -21 q 199 125 260 56 q 105 288 137 194 q 78 493 74 382 l 977 493 l 977 418 l 134 418 l 167 444 q 195 288 168 358 q 273 165 223 217 q 390 85 322 113 q 540 57 458 57 q 709 89 633 57 q 838 180 785 121 q 920 320 892 238 q 949 500 949 401 q 899 720 949 626 q 757 864 849 813 q 541 915 665 915 q 351 885 439 915 q 201 799 263 855 l 154 860 q 326 957 226 920 q 541 993 426 993 q 798 931 687 993 q 970 758 908 869 q 1033 500 1033 647 q 997 292 1033 388 q 895 127 961 197 q 739 18 829 57 q 540 -21 649 -21 z "},"F":{"ha":786,"x_min":139,"x_max":700,"o":"m 139 0 l 139 972 l 700 972 l 700 897 l 219 897 l 219 539 l 658 539 l 658 464 l 219 464 l 219 0 l 139 0 z "},"G":{"ha":1042,"x_min":78,"x_max":917,"o":"m 615 -21 q 399 15 497 -21 q 228 118 300 51 q 117 277 156 185 q 78 483 78 370 q 116 691 78 597 q 223 852 153 784 q 387 956 292 919 q 597 993 482 993 q 703 984 651 993 q 802 957 755 975 q 886 910 849 939 l 847 844 q 724 898 791 880 q 590 915 657 915 q 415 885 494 915 q 279 799 335 856 q 192 664 222 743 q 161 486 161 585 q 218 254 161 351 q 377 106 274 157 q 617 54 479 54 q 751 69 694 54 q 839 104 809 85 l 839 401 l 597 401 l 597 476 l 917 476 l 917 64 q 830 18 884 38 q 717 -11 775 -1 q 615 -21 658 -21 z "},"Ğ":{"ha":1042,"x_min":78,"x_max":917,"o":"m 615 -21 q 399 15 497 -21 q 228 118 300 51 q 117 277 156 185 q 78 483 78 370 q 116 691 78 597 q 223 852 153 784 q 387 956 292 919 q 597 993 482 993 q 703 984 651 993 q 802 957 755 975 q 886 910 849 939 l 847 844 q 724 898 791 880 q 590 915 657 915 q 415 885 494 915 q 279 799 335 856 q 192 664 222 743 q 161 486 161 585 q 218 254 161 351 q 377 106 274 157 q 617 54 479 54 q 751 69 694 54 q 839 104 809 85 l 839 401 l 597 401 l 597 476 l 917 476 l 917 64 q 830 18 884 38 q 717 -11 775 -1 q 615 -21 658 -21 m 556 1100 q 432 1129 485 1100 q 348 1208 378 1158 q 321 1324 318 1259 l 392 1324 q 434 1209 389 1253 q 556 1165 480 1165 q 676 1209 632 1165 q 715 1324 719 1253 l 788 1324 q 759 1208 790 1259 q 676 1129 729 1158 q 556 1100 623 1100 z "},"Ǧ":{"ha":1042,"x_min":78,"x_max":917,"o":"m 615 -21 q 399 15 497 -21 q 228 118 300 51 q 117 277 156 185 q 78 483 78 370 q 116 691 78 597 q 223 852 153 784 q 387 956 292 919 q 597 993 482 993 q 703 984 651 993 q 802 957 755 975 q 886 910 849 939 l 847 844 q 724 898 791 880 q 590 915 657 915 q 415 885 494 915 q 279 799 335 856 q 192 664 222 743 q 161 486 161 585 q 218 254 161 351 q 377 106 274 157 q 617 54 479 54 q 751 69 694 54 q 839 104 809 85 l 839 401 l 597 401 l 597 476 l 917 476 l 917 64 q 830 18 884 38 q 717 -11 775 -1 q 615 -21 658 -21 m 507 1107 l 331 1324 l 414 1324 l 551 1160 l 694 1324 l 781 1324 l 593 1107 l 507 1107 z "},"Ĝ":{"ha":1042,"x_min":78,"x_max":917,"o":"m 615 -21 q 399 15 497 -21 q 228 118 300 51 q 117 277 156 185 q 78 483 78 370 q 116 691 78 597 q 223 852 153 784 q 387 956 292 919 q 597 993 482 993 q 703 984 651 993 q 802 957 755 975 q 886 910 849 939 l 847 844 q 724 898 791 880 q 590 915 657 915 q 415 885 494 915 q 279 799 335 856 q 192 664 222 743 q 161 486 161 585 q 218 254 161 351 q 377 106 274 157 q 617 54 479 54 q 751 69 694 54 q 839 104 809 85 l 839 401 l 597 401 l 597 476 l 917 476 l 917 64 q 830 18 884 38 q 717 -11 775 -1 q 615 -21 658 -21 m 331 1107 l 518 1324 l 606 1324 l 781 1107 l 697 1107 l 560 1271 l 417 1107 l 331 1107 z "},"Ģ":{"ha":1042,"x_min":78,"x_max":917,"o":"m 615 -21 q 399 15 497 -21 q 228 118 300 51 q 117 277 156 185 q 78 483 78 370 q 116 691 78 597 q 223 852 153 784 q 387 956 292 919 q 597 993 482 993 q 703 984 651 993 q 802 957 755 975 q 886 910 849 939 l 847 844 q 724 898 791 880 q 590 915 657 915 q 415 885 494 915 q 279 799 335 856 q 192 664 222 743 q 161 486 161 585 q 218 254 161 351 q 377 106 274 157 q 617 54 479 54 q 751 69 694 54 q 839 104 809 85 l 839 401 l 597 401 l 597 476 l 917 476 l 917 64 q 830 18 884 38 q 717 -11 775 -1 q 615 -21 658 -21 m 531 -453 l 494 -410 q 564 -366 533 -391 q 601 -317 594 -340 q 564 -311 581 -318 q 538 -290 547 -303 q 528 -258 528 -276 q 547 -215 528 -232 q 597 -197 567 -197 q 650 -218 630 -197 q 670 -278 670 -240 q 654 -339 670 -308 q 606 -400 638 -370 q 531 -453 575 -429 z "},"Ġ":{"ha":1042,"x_min":78,"x_max":917,"o":"m 615 -21 q 399 15 497 -21 q 228 118 300 51 q 117 277 156 185 q 78 483 78 370 q 116 691 78 597 q 223 852 153 784 q 387 956 292 919 q 597 993 482 993 q 703 984 651 993 q 802 957 755 975 q 886 910 849 939 l 847 844 q 724 898 791 880 q 590 915 657 915 q 415 885 494 915 q 279 799 335 856 q 192 664 222 743 q 161 486 161 585 q 218 254 161 351 q 377 106 274 157 q 617 54 479 54 q 751 69 694 54 q 839 104 809 85 l 839 401 l 597 401 l 597 476 l 917 476 l 917 64 q 830 18 884 38 q 717 -11 775 -1 q 615 -21 658 -21 m 556 1101 q 508 1120 528 1101 q 489 1165 489 1140 q 509 1210 489 1192 q 556 1228 528 1228 q 602 1210 583 1228 q 622 1165 622 1192 q 602 1120 622 1140 q 556 1101 583 1101 z "},"H":{"ha":997,"x_min":139,"x_max":858,"o":"m 139 0 l 139 972 l 219 972 l 219 560 l 778 560 l 778 972 l 858 972 l 858 0 l 778 0 l 778 485 l 219 485 l 219 0 l 139 0 z "},"Ħ":{"ha":1025,"x_min":14,"x_max":1011,"o":"m 792 0 l 792 972 l 872 972 l 872 0 l 792 0 m 153 0 l 153 972 l 233 972 l 233 0 l 153 0 m 215 457 l 215 532 l 811 532 l 811 457 l 215 457 m 14 715 l 14 776 l 1011 776 l 1011 715 l 14 715 z "},"Ĥ":{"ha":997,"x_min":139,"x_max":858,"o":"m 139 0 l 139 972 l 219 972 l 219 560 l 778 560 l 778 972 l 858 972 l 858 0 l 778 0 l 778 485 l 219 485 l 219 0 l 139 0 m 274 1107 l 461 1324 l 549 1324 l 724 1107 l 640 1107 l 503 1271 l 360 1107 l 274 1107 z "},"I":{"ha":358,"x_min":139,"x_max":219,"o":"m 139 0 l 139 972 l 219 972 l 219 0 l 139 0 z "},"Ĳ":{"ha":1018,"x_min":139,"x_max":881,"o":"m 139 0 l 139 972 l 219 972 l 219 0 l 139 0 m 592 -21 q 491 -8 540 -21 q 394 31 442 5 l 428 100 q 503 66 463 78 q 585 54 542 54 q 745 101 691 54 q 800 254 800 147 l 800 972 l 881 972 l 881 251 q 847 106 881 167 q 749 12 814 45 q 592 -21 685 -21 z "},"Í":{"ha":358,"x_min":136,"x_max":331,"o":"m 139 0 l 139 972 l 219 972 l 219 0 l 139 0 m 136 1118 l 247 1350 l 331 1350 l 210 1118 l 136 1118 z "},"Ĭ":{"ha":358,"x_min":-20,"x_max":376,"o":"m 139 0 l 139 972 l 219 972 l 219 0 l 139 0 m 179 1111 q 75 1142 120 1111 q 5 1227 30 1174 q -18 1350 -20 1281 l 51 1350 q 84 1225 49 1273 q 179 1178 120 1178 q 273 1225 238 1178 q 304 1350 308 1273 l 375 1350 q 351 1228 376 1282 q 282 1142 326 1174 q 179 1111 237 1111 z "},"Î":{"ha":358,"x_min":-12,"x_max":372,"o":"m 139 0 l 139 972 l 219 972 l 219 0 l 139 0 m -12 1118 l 143 1350 l 225 1350 l 372 1118 l 290 1118 l 182 1296 l 69 1118 l -12 1118 z "},"Ȉ":{"ha":358,"x_min":-35,"x_max":313,"o":"m 139 0 l 139 972 l 219 972 l 219 0 l 139 0 m 313 1118 l 239 1118 l 156 1350 l 238 1350 l 313 1118 m 121 1118 l 49 1118 l -35 1350 l 46 1350 l 121 1118 z "},"Ï":{"ha":358,"x_min":22,"x_max":336,"o":"m 139 0 l 139 972 l 219 972 l 219 0 l 139 0 m 88 1113 q 41 1132 60 1113 q 22 1178 22 1151 q 41 1224 22 1205 q 88 1243 60 1243 q 134 1224 115 1243 q 153 1178 153 1205 q 134 1132 153 1151 q 88 1113 115 1113 m 271 1113 q 225 1132 244 1113 q 206 1178 206 1151 q 225 1224 206 1205 q 271 1243 244 1243 q 317 1224 298 1243 q 336 1178 336 1205 q 317 1132 336 1151 q 271 1113 298 1113 z "},"İ":{"ha":358,"x_min":113,"x_max":246,"o":"m 139 0 l 139 972 l 219 972 l 219 0 l 139 0 m 179 1101 q 132 1120 151 1101 q 113 1165 113 1140 q 132 1210 113 1192 q 179 1228 152 1228 q 226 1210 206 1228 q 246 1165 246 1192 q 226 1120 246 1140 q 179 1101 206 1101 z "},"Ị":{"ha":358,"x_min":114,"x_max":244,"o":"m 139 0 l 139 972 l 219 972 l 219 0 l 139 0 m 179 -328 q 133 -309 152 -328 q 114 -262 114 -290 q 133 -216 114 -235 q 179 -197 152 -197 q 225 -216 206 -197 q 244 -262 244 -235 q 225 -309 244 -290 q 179 -328 206 -328 z "},"Ì":{"ha":358,"x_min":18,"x_max":236,"o":"m 139 0 l 139 972 l 219 972 l 219 0 l 139 0 m 158 1107 l 18 1324 l 106 1324 l 236 1107 l 158 1107 z "},"Ỉ":{"ha":358,"x_min":40,"x_max":329,"o":"m 139 0 l 139 972 l 219 972 l 219 0 l 139 0 m 140 1118 q 133 1197 119 1166 q 194 1250 146 1228 q 250 1281 236 1269 q 264 1317 264 1293 q 238 1365 264 1347 q 174 1382 213 1382 q 115 1374 146 1382 q 61 1353 84 1367 l 40 1407 q 108 1432 71 1424 q 181 1440 144 1440 q 287 1409 244 1440 q 329 1329 329 1377 q 311 1266 329 1290 q 243 1218 292 1243 q 195 1178 203 1197 q 201 1118 186 1159 l 140 1118 z "},"Ȋ":{"ha":358,"x_min":-20,"x_max":376,"o":"m 139 0 l 139 972 l 219 972 l 219 0 l 139 0 m -18 1118 q 5 1241 -20 1187 q 75 1326 30 1295 q 179 1357 120 1357 q 282 1326 237 1357 q 351 1240 326 1294 q 375 1118 376 1186 l 304 1118 q 273 1243 308 1195 q 179 1290 238 1290 q 84 1243 120 1290 q 51 1118 49 1195 l -18 1118 z "},"Ī":{"ha":358,"x_min":6,"x_max":354,"o":"m 139 0 l 139 972 l 219 972 l 219 0 l 139 0 m 6 1160 l 6 1232 l 354 1232 l 354 1160 l 6 1160 z "},"Į":{"ha":358,"x_min":-31,"x_max":221,"o":"m 139 0 l 139 972 l 219 972 l 219 0 l 139 0 m 108 -312 q 4 -273 40 -312 q -31 -177 -31 -233 q 2 -73 -29 -118 q 83 2 33 -28 q 192 47 133 33 l 219 0 q 134 -34 171 -13 q 75 -85 97 -55 q 53 -159 54 -116 q 67 -214 52 -191 q 119 -236 81 -236 q 158 -231 140 -236 q 192 -217 176 -226 l 221 -284 q 166 -305 195 -297 q 108 -312 138 -312 z "},"Ĩ":{"ha":358,"x_min":-28,"x_max":385,"o":"m 139 0 l 139 972 l 219 972 l 219 0 l 139 0 m 18 1150 l -28 1181 q 21 1271 -9 1236 q 93 1306 51 1306 q 156 1287 126 1306 q 213 1250 185 1269 q 265 1232 240 1232 q 309 1256 290 1232 q 339 1319 328 1279 l 385 1288 q 336 1197 367 1229 q 265 1164 304 1164 q 202 1182 232 1164 q 146 1218 173 1200 q 93 1236 119 1236 q 49 1213 67 1236 q 18 1150 31 1190 z "},"J":{"ha":660,"x_min":35,"x_max":522,"o":"m 233 -21 q 133 -8 182 -21 q 35 31 84 5 l 69 100 q 144 66 105 78 q 226 54 184 54 q 387 101 333 54 q 442 254 442 147 l 442 972 l 522 972 l 522 251 q 489 106 522 167 q 391 12 456 45 q 233 -21 326 -21 z "},"Ĵ":{"ha":660,"x_min":35,"x_max":675,"o":"m 233 -21 q 133 -8 182 -21 q 35 31 84 5 l 69 100 q 144 66 105 78 q 226 54 184 54 q 387 101 333 54 q 442 254 442 147 l 442 972 l 522 972 l 522 251 q 489 106 522 167 q 391 12 456 45 q 233 -21 326 -21 m 290 1118 l 446 1350 l 528 1350 l 675 1118 l 593 1118 l 485 1296 l 372 1118 l 290 1118 z "},"K":{"ha":913,"x_min":139,"x_max":850,"o":"m 139 0 l 139 972 l 219 972 l 219 392 l 693 972 l 789 972 l 438 539 l 850 0 l 744 0 l 385 475 l 219 274 l 219 0 l 139 0 z "},"Ķ":{"ha":913,"x_min":139,"x_max":850,"o":"m 139 0 l 139 972 l 219 972 l 219 392 l 693 972 l 789 972 l 438 539 l 850 0 l 744 0 l 385 475 l 219 274 l 219 0 l 139 0 m 415 -453 l 377 -410 q 447 -366 417 -391 q 484 -317 477 -340 q 447 -311 464 -318 q 421 -290 431 -303 q 411 -258 411 -276 q 431 -215 411 -232 q 480 -197 450 -197 q 533 -218 513 -197 q 553 -278 553 -240 q 537 -339 553 -308 q 490 -400 521 -370 q 415 -453 458 -429 z "},"L":{"ha":732,"x_min":139,"x_max":676,"o":"m 139 0 l 139 972 l 219 972 l 219 75 l 676 75 l 676 0 l 139 0 z "},"Ǉ":{"ha":1392,"x_min":139,"x_max":1254,"o":"m 139 0 l 139 972 l 219 972 l 219 75 l 676 75 l 676 0 l 139 0 m 965 -21 q 865 -8 914 -21 q 767 31 816 5 l 801 100 q 876 66 837 78 q 958 54 916 54 q 1119 101 1065 54 q 1174 254 1174 147 l 1174 972 l 1254 972 l 1254 251 q 1221 106 1254 167 q 1123 12 1188 45 q 965 -21 1058 -21 z "},"Ĺ":{"ha":732,"x_min":135,"x_max":676,"o":"m 139 0 l 139 972 l 219 972 l 219 75 l 676 75 l 676 0 l 139 0 m 135 1107 l 267 1324 l 350 1324 l 210 1107 l 135 1107 z "},"Ľ":{"ha":732,"x_min":139,"x_max":676,"o":"m 139 0 l 139 972 l 219 972 l 219 75 l 676 75 l 676 0 l 139 0 m 324 689 l 324 1000 l 415 1000 l 383 689 l 324 689 z "},"Ļ":{"ha":732,"x_min":139,"x_max":676,"o":"m 139 0 l 139 972 l 219 972 l 219 75 l 676 75 l 676 0 l 139 0 m 342 -453 l 305 -410 q 375 -366 344 -391 q 412 -317 405 -340 q 375 -311 392 -318 q 349 -290 358 -303 q 339 -258 339 -276 q 358 -215 339 -232 q 408 -197 378 -197 q 461 -218 441 -197 q 481 -278 481 -240 q 465 -339 481 -308 q 417 -400 449 -370 q 342 -453 386 -429 z "},"Ŀ":{"ha":732,"x_min":139,"x_max":688,"o":"m 139 0 l 139 972 l 219 972 l 219 75 l 676 75 l 676 0 l 139 0 m 611 438 q 557 458 579 438 q 535 510 535 478 q 545 547 535 531 q 572 573 555 563 q 611 582 590 582 q 666 561 644 582 q 688 510 688 541 q 677 473 688 489 q 650 447 667 456 q 611 438 633 438 z "},"ǈ":{"ha":1046,"x_min":139,"x_max":954,"o":"m 139 0 l 139 972 l 219 972 l 219 75 l 676 75 l 676 0 l 139 0 m 769 -312 q 703 -304 733 -312 q 653 -285 674 -295 l 679 -218 q 713 -232 696 -226 q 758 -237 731 -237 q 830 -208 810 -237 q 850 -121 850 -178 l 850 667 l 928 667 l 928 -135 q 909 -231 928 -191 q 854 -291 890 -270 q 769 -312 819 -312 m 889 807 q 843 826 862 807 q 824 872 824 845 q 843 918 824 899 q 889 938 862 938 q 935 918 916 938 q 954 872 954 899 q 935 826 954 845 q 889 807 916 807 z "},"Ł":{"ha":760,"x_min":31,"x_max":704,"o":"m 57 358 l 31 414 l 204 494 l 204 488 l 618 681 l 644 625 l 204 419 l 204 426 l 57 358 m 167 0 l 167 972 l 247 972 l 247 75 l 704 75 l 704 0 l 167 0 z "},"M":{"ha":1239,"x_min":139,"x_max":1100,"o":"m 139 0 l 139 972 l 218 972 l 642 294 l 613 294 l 1025 972 l 1100 972 l 1100 0 l 1019 0 l 1019 853 l 1038 847 l 657 236 l 583 236 l 201 847 l 213 853 l 213 0 l 139 0 z "},"N":{"ha":1008,"x_min":139,"x_max":869,"o":"m 139 0 l 139 972 l 208 972 l 789 156 l 789 972 l 869 972 l 869 0 l 800 0 l 219 825 l 219 0 l 139 0 z "},"Ǌ":{"ha":1668,"x_min":139,"x_max":1531,"o":"m 139 0 l 139 972 l 208 972 l 789 156 l 789 972 l 869 972 l 869 0 l 800 0 l 219 825 l 219 0 l 139 0 m 1242 -21 q 1141 -8 1190 -21 q 1044 31 1092 5 l 1078 100 q 1153 66 1113 78 q 1235 54 1192 54 q 1395 101 1341 54 q 1450 254 1450 147 l 1450 972 l 1531 972 l 1531 251 q 1497 106 1531 167 q 1399 12 1464 45 q 1242 -21 1335 -21 z "},"Ń":{"ha":1008,"x_min":139,"x_max":869,"o":"m 139 0 l 139 972 l 208 972 l 789 156 l 789 972 l 869 972 l 869 0 l 800 0 l 219 825 l 219 0 l 139 0 m 460 1107 l 592 1324 l 675 1324 l 535 1107 l 460 1107 z "},"Ň":{"ha":1008,"x_min":139,"x_max":869,"o":"m 139 0 l 139 972 l 208 972 l 789 156 l 789 972 l 869 972 l 869 0 l 800 0 l 219 825 l 219 0 l 139 0 m 456 1107 l 279 1324 l 363 1324 l 500 1160 l 643 1324 l 729 1324 l 542 1107 l 456 1107 z "},"Ņ":{"ha":1008,"x_min":139,"x_max":869,"o":"m 139 0 l 139 972 l 208 972 l 789 156 l 789 972 l 869 972 l 869 0 l 800 0 l 219 825 l 219 0 l 139 0 m 438 -453 l 401 -410 q 470 -366 440 -391 q 508 -317 501 -340 q 471 -311 488 -318 q 444 -290 454 -303 q 435 -258 435 -276 q 454 -215 435 -232 q 503 -197 474 -197 q 557 -218 537 -197 q 577 -278 577 -240 q 561 -339 577 -308 q 513 -400 544 -370 q 438 -453 482 -429 z "},"ǋ":{"ha":1322,"x_min":139,"x_max":1231,"o":"m 139 0 l 139 972 l 208 972 l 789 156 l 789 972 l 869 972 l 869 0 l 800 0 l 219 825 l 219 0 l 139 0 m 1046 -312 q 980 -304 1010 -312 q 929 -285 950 -295 l 956 -218 q 990 -232 972 -226 q 1035 -237 1007 -237 q 1107 -208 1087 -237 q 1126 -121 1126 -178 l 1126 667 l 1204 667 l 1204 -135 q 1185 -231 1204 -191 q 1131 -291 1166 -270 q 1046 -312 1095 -312 m 1165 807 q 1119 826 1138 807 q 1100 872 1100 845 q 1119 918 1100 899 q 1165 938 1138 938 q 1211 918 1192 938 q 1231 872 1231 899 q 1211 826 1231 845 q 1165 807 1192 807 z "},"Ñ":{"ha":1008,"x_min":139,"x_max":869,"o":"m 139 0 l 139 972 l 208 972 l 789 156 l 789 972 l 869 972 l 869 0 l 800 0 l 219 825 l 219 0 l 139 0 m 311 1135 l 258 1165 q 316 1251 281 1219 q 400 1283 352 1283 q 475 1266 440 1283 q 544 1232 511 1249 q 608 1215 577 1215 q 661 1237 639 1215 q 697 1296 683 1258 l 750 1264 q 690 1179 727 1210 q 607 1149 653 1149 q 533 1165 568 1149 q 464 1199 497 1182 q 400 1215 431 1215 q 349 1195 371 1215 q 311 1135 327 1176 z "},"Ŋ":{"ha":1008,"x_min":139,"x_max":869,"o":"m 801 -1 l 219 825 l 219 0 l 139 0 l 139 972 l 208 972 l 801 138 l 801 -1 m 708 -312 q 643 -304 673 -312 q 592 -285 613 -295 l 618 -218 q 652 -232 635 -226 q 697 -237 669 -237 q 769 -208 749 -237 q 789 -121 789 -178 l 789 972 l 869 972 l 869 -135 q 850 -231 869 -191 q 794 -291 831 -270 q 708 -312 758 -312 z "},"O":{"ha":1164,"x_min":78,"x_max":1086,"o":"m 582 -21 q 383 18 475 -21 q 223 125 291 56 q 116 286 154 194 q 78 486 78 378 q 116 687 78 594 q 223 848 154 779 q 383 955 291 917 q 582 993 475 993 q 780 954 688 993 q 940 846 872 915 q 1048 684 1009 776 q 1086 486 1086 592 q 1048 286 1086 378 q 940 125 1009 194 q 780 18 872 56 q 582 -21 688 -21 m 582 57 q 746 88 669 57 q 880 175 822 118 q 970 310 938 231 q 1003 486 1003 390 q 946 712 1003 615 q 794 862 890 808 q 582 915 699 915 q 418 885 494 915 q 284 798 342 854 q 194 662 226 741 q 161 486 161 583 q 218 260 161 357 q 370 110 274 164 q 582 57 465 57 z "},"Ó":{"ha":1164,"x_min":78,"x_max":1086,"o":"m 582 -21 q 383 18 475 -21 q 223 125 291 56 q 116 286 154 194 q 78 486 78 378 q 116 687 78 594 q 223 848 154 779 q 383 955 291 917 q 582 993 475 993 q 780 954 688 993 q 940 846 872 915 q 1048 684 1009 776 q 1086 486 1086 592 q 1048 286 1086 378 q 940 125 1009 194 q 780 18 872 56 q 582 -21 688 -21 m 582 57 q 746 88 669 57 q 880 175 822 118 q 970 310 938 231 q 1003 486 1003 390 q 946 712 1003 615 q 794 862 890 808 q 582 915 699 915 q 418 885 494 915 q 284 798 342 854 q 194 662 226 741 q 161 486 161 583 q 218 260 161 357 q 370 110 274 164 q 582 57 465 57 m 538 1107 l 669 1324 l 753 1324 l 613 1107 l 538 1107 z "},"Ŏ":{"ha":1164,"x_min":78,"x_max":1086,"o":"m 582 -21 q 383 18 475 -21 q 223 125 291 56 q 116 286 154 194 q 78 486 78 378 q 116 687 78 594 q 223 848 154 779 q 383 955 291 917 q 582 993 475 993 q 780 954 688 993 q 940 846 872 915 q 1048 684 1009 776 q 1086 486 1086 592 q 1048 286 1086 378 q 940 125 1009 194 q 780 18 872 56 q 582 -21 688 -21 m 582 57 q 746 88 669 57 q 880 175 822 118 q 970 310 938 231 q 1003 486 1003 390 q 946 712 1003 615 q 794 862 890 808 q 582 915 699 915 q 418 885 494 915 q 284 798 342 854 q 194 662 226 741 q 161 486 161 583 q 218 260 161 357 q 370 110 274 164 q 582 57 465 57 m 582 1100 q 458 1129 512 1100 q 374 1208 404 1158 q 347 1324 344 1259 l 418 1324 q 461 1209 415 1253 q 582 1165 506 1165 q 702 1209 658 1165 q 742 1324 746 1253 l 814 1324 q 786 1208 816 1259 q 702 1129 756 1158 q 582 1100 649 1100 z "},"Ô":{"ha":1164,"x_min":78,"x_max":1086,"o":"m 582 -21 q 383 18 475 -21 q 223 125 291 56 q 116 286 154 194 q 78 486 78 378 q 116 687 78 594 q 223 848 154 779 q 383 955 291 917 q 582 993 475 993 q 780 954 688 993 q 940 846 872 915 q 1048 684 1009 776 q 1086 486 1086 592 q 1048 286 1086 378 q 940 125 1009 194 q 780 18 872 56 q 582 -21 688 -21 m 582 57 q 746 88 669 57 q 880 175 822 118 q 970 310 938 231 q 1003 486 1003 390 q 946 712 1003 615 q 794 862 890 808 q 582 915 699 915 q 418 885 494 915 q 284 798 342 854 q 194 662 226 741 q 161 486 161 583 q 218 260 161 357 q 370 110 274 164 q 582 57 465 57 m 357 1107 l 544 1324 l 632 1324 l 807 1107 l 724 1107 l 586 1271 l 443 1107 l 357 1107 z "},"Ố":{"ha":1164,"x_min":78,"x_max":1086,"o":"m 582 -21 q 383 18 475 -21 q 223 125 291 56 q 116 286 154 194 q 78 486 78 378 q 116 687 78 594 q 223 848 154 779 q 383 955 291 917 q 582 993 475 993 q 780 954 688 993 q 940 846 872 915 q 1048 684 1009 776 q 1086 486 1086 592 q 1048 286 1086 378 q 940 125 1009 194 q 780 18 872 56 q 582 -21 688 -21 m 582 57 q 746 88 669 57 q 880 175 822 118 q 970 310 938 231 q 1003 486 1003 390 q 946 712 1003 615 q 794 862 890 808 q 582 915 699 915 q 418 885 494 915 q 284 798 342 854 q 194 662 226 741 q 161 486 161 583 q 218 260 161 357 q 370 110 274 164 q 582 57 465 57 m 357 1107 l 544 1324 l 632 1324 l 807 1107 l 724 1107 l 586 1271 l 443 1107 l 357 1107 m 758 1279 l 890 1496 l 974 1496 l 833 1279 l 758 1279 z "},"Ộ":{"ha":1164,"x_min":78,"x_max":1086,"o":"m 582 -21 q 383 18 475 -21 q 223 125 291 56 q 116 286 154 194 q 78 486 78 378 q 116 687 78 594 q 223 848 154 779 q 383 955 291 917 q 582 993 475 993 q 780 954 688 993 q 940 846 872 915 q 1048 684 1009 776 q 1086 486 1086 592 q 1048 286 1086 378 q 940 125 1009 194 q 780 18 872 56 q 582 -21 688 -21 m 582 57 q 746 88 669 57 q 880 175 822 118 q 970 310 938 231 q 1003 486 1003 390 q 946 712 1003 615 q 794 862 890 808 q 582 915 699 915 q 418 885 494 915 q 284 798 342 854 q 194 662 226 741 q 161 486 161 583 q 218 260 161 357 q 370 110 274 164 q 582 57 465 57 m 582 -328 q 536 -309 555 -328 q 517 -262 517 -290 q 536 -216 517 -235 q 582 -197 555 -197 q 628 -216 609 -197 q 647 -262 647 -235 q 628 -309 647 -290 q 582 -328 609 -328 m 357 1107 l 544 1324 l 632 1324 l 807 1107 l 724 1107 l 586 1271 l 443 1107 l 357 1107 z "},"Ồ":{"ha":1164,"x_min":78,"x_max":1086,"o":"m 582 -21 q 383 18 475 -21 q 223 125 291 56 q 116 286 154 194 q 78 486 78 378 q 116 687 78 594 q 223 848 154 779 q 383 955 291 917 q 582 993 475 993 q 780 954 688 993 q 940 846 872 915 q 1048 684 1009 776 q 1086 486 1086 592 q 1048 286 1086 378 q 940 125 1009 194 q 780 18 872 56 q 582 -21 688 -21 m 582 57 q 746 88 669 57 q 880 175 822 118 q 970 310 938 231 q 1003 486 1003 390 q 946 712 1003 615 q 794 862 890 808 q 582 915 699 915 q 418 885 494 915 q 284 798 342 854 q 194 662 226 741 q 161 486 161 583 q 218 260 161 357 q 370 110 274 164 q 582 57 465 57 m 357 1107 l 544 1324 l 632 1324 l 807 1107 l 724 1107 l 586 1271 l 443 1107 l 357 1107 m 782 1279 l 642 1496 l 729 1496 l 860 1279 l 782 1279 z "},"Ổ":{"ha":1164,"x_min":78,"x_max":1086,"o":"m 582 -21 q 383 18 475 -21 q 223 125 291 56 q 116 286 154 194 q 78 486 78 378 q 116 687 78 594 q 223 848 154 779 q 383 955 291 917 q 582 993 475 993 q 780 954 688 993 q 940 846 872 915 q 1048 684 1009 776 q 1086 486 1086 592 q 1048 286 1086 378 q 940 125 1009 194 q 780 18 872 56 q 582 -21 688 -21 m 582 57 q 746 88 669 57 q 880 175 822 118 q 970 310 938 231 q 1003 486 1003 390 q 946 712 1003 615 q 794 862 890 808 q 582 915 699 915 q 418 885 494 915 q 284 798 342 854 q 194 662 226 741 q 161 486 161 583 q 218 260 161 357 q 370 110 274 164 q 582 57 465 57 m 357 1107 l 544 1324 l 632 1324 l 807 1107 l 724 1107 l 586 1271 l 443 1107 l 357 1107 m 760 1279 q 752 1352 737 1323 q 825 1401 767 1382 q 893 1430 877 1419 q 910 1463 910 1441 q 879 1506 910 1490 q 801 1522 849 1522 q 728 1515 765 1522 q 667 1496 692 1508 l 642 1547 q 719 1571 677 1563 q 804 1579 760 1579 q 892 1566 853 1579 q 954 1528 931 1552 q 976 1475 976 1505 q 955 1416 976 1438 q 874 1371 933 1395 q 817 1334 827 1352 q 825 1279 806 1317 l 760 1279 z "},"Ỗ":{"ha":1164,"x_min":78,"x_max":1086,"o":"m 582 -21 q 383 18 475 -21 q 223 125 291 56 q 116 286 154 194 q 78 486 78 378 q 116 687 78 594 q 223 848 154 779 q 383 955 291 917 q 582 993 475 993 q 780 954 688 993 q 940 846 872 915 q 1048 684 1009 776 q 1086 486 1086 592 q 1048 286 1086 378 q 940 125 1009 194 q 780 18 872 56 q 582 -21 688 -21 m 582 57 q 746 88 669 57 q 880 175 822 118 q 970 310 938 231 q 1003 486 1003 390 q 946 712 1003 615 q 794 862 890 808 q 582 915 699 915 q 418 885 494 915 q 284 798 342 854 q 194 662 226 741 q 161 486 161 583 q 218 260 161 357 q 370 110 274 164 q 582 57 465 57 m 357 1107 l 544 1324 l 632 1324 l 807 1107 l 724 1107 l 586 1271 l 443 1107 l 357 1107 m 389 1447 l 336 1478 q 394 1564 358 1531 q 478 1596 430 1596 q 553 1579 517 1596 q 622 1545 589 1562 q 686 1528 655 1528 q 739 1549 717 1528 q 775 1608 760 1571 l 828 1576 q 768 1492 805 1522 q 685 1461 731 1461 q 610 1478 646 1461 q 542 1511 575 1494 q 478 1528 509 1528 q 427 1508 449 1528 q 389 1447 405 1488 z "},"Ȍ":{"ha":1164,"x_min":78,"x_max":1086,"o":"m 582 -21 q 383 18 475 -21 q 223 125 291 56 q 116 286 154 194 q 78 486 78 378 q 116 687 78 594 q 223 848 154 779 q 383 955 291 917 q 582 993 475 993 q 780 954 688 993 q 940 846 872 915 q 1048 684 1009 776 q 1086 486 1086 592 q 1048 286 1086 378 q 940 125 1009 194 q 780 18 872 56 q 582 -21 688 -21 m 582 57 q 746 88 669 57 q 880 175 822 118 q 970 310 938 231 q 1003 486 1003 390 q 946 712 1003 615 q 794 862 890 808 q 582 915 699 915 q 418 885 494 915 q 284 798 342 854 q 194 662 226 741 q 161 486 161 583 q 218 260 161 357 q 370 110 274 164 q 582 57 465 57 m 742 1107 l 667 1107 l 526 1324 l 611 1324 l 742 1107 m 499 1107 l 424 1107 l 283 1324 l 367 1324 l 499 1107 z "},"Ö":{"ha":1164,"x_min":78,"x_max":1086,"o":"m 582 -21 q 383 18 475 -21 q 223 125 291 56 q 116 286 154 194 q 78 486 78 378 q 116 687 78 594 q 223 848 154 779 q 383 955 291 917 q 582 993 475 993 q 780 954 688 993 q 940 846 872 915 q 1048 684 1009 776 q 1086 486 1086 592 q 1048 286 1086 378 q 940 125 1009 194 q 780 18 872 56 q 582 -21 688 -21 m 582 57 q 746 88 669 57 q 880 175 822 118 q 970 310 938 231 q 1003 486 1003 390 q 946 712 1003 615 q 794 862 890 808 q 582 915 699 915 q 418 885 494 915 q 284 798 342 854 q 194 662 226 741 q 161 486 161 583 q 218 260 161 357 q 370 110 274 164 q 582 57 465 57 m 453 1101 q 406 1120 425 1101 q 386 1165 386 1140 q 395 1197 386 1183 q 419 1219 404 1211 q 453 1228 435 1228 q 500 1210 480 1228 q 519 1165 519 1192 q 511 1133 519 1148 q 487 1110 502 1119 q 453 1101 472 1101 m 713 1101 q 665 1120 685 1101 q 646 1165 646 1140 q 655 1196 646 1182 q 678 1219 663 1210 q 713 1228 694 1228 q 759 1210 740 1228 q 779 1165 779 1192 q 770 1133 779 1148 q 746 1110 761 1119 q 713 1101 731 1101 z "},"Ȫ":{"ha":1164,"x_min":78,"x_max":1086,"o":"m 582 -21 q 383 18 475 -21 q 223 125 291 56 q 116 286 154 194 q 78 486 78 378 q 116 687 78 594 q 223 848 154 779 q 383 955 291 917 q 582 993 475 993 q 780 954 688 993 q 940 846 872 915 q 1048 684 1009 776 q 1086 486 1086 592 q 1048 286 1086 378 q 940 125 1009 194 q 780 18 872 56 q 582 -21 688 -21 m 582 57 q 746 88 669 57 q 880 175 822 118 q 970 310 938 231 q 1003 486 1003 390 q 946 712 1003 615 q 794 862 890 808 q 582 915 699 915 q 418 885 494 915 q 284 798 342 854 q 194 662 226 741 q 161 486 161 583 q 218 260 161 357 q 370 110 274 164 q 582 57 465 57 m 453 1101 q 406 1120 425 1101 q 386 1165 386 1140 q 395 1197 386 1183 q 419 1219 404 1211 q 453 1228 435 1228 q 500 1210 480 1228 q 519 1165 519 1192 q 511 1133 519 1148 q 487 1110 502 1119 q 453 1101 472 1101 m 713 1101 q 665 1120 685 1101 q 646 1165 646 1140 q 655 1196 646 1182 q 678 1219 663 1210 q 713 1228 694 1228 q 759 1210 740 1228 q 779 1165 779 1192 q 770 1133 779 1148 q 746 1110 761 1119 q 713 1101 731 1101 m 375 1358 l 375 1428 l 789 1428 l 789 1358 l 375 1358 z "},"Ȱ":{"ha":1164,"x_min":78,"x_max":1086,"o":"m 582 -21 q 383 18 475 -21 q 223 125 291 56 q 116 286 154 194 q 78 486 78 378 q 116 687 78 594 q 223 848 154 779 q 383 955 291 917 q 582 993 475 993 q 780 954 688 993 q 940 846 872 915 q 1048 684 1009 776 q 1086 486 1086 592 q 1048 286 1086 378 q 940 125 1009 194 q 780 18 872 56 q 582 -21 688 -21 m 582 57 q 746 88 669 57 q 880 175 822 118 q 970 310 938 231 q 1003 486 1003 390 q 946 712 1003 615 q 794 862 890 808 q 582 915 699 915 q 418 885 494 915 q 284 798 342 854 q 194 662 226 741 q 161 486 161 583 q 218 260 161 357 q 370 110 274 164 q 582 57 465 57 m 582 1101 q 535 1120 554 1101 q 515 1165 515 1140 q 535 1210 515 1192 q 582 1228 555 1228 q 629 1210 609 1228 q 649 1165 649 1192 q 629 1120 649 1140 q 582 1101 609 1101 m 375 1358 l 375 1428 l 789 1428 l 789 1358 l 375 1358 z "},"Ọ":{"ha":1164,"x_min":78,"x_max":1086,"o":"m 582 -21 q 383 18 475 -21 q 223 125 291 56 q 116 286 154 194 q 78 486 78 378 q 116 687 78 594 q 223 848 154 779 q 383 955 291 917 q 582 993 475 993 q 780 954 688 993 q 940 846 872 915 q 1048 684 1009 776 q 1086 486 1086 592 q 1048 286 1086 378 q 940 125 1009 194 q 780 18 872 56 q 582 -21 688 -21 m 582 57 q 746 88 669 57 q 880 175 822 118 q 970 310 938 231 q 1003 486 1003 390 q 946 712 1003 615 q 794 862 890 808 q 582 915 699 915 q 418 885 494 915 q 284 798 342 854 q 194 662 226 741 q 161 486 161 583 q 218 260 161 357 q 370 110 274 164 q 582 57 465 57 m 582 -328 q 536 -309 555 -328 q 517 -262 517 -290 q 536 -216 517 -235 q 582 -197 555 -197 q 628 -216 609 -197 q 647 -262 647 -235 q 628 -309 647 -290 q 582 -328 609 -328 z "},"Ò":{"ha":1164,"x_min":78,"x_max":1086,"o":"m 582 -21 q 383 18 475 -21 q 223 125 291 56 q 116 286 154 194 q 78 486 78 378 q 116 687 78 594 q 223 848 154 779 q 383 955 291 917 q 582 993 475 993 q 780 954 688 993 q 940 846 872 915 q 1048 684 1009 776 q 1086 486 1086 592 q 1048 286 1086 378 q 940 125 1009 194 q 780 18 872 56 q 582 -21 688 -21 m 582 57 q 746 88 669 57 q 880 175 822 118 q 970 310 938 231 q 1003 486 1003 390 q 946 712 1003 615 q 794 862 890 808 q 582 915 699 915 q 418 885 494 915 q 284 798 342 854 q 194 662 226 741 q 161 486 161 583 q 218 260 161 357 q 370 110 274 164 q 582 57 465 57 m 561 1107 l 421 1324 l 508 1324 l 639 1107 l 561 1107 z "},"Ỏ":{"ha":1164,"x_min":78,"x_max":1086,"o":"m 582 -21 q 383 18 475 -21 q 223 125 291 56 q 116 286 154 194 q 78 486 78 378 q 116 687 78 594 q 223 848 154 779 q 383 955 291 917 q 582 993 475 993 q 780 954 688 993 q 940 846 872 915 q 1048 684 1009 776 q 1086 486 1086 592 q 1048 286 1086 378 q 940 125 1009 194 q 780 18 872 56 q 582 -21 688 -21 m 582 57 q 746 88 669 57 q 880 175 822 118 q 970 310 938 231 q 1003 486 1003 390 q 946 712 1003 615 q 794 862 890 808 q 582 915 699 915 q 418 885 494 915 q 284 798 342 854 q 194 662 226 741 q 161 486 161 583 q 218 260 161 357 q 370 110 274 164 q 582 57 465 57 m 539 1107 q 531 1180 516 1151 q 604 1229 546 1210 q 673 1258 656 1247 q 689 1290 689 1269 q 658 1334 689 1317 q 581 1350 628 1350 q 508 1343 544 1350 q 446 1324 471 1335 l 421 1375 q 498 1399 456 1391 q 583 1407 540 1407 q 672 1393 633 1407 q 733 1356 710 1380 q 756 1303 756 1333 q 734 1244 756 1265 q 653 1199 713 1223 q 596 1162 606 1180 q 604 1107 585 1144 l 539 1107 z "},"Ơ":{"ha":1164,"x_min":78,"x_max":1096,"o":"m 582 -21 q 383 18 475 -21 q 223 125 291 56 q 116 286 154 194 q 78 486 78 378 q 116 687 78 594 q 223 848 154 779 q 383 955 291 917 q 582 993 475 993 q 780 954 688 993 q 940 846 872 915 q 1048 684 1009 776 q 1086 486 1086 592 q 1048 286 1086 378 q 940 125 1009 194 q 780 18 872 56 q 582 -21 688 -21 m 582 57 q 746 88 669 57 q 880 175 822 118 q 970 310 938 231 q 1003 486 1003 390 q 946 712 1003 615 q 794 862 890 808 q 582 915 699 915 q 418 885 494 915 q 284 798 342 854 q 194 662 226 741 q 161 486 161 583 q 218 260 161 357 q 370 110 274 164 q 582 57 465 57 m 958 853 q 885 867 926 853 q 797 899 844 881 q 695 932 749 918 q 582 946 642 946 l 582 993 q 692 981 638 993 q 794 951 747 968 q 881 922 842 935 q 944 910 919 910 q 1003 927 985 910 q 1021 972 1021 945 q 1012 1013 1021 988 q 976 1069 1003 1038 l 1042 1097 q 1082 1035 1069 1067 q 1096 974 1096 1003 q 1080 914 1096 941 q 1034 869 1065 886 q 958 853 1003 853 z "},"Ớ":{"ha":1164,"x_min":78,"x_max":1096,"o":"m 582 -21 q 383 18 475 -21 q 223 125 291 56 q 116 286 154 194 q 78 486 78 378 q 116 687 78 594 q 223 848 154 779 q 383 955 291 917 q 582 993 475 993 q 780 954 688 993 q 940 846 872 915 q 1048 684 1009 776 q 1086 486 1086 592 q 1048 286 1086 378 q 940 125 1009 194 q 780 18 872 56 q 582 -21 688 -21 m 582 57 q 746 88 669 57 q 880 175 822 118 q 970 310 938 231 q 1003 486 1003 390 q 946 712 1003 615 q 794 862 890 808 q 582 915 699 915 q 418 885 494 915 q 284 798 342 854 q 194 662 226 741 q 161 486 161 583 q 218 260 161 357 q 370 110 274 164 q 582 57 465 57 m 958 853 q 885 867 926 853 q 797 899 844 881 q 695 932 749 918 q 582 946 642 946 l 582 993 q 692 981 638 993 q 794 951 747 968 q 881 922 842 935 q 944 910 919 910 q 1003 927 985 910 q 1021 972 1021 945 q 1012 1013 1021 988 q 976 1069 1003 1038 l 1042 1097 q 1082 1035 1069 1067 q 1096 974 1096 1003 q 1080 914 1096 941 q 1034 869 1065 886 q 958 853 1003 853 m 538 1107 l 669 1324 l 753 1324 l 613 1107 l 538 1107 z "},"Ợ":{"ha":1164,"x_min":78,"x_max":1096,"o":"m 582 -21 q 383 18 475 -21 q 223 125 291 56 q 116 286 154 194 q 78 486 78 378 q 116 687 78 594 q 223 848 154 779 q 383 955 291 917 q 582 993 475 993 q 780 954 688 993 q 940 846 872 915 q 1048 684 1009 776 q 1086 486 1086 592 q 1048 286 1086 378 q 940 125 1009 194 q 780 18 872 56 q 582 -21 688 -21 m 582 57 q 746 88 669 57 q 880 175 822 118 q 970 310 938 231 q 1003 486 1003 390 q 946 712 1003 615 q 794 862 890 808 q 582 915 699 915 q 418 885 494 915 q 284 798 342 854 q 194 662 226 741 q 161 486 161 583 q 218 260 161 357 q 370 110 274 164 q 582 57 465 57 m 958 853 q 885 867 926 853 q 797 899 844 881 q 695 932 749 918 q 582 946 642 946 l 582 993 q 692 981 638 993 q 794 951 747 968 q 881 922 842 935 q 944 910 919 910 q 1003 927 985 910 q 1021 972 1021 945 q 1012 1013 1021 988 q 976 1069 1003 1038 l 1042 1097 q 1082 1035 1069 1067 q 1096 974 1096 1003 q 1080 914 1096 941 q 1034 869 1065 886 q 958 853 1003 853 m 582 -328 q 536 -309 555 -328 q 517 -262 517 -290 q 536 -216 517 -235 q 582 -197 555 -197 q 628 -216 609 -197 q 647 -262 647 -235 q 628 -309 647 -290 q 582 -328 609 -328 z "},"Ờ":{"ha":1164,"x_min":78,"x_max":1096,"o":"m 582 -21 q 383 18 475 -21 q 223 125 291 56 q 116 286 154 194 q 78 486 78 378 q 116 687 78 594 q 223 848 154 779 q 383 955 291 917 q 582 993 475 993 q 780 954 688 993 q 940 846 872 915 q 1048 684 1009 776 q 1086 486 1086 592 q 1048 286 1086 378 q 940 125 1009 194 q 780 18 872 56 q 582 -21 688 -21 m 582 57 q 746 88 669 57 q 880 175 822 118 q 970 310 938 231 q 1003 486 1003 390 q 946 712 1003 615 q 794 862 890 808 q 582 915 699 915 q 418 885 494 915 q 284 798 342 854 q 194 662 226 741 q 161 486 161 583 q 218 260 161 357 q 370 110 274 164 q 582 57 465 57 m 958 853 q 885 867 926 853 q 797 899 844 881 q 695 932 749 918 q 582 946 642 946 l 582 993 q 692 981 638 993 q 794 951 747 968 q 881 922 842 935 q 944 910 919 910 q 1003 927 985 910 q 1021 972 1021 945 q 1012 1013 1021 988 q 976 1069 1003 1038 l 1042 1097 q 1082 1035 1069 1067 q 1096 974 1096 1003 q 1080 914 1096 941 q 1034 869 1065 886 q 958 853 1003 853 m 561 1107 l 421 1324 l 508 1324 l 639 1107 l 561 1107 z "},"Ở":{"ha":1164,"x_min":78,"x_max":1096,"o":"m 582 -21 q 383 18 475 -21 q 223 125 291 56 q 116 286 154 194 q 78 486 78 378 q 116 687 78 594 q 223 848 154 779 q 383 955 291 917 q 582 993 475 993 q 780 954 688 993 q 940 846 872 915 q 1048 684 1009 776 q 1086 486 1086 592 q 1048 286 1086 378 q 940 125 1009 194 q 780 18 872 56 q 582 -21 688 -21 m 582 57 q 746 88 669 57 q 880 175 822 118 q 970 310 938 231 q 1003 486 1003 390 q 946 712 1003 615 q 794 862 890 808 q 582 915 699 915 q 418 885 494 915 q 284 798 342 854 q 194 662 226 741 q 161 486 161 583 q 218 260 161 357 q 370 110 274 164 q 582 57 465 57 m 958 853 q 885 867 926 853 q 797 899 844 881 q 695 932 749 918 q 582 946 642 946 l 582 993 q 692 981 638 993 q 794 951 747 968 q 881 922 842 935 q 944 910 919 910 q 1003 927 985 910 q 1021 972 1021 945 q 1012 1013 1021 988 q 976 1069 1003 1038 l 1042 1097 q 1082 1035 1069 1067 q 1096 974 1096 1003 q 1080 914 1096 941 q 1034 869 1065 886 q 958 853 1003 853 m 539 1107 q 531 1180 516 1151 q 604 1229 546 1210 q 673 1258 656 1247 q 689 1290 689 1269 q 658 1334 689 1317 q 581 1350 628 1350 q 508 1343 544 1350 q 446 1324 471 1335 l 421 1375 q 498 1399 456 1391 q 583 1407 540 1407 q 672 1393 633 1407 q 733 1356 710 1380 q 756 1303 756 1333 q 734 1244 756 1265 q 653 1199 713 1223 q 596 1162 606 1180 q 604 1107 585 1144 l 539 1107 z "},"Ỡ":{"ha":1164,"x_min":78,"x_max":1096,"o":"m 582 -21 q 383 18 475 -21 q 223 125 291 56 q 116 286 154 194 q 78 486 78 378 q 116 687 78 594 q 223 848 154 779 q 383 955 291 917 q 582 993 475 993 q 780 954 688 993 q 940 846 872 915 q 1048 684 1009 776 q 1086 486 1086 592 q 1048 286 1086 378 q 940 125 1009 194 q 780 18 872 56 q 582 -21 688 -21 m 582 57 q 746 88 669 57 q 880 175 822 118 q 970 310 938 231 q 1003 486 1003 390 q 946 712 1003 615 q 794 862 890 808 q 582 915 699 915 q 418 885 494 915 q 284 798 342 854 q 194 662 226 741 q 161 486 161 583 q 218 260 161 357 q 370 110 274 164 q 582 57 465 57 m 958 853 q 885 867 926 853 q 797 899 844 881 q 695 932 749 918 q 582 946 642 946 l 582 993 q 692 981 638 993 q 794 951 747 968 q 881 922 842 935 q 944 910 919 910 q 1003 927 985 910 q 1021 972 1021 945 q 1012 1013 1021 988 q 976 1069 1003 1038 l 1042 1097 q 1082 1035 1069 1067 q 1096 974 1096 1003 q 1080 914 1096 941 q 1034 869 1065 886 q 958 853 1003 853 m 389 1135 l 336 1165 q 394 1251 358 1219 q 478 1283 430 1283 q 553 1266 517 1283 q 622 1232 589 1249 q 686 1215 655 1215 q 739 1237 717 1215 q 775 1296 760 1258 l 828 1264 q 768 1179 805 1210 q 685 1149 731 1149 q 610 1165 646 1149 q 542 1199 575 1182 q 478 1215 509 1215 q 427 1195 449 1215 q 389 1135 405 1176 z "},"Ő":{"ha":1164,"x_min":78,"x_max":1086,"o":"m 582 -21 q 383 18 475 -21 q 223 125 291 56 q 116 286 154 194 q 78 486 78 378 q 116 687 78 594 q 223 848 154 779 q 383 955 291 917 q 582 993 475 993 q 780 954 688 993 q 940 846 872 915 q 1048 684 1009 776 q 1086 486 1086 592 q 1048 286 1086 378 q 940 125 1009 194 q 780 18 872 56 q 582 -21 688 -21 m 582 57 q 746 88 669 57 q 880 175 822 118 q 970 310 938 231 q 1003 486 1003 390 q 946 712 1003 615 q 794 862 890 808 q 582 915 699 915 q 418 885 494 915 q 284 798 342 854 q 194 662 226 741 q 161 486 161 583 q 218 260 161 357 q 370 110 274 164 q 582 57 465 57 m 665 1107 l 797 1324 l 881 1324 l 740 1107 l 665 1107 m 422 1107 l 554 1324 l 638 1324 l 497 1107 l 422 1107 z "},"Ȏ":{"ha":1164,"x_min":78,"x_max":1086,"o":"m 582 -21 q 383 18 475 -21 q 223 125 291 56 q 116 286 154 194 q 78 486 78 378 q 116 687 78 594 q 223 848 154 779 q 383 955 291 917 q 582 993 475 993 q 780 954 688 993 q 940 846 872 915 q 1048 684 1009 776 q 1086 486 1086 592 q 1048 286 1086 378 q 940 125 1009 194 q 780 18 872 56 q 582 -21 688 -21 m 582 57 q 746 88 669 57 q 880 175 822 118 q 970 310 938 231 q 1003 486 1003 390 q 946 712 1003 615 q 794 862 890 808 q 582 915 699 915 q 418 885 494 915 q 284 798 342 854 q 194 662 226 741 q 161 486 161 583 q 218 260 161 357 q 370 110 274 164 q 582 57 465 57 m 347 1107 q 375 1224 344 1174 q 460 1302 406 1274 q 582 1331 514 1331 q 703 1301 650 1331 q 786 1222 756 1272 q 814 1107 816 1171 l 742 1107 q 701 1222 746 1178 q 582 1265 657 1265 q 461 1222 506 1265 q 418 1107 415 1178 l 347 1107 z "},"Ō":{"ha":1164,"x_min":78,"x_max":1086,"o":"m 582 -21 q 383 18 475 -21 q 223 125 291 56 q 116 286 154 194 q 78 486 78 378 q 116 687 78 594 q 223 848 154 779 q 383 955 291 917 q 582 993 475 993 q 780 954 688 993 q 940 846 872 915 q 1048 684 1009 776 q 1086 486 1086 592 q 1048 286 1086 378 q 940 125 1009 194 q 780 18 872 56 q 582 -21 688 -21 m 582 57 q 746 88 669 57 q 880 175 822 118 q 970 310 938 231 q 1003 486 1003 390 q 946 712 1003 615 q 794 862 890 808 q 582 915 699 915 q 418 885 494 915 q 284 798 342 854 q 194 662 226 741 q 161 486 161 583 q 218 260 161 357 q 370 110 274 164 q 582 57 465 57 m 375 1146 l 375 1215 l 789 1215 l 789 1146 l 375 1146 z "},"Ǫ":{"ha":1164,"x_min":78,"x_max":1086,"o":"m 618 -312 q 514 -273 549 -312 q 479 -177 478 -233 q 512 -73 481 -118 q 593 2 543 -28 q 701 47 643 33 l 729 0 q 610 -57 656 -19 q 563 -159 565 -94 q 576 -214 562 -191 q 629 -236 591 -236 q 656 -234 643 -236 q 680 -227 668 -231 q 701 -217 692 -223 l 731 -284 q 676 -305 705 -297 q 618 -312 647 -312 m 582 -21 q 383 18 475 -21 q 223 125 291 56 q 116 286 154 194 q 78 486 78 378 q 116 687 78 594 q 223 848 154 779 q 383 955 291 917 q 582 993 475 993 q 780 954 688 993 q 940 846 872 915 q 1048 684 1009 776 q 1086 486 1086 592 q 1048 286 1086 378 q 940 125 1009 194 q 780 18 872 56 q 582 -21 688 -21 m 582 57 q 746 88 669 57 q 880 175 822 118 q 970 310 938 231 q 1003 486 1003 390 q 946 712 1003 615 q 794 862 890 808 q 582 915 699 915 q 418 885 494 915 q 284 798 342 854 q 194 662 226 741 q 161 486 161 583 q 218 260 161 357 q 370 110 274 164 q 582 57 465 57 z "},"Ø":{"ha":1164,"x_min":78,"x_max":1086,"o":"m 197 -35 l 142 15 l 228 119 q 118 282 158 188 q 78 486 78 376 q 116 687 78 594 q 223 848 154 779 q 383 955 291 917 q 582 993 475 993 q 740 968 665 993 q 878 900 815 944 l 967 1007 l 1022 957 l 935 851 q 1046 689 1006 783 q 1086 486 1086 594 q 1048 286 1086 378 q 940 125 1009 194 q 780 18 872 56 q 582 -21 688 -21 q 423 3 498 -21 q 286 71 348 27 l 197 -35 m 279 181 l 828 840 q 714 896 777 877 q 582 915 651 915 q 418 885 494 915 q 284 798 342 854 q 194 662 226 741 q 161 486 161 583 q 193 314 161 392 q 279 181 224 236 m 582 57 q 746 88 669 57 q 880 175 822 118 q 970 310 938 231 q 1003 486 1003 390 q 972 659 1003 581 q 885 792 940 737 l 336 132 q 450 76 388 96 q 582 57 513 57 z "},"Ǿ":{"ha":1164,"x_min":78,"x_max":1086,"o":"m 197 -35 l 142 15 l 228 119 q 118 282 158 188 q 78 486 78 376 q 116 687 78 594 q 223 848 154 779 q 383 955 291 917 q 582 993 475 993 q 740 968 665 993 q 878 900 815 944 l 967 1007 l 1022 957 l 935 851 q 1046 689 1006 783 q 1086 486 1086 594 q 1048 286 1086 378 q 940 125 1009 194 q 780 18 872 56 q 582 -21 688 -21 q 423 3 498 -21 q 286 71 348 27 l 197 -35 m 279 181 l 828 840 q 714 896 777 877 q 582 915 651 915 q 418 885 494 915 q 284 798 342 854 q 194 662 226 741 q 161 486 161 583 q 193 314 161 392 q 279 181 224 236 m 582 57 q 746 88 669 57 q 880 175 822 118 q 970 310 938 231 q 1003 486 1003 390 q 972 659 1003 581 q 885 792 940 737 l 336 132 q 450 76 388 96 q 582 57 513 57 m 538 1107 l 669 1324 l 753 1324 l 613 1107 l 538 1107 z "},"Õ":{"ha":1164,"x_min":78,"x_max":1086,"o":"m 582 -21 q 383 18 475 -21 q 223 125 291 56 q 116 286 154 194 q 78 486 78 378 q 116 687 78 594 q 223 848 154 779 q 383 955 291 917 q 582 993 475 993 q 780 954 688 993 q 940 846 872 915 q 1048 684 1009 776 q 1086 486 1086 592 q 1048 286 1086 378 q 940 125 1009 194 q 780 18 872 56 q 582 -21 688 -21 m 582 57 q 746 88 669 57 q 880 175 822 118 q 970 310 938 231 q 1003 486 1003 390 q 946 712 1003 615 q 794 862 890 808 q 582 915 699 915 q 418 885 494 915 q 284 798 342 854 q 194 662 226 741 q 161 486 161 583 q 218 260 161 357 q 370 110 274 164 q 582 57 465 57 m 389 1135 l 336 1165 q 394 1251 358 1219 q 478 1283 430 1283 q 553 1266 517 1283 q 622 1232 589 1249 q 686 1215 655 1215 q 739 1237 717 1215 q 775 1296 760 1258 l 828 1264 q 768 1179 805 1210 q 685 1149 731 1149 q 610 1165 646 1149 q 542 1199 575 1182 q 478 1215 509 1215 q 427 1195 449 1215 q 389 1135 405 1176 z "},"Ȭ":{"ha":1164,"x_min":78,"x_max":1086,"o":"m 582 -21 q 383 18 475 -21 q 223 125 291 56 q 116 286 154 194 q 78 486 78 378 q 116 687 78 594 q 223 848 154 779 q 383 955 291 917 q 582 993 475 993 q 780 954 688 993 q 940 846 872 915 q 1048 684 1009 776 q 1086 486 1086 592 q 1048 286 1086 378 q 940 125 1009 194 q 780 18 872 56 q 582 -21 688 -21 m 582 57 q 746 88 669 57 q 880 175 822 118 q 970 310 938 231 q 1003 486 1003 390 q 946 712 1003 615 q 794 862 890 808 q 582 915 699 915 q 418 885 494 915 q 284 798 342 854 q 194 662 226 741 q 161 486 161 583 q 218 260 161 357 q 370 110 274 164 q 582 57 465 57 m 389 1135 l 336 1165 q 394 1251 358 1219 q 478 1283 430 1283 q 553 1266 517 1283 q 622 1232 589 1249 q 686 1215 655 1215 q 739 1237 717 1215 q 775 1296 760 1258 l 828 1264 q 768 1179 805 1210 q 685 1149 731 1149 q 610 1165 646 1149 q 542 1199 575 1182 q 478 1215 509 1215 q 427 1195 449 1215 q 389 1135 405 1176 m 375 1396 l 375 1465 l 789 1465 l 789 1396 l 375 1396 z "},"Œ":{"ha":1683,"x_min":78,"x_max":1579,"o":"m 578 -21 q 381 18 472 -21 q 222 125 290 56 q 116 286 153 194 q 78 486 78 378 q 116 687 78 594 q 222 848 153 779 q 381 955 290 917 q 578 993 472 993 q 756 961 673 993 q 906 872 840 929 q 1014 738 972 815 l 1003 722 l 1003 972 l 1575 972 l 1575 897 l 1083 897 l 1083 553 l 1519 553 l 1519 478 l 1083 478 l 1083 75 l 1579 75 l 1579 0 l 1003 0 l 1003 249 l 1014 233 q 836 49 951 118 q 578 -21 721 -21 m 582 57 q 746 88 669 57 q 880 175 822 118 q 970 310 938 231 q 1003 486 1003 390 q 946 712 1003 615 q 794 862 890 808 q 582 915 699 915 q 418 885 494 915 q 284 798 342 854 q 194 662 226 741 q 161 486 161 583 q 218 260 161 357 q 370 110 274 164 q 582 57 465 57 z "},"P":{"ha":847,"x_min":139,"x_max":785,"o":"m 139 0 l 139 972 l 453 972 q 626 939 551 972 q 743 843 701 906 q 785 694 785 781 q 746 544 785 605 q 633 451 707 483 q 451 419 558 419 l 219 419 l 219 0 l 139 0 m 219 494 l 461 494 q 641 545 577 494 q 704 692 704 595 q 640 841 704 785 q 463 897 575 897 l 219 897 l 219 494 z "},"Þ":{"ha":854,"x_min":139,"x_max":799,"o":"m 139 0 l 139 972 l 219 972 l 219 776 l 467 776 q 640 743 565 776 q 757 648 715 710 q 799 499 799 585 q 760 348 799 409 q 647 255 721 287 q 465 224 572 224 l 219 224 l 219 0 l 139 0 m 219 299 l 475 299 q 655 349 591 299 q 718 496 718 399 q 653 645 718 590 q 476 701 589 701 l 219 701 l 219 299 z "},"Q":{"ha":1164,"x_min":78,"x_max":1086,"o":"m 985 -35 l 889 79 q 748 6 826 33 q 582 -21 669 -21 q 383 18 475 -21 q 223 125 291 56 q 116 286 154 194 q 78 486 78 378 q 116 687 78 594 q 223 848 154 779 q 383 955 291 917 q 582 993 475 993 q 780 954 688 993 q 940 846 872 915 q 1048 684 1009 776 q 1086 486 1086 592 q 1047 286 1086 379 q 940 125 1008 194 l 1036 13 l 985 -35 m 582 57 q 720 78 655 57 q 838 139 785 99 l 668 333 l 719 381 l 890 185 q 973 317 942 241 q 1003 486 1003 394 q 946 712 1003 615 q 794 862 890 808 q 582 915 699 915 q 418 885 494 915 q 284 798 342 854 q 194 662 226 741 q 161 486 161 583 q 218 260 161 357 q 370 110 274 164 q 582 57 465 57 z "},"R":{"ha":892,"x_min":139,"x_max":822,"o":"m 139 0 l 139 972 l 479 972 q 640 938 572 972 q 744 840 708 903 q 781 693 781 777 q 746 563 781 619 q 648 471 712 506 q 497 428 585 436 l 822 0 l 719 0 l 399 426 l 219 426 l 219 0 l 139 0 m 219 501 l 456 501 q 636 553 572 501 q 700 693 700 605 q 644 841 700 785 q 472 897 589 897 l 219 897 l 219 501 z "},"Ŕ":{"ha":892,"x_min":139,"x_max":822,"o":"m 139 0 l 139 972 l 479 972 q 640 938 572 972 q 744 840 708 903 q 781 693 781 777 q 746 563 781 619 q 648 471 712 506 q 497 428 585 436 l 822 0 l 719 0 l 399 426 l 219 426 l 219 0 l 139 0 m 219 501 l 456 501 q 636 553 572 501 q 700 693 700 605 q 644 841 700 785 q 472 897 589 897 l 219 897 l 219 501 m 385 1107 l 517 1324 l 600 1324 l 460 1107 l 385 1107 z "},"Ř":{"ha":892,"x_min":139,"x_max":822,"o":"m 139 0 l 139 972 l 479 972 q 640 938 572 972 q 744 840 708 903 q 781 693 781 777 q 746 563 781 619 q 648 471 712 506 q 497 428 585 436 l 822 0 l 719 0 l 399 426 l 219 426 l 219 0 l 139 0 m 219 501 l 456 501 q 636 553 572 501 q 700 693 700 605 q 644 841 700 785 q 472 897 589 897 l 219 897 l 219 501 m 381 1107 l 204 1324 l 288 1324 l 425 1160 l 568 1324 l 654 1324 l 467 1107 l 381 1107 z "},"Ŗ":{"ha":892,"x_min":139,"x_max":822,"o":"m 139 0 l 139 972 l 479 972 q 640 938 572 972 q 744 840 708 903 q 781 693 781 777 q 746 563 781 619 q 648 471 712 506 q 497 428 585 436 l 822 0 l 719 0 l 399 426 l 219 426 l 219 0 l 139 0 m 219 501 l 456 501 q 636 553 572 501 q 700 693 700 605 q 644 841 700 785 q 472 897 589 897 l 219 897 l 219 501 m 409 -453 l 372 -410 q 441 -366 411 -391 q 478 -317 472 -340 q 442 -311 458 -318 q 415 -290 425 -303 q 406 -258 406 -276 q 425 -215 406 -232 q 474 -197 444 -197 q 528 -218 508 -197 q 548 -278 548 -240 q 532 -339 548 -308 q 484 -400 515 -370 q 409 -453 453 -429 z "},"Ȑ":{"ha":892,"x_min":131,"x_max":822,"o":"m 139 0 l 139 972 l 479 972 q 640 938 572 972 q 744 840 708 903 q 781 693 781 777 q 746 563 781 619 q 648 471 712 506 q 497 428 585 436 l 822 0 l 719 0 l 399 426 l 219 426 l 219 0 l 139 0 m 219 501 l 456 501 q 636 553 572 501 q 700 693 700 605 q 644 841 700 785 q 472 897 589 897 l 219 897 l 219 501 m 589 1107 l 514 1107 l 374 1324 l 458 1324 l 589 1107 m 346 1107 l 271 1107 l 131 1324 l 214 1324 l 346 1107 z "},"Ȓ":{"ha":892,"x_min":139,"x_max":822,"o":"m 139 0 l 139 972 l 479 972 q 640 938 572 972 q 744 840 708 903 q 781 693 781 777 q 746 563 781 619 q 648 471 712 506 q 497 428 585 436 l 822 0 l 719 0 l 399 426 l 219 426 l 219 0 l 139 0 m 219 501 l 456 501 q 636 553 572 501 q 700 693 700 605 q 644 841 700 785 q 472 897 589 897 l 219 897 l 219 501 m 194 1107 q 222 1224 192 1174 q 307 1302 253 1274 q 429 1331 361 1331 q 550 1301 497 1331 q 633 1222 603 1272 q 661 1107 663 1171 l 589 1107 q 549 1222 593 1178 q 429 1265 504 1265 q 308 1222 353 1265 q 265 1107 263 1178 l 194 1107 z "},"S":{"ha":857,"x_min":106,"x_max":771,"o":"m 432 -21 q 253 4 340 -21 q 106 75 165 28 l 150 142 q 233 94 188 113 q 329 64 278 74 q 433 54 379 54 q 624 102 552 54 q 696 244 696 151 q 649 358 696 311 q 475 442 602 404 l 358 476 q 173 573 233 514 q 114 724 114 631 q 138 836 114 787 q 207 921 163 886 q 314 975 252 956 q 449 993 375 993 q 608 968 535 993 q 733 902 682 943 l 688 839 q 613 883 654 865 q 526 910 572 901 q 433 919 481 919 q 306 898 361 919 q 220 833 251 876 q 189 729 189 791 q 208 653 189 686 q 275 593 227 620 q 407 542 322 567 l 533 504 q 713 408 654 469 q 771 250 771 348 q 732 108 771 169 q 618 13 694 47 q 432 -21 542 -21 z "},"Ś":{"ha":857,"x_min":106,"x_max":771,"o":"m 432 -21 q 253 4 340 -21 q 106 75 165 28 l 150 142 q 233 94 188 113 q 329 64 278 74 q 433 54 379 54 q 624 102 552 54 q 696 244 696 151 q 649 358 696 311 q 475 442 602 404 l 358 476 q 173 573 233 514 q 114 724 114 631 q 138 836 114 787 q 207 921 163 886 q 314 975 252 956 q 449 993 375 993 q 608 968 535 993 q 733 902 682 943 l 688 839 q 613 883 654 865 q 526 910 572 901 q 433 919 481 919 q 306 898 361 919 q 220 833 251 876 q 189 729 189 791 q 208 653 189 686 q 275 593 227 620 q 407 542 322 567 l 533 504 q 713 408 654 469 q 771 250 771 348 q 732 108 771 169 q 618 13 694 47 q 432 -21 542 -21 m 397 1107 l 529 1324 l 613 1324 l 472 1107 l 397 1107 z "},"Š":{"ha":857,"x_min":106,"x_max":771,"o":"m 432 -21 q 253 4 340 -21 q 106 75 165 28 l 150 142 q 233 94 188 113 q 329 64 278 74 q 433 54 379 54 q 624 102 552 54 q 696 244 696 151 q 649 358 696 311 q 475 442 602 404 l 358 476 q 173 573 233 514 q 114 724 114 631 q 138 836 114 787 q 207 921 163 886 q 314 975 252 956 q 449 993 375 993 q 608 968 535 993 q 733 902 682 943 l 688 839 q 613 883 654 865 q 526 910 572 901 q 433 919 481 919 q 306 898 361 919 q 220 833 251 876 q 189 729 189 791 q 208 653 189 686 q 275 593 227 620 q 407 542 322 567 l 533 504 q 713 408 654 469 q 771 250 771 348 q 732 108 771 169 q 618 13 694 47 q 432 -21 542 -21 m 393 1107 l 217 1324 l 300 1324 l 438 1160 l 581 1324 l 667 1324 l 479 1107 l 393 1107 z "},"Ş":{"ha":857,"x_min":106,"x_max":771,"o":"m 432 -21 q 253 4 340 -21 q 106 75 165 28 l 150 142 q 233 94 188 113 q 329 64 278 74 q 433 54 379 54 q 624 102 552 54 q 696 244 696 151 q 649 358 696 311 q 475 442 602 404 l 358 476 q 173 573 233 514 q 114 724 114 631 q 138 836 114 787 q 207 921 163 886 q 314 975 252 956 q 449 993 375 993 q 608 968 535 993 q 733 902 682 943 l 688 839 q 613 883 654 865 q 526 910 572 901 q 433 919 481 919 q 306 898 361 919 q 220 833 251 876 q 189 729 189 791 q 208 653 189 686 q 275 593 227 620 q 407 542 322 567 l 533 504 q 713 408 654 469 q 771 250 771 348 q 732 108 771 169 q 618 13 694 47 q 432 -21 542 -21 m 421 -312 q 344 -302 379 -312 q 279 -274 308 -292 l 306 -214 q 351 -239 318 -228 q 418 -250 385 -250 q 479 -236 449 -250 q 508 -187 508 -222 q 470 -137 508 -151 q 388 -129 433 -123 l 364 -87 l 401 28 l 458 28 l 431 -65 q 540 -99 497 -69 q 583 -185 583 -129 q 556 -260 583 -232 q 491 -300 529 -288 q 421 -312 453 -312 z "},"Ŝ":{"ha":857,"x_min":106,"x_max":771,"o":"m 432 -21 q 253 4 340 -21 q 106 75 165 28 l 150 142 q 233 94 188 113 q 329 64 278 74 q 433 54 379 54 q 624 102 552 54 q 696 244 696 151 q 649 358 696 311 q 475 442 602 404 l 358 476 q 173 573 233 514 q 114 724 114 631 q 138 836 114 787 q 207 921 163 886 q 314 975 252 956 q 449 993 375 993 q 608 968 535 993 q 733 902 682 943 l 688 839 q 613 883 654 865 q 526 910 572 901 q 433 919 481 919 q 306 898 361 919 q 220 833 251 876 q 189 729 189 791 q 208 653 189 686 q 275 593 227 620 q 407 542 322 567 l 533 504 q 713 408 654 469 q 771 250 771 348 q 732 108 771 169 q 618 13 694 47 q 432 -21 542 -21 m 217 1107 l 404 1324 l 492 1324 l 667 1107 l 583 1107 l 446 1271 l 303 1107 l 217 1107 z "},"Ș":{"ha":857,"x_min":106,"x_max":771,"o":"m 432 -21 q 253 4 340 -21 q 106 75 165 28 l 150 142 q 233 94 188 113 q 329 64 278 74 q 433 54 379 54 q 624 102 552 54 q 696 244 696 151 q 649 358 696 311 q 475 442 602 404 l 358 476 q 173 573 233 514 q 114 724 114 631 q 138 836 114 787 q 207 921 163 886 q 314 975 252 956 q 449 993 375 993 q 608 968 535 993 q 733 902 682 943 l 688 839 q 613 883 654 865 q 526 910 572 901 q 433 919 481 919 q 306 898 361 919 q 220 833 251 876 q 189 729 189 791 q 208 653 189 686 q 275 593 227 620 q 407 542 322 567 l 533 504 q 713 408 654 469 q 771 250 771 348 q 732 108 771 169 q 618 13 694 47 q 432 -21 542 -21 m 366 -453 l 328 -410 q 398 -366 368 -391 q 435 -317 428 -340 q 399 -311 415 -318 q 372 -290 382 -303 q 363 -258 363 -276 q 382 -215 363 -232 q 431 -197 401 -197 q 485 -218 465 -197 q 505 -278 505 -240 q 489 -339 505 -308 q 441 -400 472 -370 q 366 -453 410 -429 z "},"ẞ":{"ha":964,"x_min":138,"x_max":915,"o":"m 619 -22 q 542 -16 590 -22 q 433 10 494 -10 l 461 78 q 537 59 494 67 q 628 52 580 51 q 734 69 689 53 q 803 118 778 86 q 828 196 828 150 q 805 266 828 238 q 745 317 782 295 q 668 360 709 339 q 591 407 627 381 q 531 469 554 433 q 508 558 508 506 q 530 653 508 609 q 597 748 552 697 q 713 868 642 799 q 659 890 688 879 q 595 909 631 901 q 513 917 560 917 q 294 839 371 917 q 218 631 218 762 l 218 0 l 138 0 l 138 631 q 184 817 138 735 q 316 946 231 899 q 513 993 400 993 q 678 969 608 993 q 801 915 749 944 l 801 849 q 677 724 721 774 q 616 637 633 674 q 599 565 599 600 q 622 498 599 526 q 681 445 644 469 q 757 399 717 422 q 833 350 797 376 q 892 288 869 323 q 915 206 915 253 q 878 85 915 135 q 775 6 842 34 q 619 -22 708 -22 z "},"T":{"ha":753,"x_min":49,"x_max":704,"o":"m 336 0 l 336 897 l 49 897 l 49 972 l 704 972 l 704 897 l 417 897 l 417 0 l 336 0 z "},"Ŧ":{"ha":781,"x_min":63,"x_max":718,"o":"m 350 0 l 350 897 l 63 897 l 63 972 l 718 972 l 718 897 l 431 897 l 431 0 l 350 0 m 104 471 l 104 532 l 676 532 l 676 471 l 104 471 z "},"Ť":{"ha":753,"x_min":49,"x_max":704,"o":"m 336 0 l 336 897 l 49 897 l 49 972 l 704 972 l 704 897 l 417 897 l 417 0 l 336 0 m 328 1107 l 151 1324 l 235 1324 l 372 1160 l 515 1324 l 601 1324 l 414 1107 l 328 1107 z "},"Ţ":{"ha":753,"x_min":49,"x_max":704,"o":"m 336 0 l 336 897 l 49 897 l 49 972 l 704 972 l 704 897 l 417 897 l 417 0 l 336 0 m 365 -312 q 288 -302 324 -312 q 224 -274 253 -292 l 250 -214 q 296 -239 263 -228 q 363 -250 329 -250 q 423 -236 394 -250 q 453 -187 453 -222 q 415 -137 453 -151 q 332 -129 377 -123 l 308 -87 l 346 28 l 403 28 l 375 -65 q 484 -99 441 -69 q 528 -185 528 -129 q 501 -260 528 -232 q 436 -300 474 -288 q 365 -312 398 -312 z "},"Ț":{"ha":753,"x_min":49,"x_max":704,"o":"m 336 0 l 336 897 l 49 897 l 49 972 l 704 972 l 704 897 l 417 897 l 417 0 l 336 0 m 310 -453 l 273 -410 q 343 -366 313 -391 q 380 -317 373 -340 q 343 -311 360 -318 q 317 -290 326 -303 q 307 -258 307 -276 q 326 -215 307 -232 q 376 -197 346 -197 q 429 -218 409 -197 q 449 -278 449 -240 q 433 -339 449 -308 q 385 -400 417 -370 q 310 -453 354 -429 z "},"U":{"ha":1003,"x_min":132,"x_max":871,"o":"m 501 -21 q 296 31 378 -21 q 173 169 214 83 q 132 358 132 255 l 132 972 l 213 972 l 213 369 q 291 135 213 213 q 501 57 370 57 q 711 135 633 57 q 790 369 790 213 l 790 972 l 871 972 l 871 358 q 830 169 871 255 q 707 31 789 83 q 501 -21 625 -21 z "},"Ú":{"ha":1003,"x_min":132,"x_max":871,"o":"m 501 -21 q 296 31 378 -21 q 173 169 214 83 q 132 358 132 255 l 132 972 l 213 972 l 213 369 q 291 135 213 213 q 501 57 370 57 q 711 135 633 57 q 790 369 790 213 l 790 972 l 871 972 l 871 358 q 830 169 871 255 q 707 31 789 83 q 501 -21 625 -21 m 457 1107 l 589 1324 l 672 1324 l 532 1107 l 457 1107 z "},"Ŭ":{"ha":1003,"x_min":132,"x_max":871,"o":"m 501 -21 q 296 31 378 -21 q 173 169 214 83 q 132 358 132 255 l 132 972 l 213 972 l 213 369 q 291 135 213 213 q 501 57 370 57 q 711 135 633 57 q 790 369 790 213 l 790 972 l 871 972 l 871 358 q 830 169 871 255 q 707 31 789 83 q 501 -21 625 -21 m 501 1100 q 377 1129 431 1100 q 294 1208 324 1158 q 267 1324 264 1259 l 338 1324 q 380 1209 335 1253 q 501 1165 426 1165 q 622 1209 578 1165 q 661 1324 665 1253 l 733 1324 q 705 1208 735 1259 q 622 1129 675 1158 q 501 1100 569 1100 z "},"Û":{"ha":1003,"x_min":132,"x_max":871,"o":"m 501 -21 q 296 31 378 -21 q 173 169 214 83 q 132 358 132 255 l 132 972 l 213 972 l 213 369 q 291 135 213 213 q 501 57 370 57 q 711 135 633 57 q 790 369 790 213 l 790 972 l 871 972 l 871 358 q 830 169 871 255 q 707 31 789 83 q 501 -21 625 -21 m 276 1107 l 464 1324 l 551 1324 l 726 1107 l 643 1107 l 506 1271 l 363 1107 l 276 1107 z "},"Ȕ":{"ha":1003,"x_min":132,"x_max":871,"o":"m 501 -21 q 296 31 378 -21 q 173 169 214 83 q 132 358 132 255 l 132 972 l 213 972 l 213 369 q 291 135 213 213 q 501 57 370 57 q 711 135 633 57 q 790 369 790 213 l 790 972 l 871 972 l 871 358 q 830 169 871 255 q 707 31 789 83 q 501 -21 625 -21 m 661 1107 l 586 1107 l 446 1324 l 531 1324 l 661 1107 m 418 1107 l 343 1107 l 203 1324 l 286 1324 l 418 1107 z "},"Ü":{"ha":1003,"x_min":132,"x_max":871,"o":"m 501 -21 q 296 31 378 -21 q 173 169 214 83 q 132 358 132 255 l 132 972 l 213 972 l 213 369 q 291 135 213 213 q 501 57 370 57 q 711 135 633 57 q 790 369 790 213 l 790 972 l 871 972 l 871 358 q 830 169 871 255 q 707 31 789 83 q 501 -21 625 -21 m 372 1101 q 325 1120 344 1101 q 306 1165 306 1140 q 315 1197 306 1183 q 339 1219 324 1211 q 372 1228 354 1228 q 419 1210 399 1228 q 439 1165 439 1192 q 430 1133 439 1148 q 406 1110 422 1119 q 372 1101 391 1101 m 632 1101 q 585 1120 604 1101 q 565 1165 565 1140 q 574 1196 565 1182 q 598 1219 583 1210 q 632 1228 613 1228 q 679 1210 659 1228 q 699 1165 699 1192 q 690 1133 699 1148 q 665 1110 681 1119 q 632 1101 650 1101 z "},"Ụ":{"ha":1003,"x_min":132,"x_max":871,"o":"m 501 -21 q 296 31 378 -21 q 173 169 214 83 q 132 358 132 255 l 132 972 l 213 972 l 213 369 q 291 135 213 213 q 501 57 370 57 q 711 135 633 57 q 790 369 790 213 l 790 972 l 871 972 l 871 358 q 830 169 871 255 q 707 31 789 83 q 501 -21 625 -21 m 501 -328 q 455 -309 474 -328 q 436 -262 436 -290 q 455 -216 436 -235 q 501 -197 474 -197 q 548 -216 528 -197 q 567 -262 567 -235 q 548 -309 567 -290 q 501 -328 528 -328 z "},"Ù":{"ha":1003,"x_min":132,"x_max":871,"o":"m 501 -21 q 296 31 378 -21 q 173 169 214 83 q 132 358 132 255 l 132 972 l 213 972 l 213 369 q 291 135 213 213 q 501 57 370 57 q 711 135 633 57 q 790 369 790 213 l 790 972 l 871 972 l 871 358 q 830 169 871 255 q 707 31 789 83 q 501 -21 625 -21 m 481 1107 l 340 1324 l 428 1324 l 558 1107 l 481 1107 z "},"Ủ":{"ha":1003,"x_min":132,"x_max":871,"o":"m 501 -21 q 296 31 378 -21 q 173 169 214 83 q 132 358 132 255 l 132 972 l 213 972 l 213 369 q 291 135 213 213 q 501 57 370 57 q 711 135 633 57 q 790 369 790 213 l 790 972 l 871 972 l 871 358 q 830 169 871 255 q 707 31 789 83 q 501 -21 625 -21 m 458 1107 q 450 1180 435 1151 q 524 1229 465 1210 q 592 1258 576 1247 q 608 1290 608 1269 q 578 1334 608 1317 q 500 1350 547 1350 q 427 1343 464 1350 q 365 1324 390 1335 l 340 1375 q 417 1399 376 1391 q 503 1407 459 1407 q 591 1393 552 1407 q 652 1356 630 1380 q 675 1303 675 1333 q 653 1244 675 1265 q 572 1199 632 1223 q 515 1162 526 1180 q 524 1107 505 1144 l 458 1107 z "},"Ư":{"ha":1072,"x_min":132,"x_max":1078,"o":"m 501 -21 q 296 31 378 -21 q 173 169 214 83 q 132 358 132 255 l 132 972 l 213 972 l 213 369 q 291 135 213 213 q 501 57 370 57 q 711 135 633 57 q 790 369 790 213 l 790 972 l 871 972 l 871 358 q 830 169 871 255 q 707 31 789 83 q 501 -21 625 -21 m 940 825 q 868 840 907 825 q 796 872 829 855 l 796 924 q 865 895 828 908 q 926 882 901 882 q 985 903 967 882 q 1003 958 1003 925 q 994 1005 1003 976 q 958 1069 985 1034 l 1024 1097 q 1064 1028 1051 1064 q 1078 960 1078 992 q 1062 893 1078 924 q 1016 844 1047 863 q 940 825 985 825 z "},"Ứ":{"ha":1072,"x_min":132,"x_max":1078,"o":"m 501 -21 q 296 31 378 -21 q 173 169 214 83 q 132 358 132 255 l 132 972 l 213 972 l 213 369 q 291 135 213 213 q 501 57 370 57 q 711 135 633 57 q 790 369 790 213 l 790 972 l 871 972 l 871 358 q 830 169 871 255 q 707 31 789 83 q 501 -21 625 -21 m 940 825 q 868 840 907 825 q 796 872 829 855 l 796 924 q 865 895 828 908 q 926 882 901 882 q 985 903 967 882 q 1003 958 1003 925 q 994 1005 1003 976 q 958 1069 985 1034 l 1024 1097 q 1064 1028 1051 1064 q 1078 960 1078 992 q 1062 893 1078 924 q 1016 844 1047 863 q 940 825 985 825 m 457 1107 l 589 1324 l 672 1324 l 532 1107 l 457 1107 z "},"Ự":{"ha":1072,"x_min":132,"x_max":1078,"o":"m 501 -21 q 296 31 378 -21 q 173 169 214 83 q 132 358 132 255 l 132 972 l 213 972 l 213 369 q 291 135 213 213 q 501 57 370 57 q 711 135 633 57 q 790 369 790 213 l 790 972 l 871 972 l 871 358 q 830 169 871 255 q 707 31 789 83 q 501 -21 625 -21 m 940 825 q 868 840 907 825 q 796 872 829 855 l 796 924 q 865 895 828 908 q 926 882 901 882 q 985 903 967 882 q 1003 958 1003 925 q 994 1005 1003 976 q 958 1069 985 1034 l 1024 1097 q 1064 1028 1051 1064 q 1078 960 1078 992 q 1062 893 1078 924 q 1016 844 1047 863 q 940 825 985 825 m 501 -328 q 455 -309 474 -328 q 436 -262 436 -290 q 455 -216 436 -235 q 501 -197 474 -197 q 548 -216 528 -197 q 567 -262 567 -235 q 548 -309 567 -290 q 501 -328 528 -328 z "},"Ừ":{"ha":1072,"x_min":132,"x_max":1078,"o":"m 501 -21 q 296 31 378 -21 q 173 169 214 83 q 132 358 132 255 l 132 972 l 213 972 l 213 369 q 291 135 213 213 q 501 57 370 57 q 711 135 633 57 q 790 369 790 213 l 790 972 l 871 972 l 871 358 q 830 169 871 255 q 707 31 789 83 q 501 -21 625 -21 m 940 825 q 868 840 907 825 q 796 872 829 855 l 796 924 q 865 895 828 908 q 926 882 901 882 q 985 903 967 882 q 1003 958 1003 925 q 994 1005 1003 976 q 958 1069 985 1034 l 1024 1097 q 1064 1028 1051 1064 q 1078 960 1078 992 q 1062 893 1078 924 q 1016 844 1047 863 q 940 825 985 825 m 481 1107 l 340 1324 l 428 1324 l 558 1107 l 481 1107 z "},"Ử":{"ha":1072,"x_min":132,"x_max":1078,"o":"m 501 -21 q 296 31 378 -21 q 173 169 214 83 q 132 358 132 255 l 132 972 l 213 972 l 213 369 q 291 135 213 213 q 501 57 370 57 q 711 135 633 57 q 790 369 790 213 l 790 972 l 871 972 l 871 358 q 830 169 871 255 q 707 31 789 83 q 501 -21 625 -21 m 940 825 q 868 840 907 825 q 796 872 829 855 l 796 924 q 865 895 828 908 q 926 882 901 882 q 985 903 967 882 q 1003 958 1003 925 q 994 1005 1003 976 q 958 1069 985 1034 l 1024 1097 q 1064 1028 1051 1064 q 1078 960 1078 992 q 1062 893 1078 924 q 1016 844 1047 863 q 940 825 985 825 m 458 1107 q 450 1180 435 1151 q 524 1229 465 1210 q 592 1258 576 1247 q 608 1290 608 1269 q 578 1334 608 1317 q 500 1350 547 1350 q 427 1343 464 1350 q 365 1324 390 1335 l 340 1375 q 417 1399 376 1391 q 503 1407 459 1407 q 591 1393 552 1407 q 652 1356 630 1380 q 675 1303 675 1333 q 653 1244 675 1265 q 572 1199 632 1223 q 515 1162 526 1180 q 524 1107 505 1144 l 458 1107 z "},"Ữ":{"ha":1072,"x_min":132,"x_max":1078,"o":"m 501 -21 q 296 31 378 -21 q 173 169 214 83 q 132 358 132 255 l 132 972 l 213 972 l 213 369 q 291 135 213 213 q 501 57 370 57 q 711 135 633 57 q 790 369 790 213 l 790 972 l 871 972 l 871 358 q 830 169 871 255 q 707 31 789 83 q 501 -21 625 -21 m 940 825 q 868 840 907 825 q 796 872 829 855 l 796 924 q 865 895 828 908 q 926 882 901 882 q 985 903 967 882 q 1003 958 1003 925 q 994 1005 1003 976 q 958 1069 985 1034 l 1024 1097 q 1064 1028 1051 1064 q 1078 960 1078 992 q 1062 893 1078 924 q 1016 844 1047 863 q 940 825 985 825 m 308 1135 l 256 1165 q 314 1251 278 1219 q 397 1283 349 1283 q 473 1266 437 1283 q 541 1232 508 1249 q 606 1215 574 1215 q 658 1237 636 1215 q 694 1296 680 1258 l 747 1264 q 687 1179 724 1210 q 604 1149 650 1149 q 530 1165 565 1149 q 461 1199 494 1182 q 397 1215 428 1215 q 346 1195 368 1215 q 308 1135 324 1176 z "},"Ű":{"ha":1003,"x_min":132,"x_max":871,"o":"m 501 -21 q 296 31 378 -21 q 173 169 214 83 q 132 358 132 255 l 132 972 l 213 972 l 213 369 q 291 135 213 213 q 501 57 370 57 q 711 135 633 57 q 790 369 790 213 l 790 972 l 871 972 l 871 358 q 830 169 871 255 q 707 31 789 83 q 501 -21 625 -21 m 585 1107 l 717 1324 l 800 1324 l 660 1107 l 585 1107 m 342 1107 l 474 1324 l 557 1324 l 417 1107 l 342 1107 z "},"Ȗ":{"ha":1003,"x_min":132,"x_max":871,"o":"m 501 -21 q 296 31 378 -21 q 173 169 214 83 q 132 358 132 255 l 132 972 l 213 972 l 213 369 q 291 135 213 213 q 501 57 370 57 q 711 135 633 57 q 790 369 790 213 l 790 972 l 871 972 l 871 358 q 830 169 871 255 q 707 31 789 83 q 501 -21 625 -21 m 267 1107 q 294 1224 264 1174 q 379 1302 325 1274 q 501 1331 433 1331 q 623 1301 569 1331 q 706 1222 676 1272 q 733 1107 735 1171 l 661 1107 q 621 1222 665 1178 q 501 1265 576 1265 q 380 1222 426 1265 q 338 1107 335 1178 l 267 1107 z "},"Ū":{"ha":1003,"x_min":132,"x_max":871,"o":"m 501 -21 q 296 31 378 -21 q 173 169 214 83 q 132 358 132 255 l 132 972 l 213 972 l 213 369 q 291 135 213 213 q 501 57 370 57 q 711 135 633 57 q 790 369 790 213 l 790 972 l 871 972 l 871 358 q 830 169 871 255 q 707 31 789 83 q 501 -21 625 -21 m 294 1146 l 294 1215 l 708 1215 l 708 1146 l 294 1146 z "},"Ų":{"ha":1003,"x_min":132,"x_max":871,"o":"m 610 -312 q 506 -273 541 -312 q 471 -177 470 -233 q 492 -91 472 -130 q 543 -19 511 -51 q 324 18 416 -26 q 182 148 232 61 q 132 358 132 235 l 132 972 l 213 972 l 213 369 q 291 135 213 213 q 501 57 370 57 q 711 135 633 57 q 790 369 790 213 l 790 972 l 871 972 l 871 358 q 826 160 871 250 q 692 23 781 70 q 594 -53 632 -9 q 554 -159 556 -97 q 568 -214 553 -191 q 621 -236 583 -236 q 659 -231 641 -236 q 693 -217 678 -226 l 722 -284 q 668 -305 697 -297 q 610 -312 639 -312 z "},"Ů":{"ha":1003,"x_min":132,"x_max":871,"o":"m 501 -21 q 296 31 378 -21 q 173 169 214 83 q 132 358 132 255 l 132 972 l 213 972 l 213 369 q 291 135 213 213 q 501 57 370 57 q 711 135 633 57 q 790 369 790 213 l 790 972 l 871 972 l 871 358 q 830 169 871 255 q 707 31 789 83 q 501 -21 625 -21 m 501 1015 q 406 1040 450 1015 q 336 1106 363 1064 q 310 1199 310 1147 q 336 1292 310 1250 q 406 1358 363 1333 q 501 1382 450 1382 q 597 1358 553 1382 q 667 1292 640 1333 q 693 1199 693 1250 q 667 1106 693 1147 q 597 1040 640 1064 q 501 1015 553 1015 m 501 1079 q 591 1113 555 1079 q 626 1199 626 1147 q 591 1284 626 1251 q 501 1318 555 1318 q 413 1284 449 1318 q 376 1199 376 1251 q 413 1113 376 1147 q 501 1079 449 1079 z "},"Ũ":{"ha":1003,"x_min":132,"x_max":871,"o":"m 501 -21 q 296 31 378 -21 q 173 169 214 83 q 132 358 132 255 l 132 972 l 213 972 l 213 369 q 291 135 213 213 q 501 57 370 57 q 711 135 633 57 q 790 369 790 213 l 790 972 l 871 972 l 871 358 q 830 169 871 255 q 707 31 789 83 q 501 -21 625 -21 m 308 1135 l 256 1165 q 314 1251 278 1219 q 397 1283 349 1283 q 473 1266 437 1283 q 541 1232 508 1249 q 606 1215 574 1215 q 658 1237 636 1215 q 694 1296 680 1258 l 747 1264 q 687 1179 724 1210 q 604 1149 650 1149 q 530 1165 565 1149 q 461 1199 494 1182 q 397 1215 428 1215 q 346 1195 368 1215 q 308 1135 324 1176 z "},"V":{"ha":872,"x_min":21,"x_max":851,"o":"m 410 0 l 21 972 l 111 972 l 446 122 l 764 972 l 851 972 l 479 0 l 410 0 z "},"W":{"ha":1389,"x_min":44,"x_max":1344,"o":"m 335 0 l 44 972 l 132 972 l 388 88 l 650 972 l 743 972 l 1004 89 l 1260 972 l 1344 972 l 1056 0 l 953 0 l 697 846 l 438 0 l 335 0 z "},"Ẃ":{"ha":1389,"x_min":44,"x_max":1344,"o":"m 335 0 l 44 972 l 132 972 l 388 88 l 650 972 l 743 972 l 1004 89 l 1260 972 l 1344 972 l 1056 0 l 953 0 l 697 846 l 438 0 l 335 0 m 651 1107 l 783 1324 l 867 1324 l 726 1107 l 651 1107 z "},"Ŵ":{"ha":1389,"x_min":44,"x_max":1344,"o":"m 335 0 l 44 972 l 132 972 l 388 88 l 650 972 l 743 972 l 1004 89 l 1260 972 l 1344 972 l 1056 0 l 953 0 l 697 846 l 438 0 l 335 0 m 471 1107 l 658 1324 l 746 1324 l 921 1107 l 838 1107 l 700 1271 l 557 1107 l 471 1107 z "},"Ẅ":{"ha":1389,"x_min":44,"x_max":1344,"o":"m 335 0 l 44 972 l 132 972 l 388 88 l 650 972 l 743 972 l 1004 89 l 1260 972 l 1344 972 l 1056 0 l 953 0 l 697 846 l 438 0 l 335 0 m 567 1101 q 519 1120 539 1101 q 500 1165 500 1140 q 509 1197 500 1183 q 533 1219 518 1211 q 567 1228 549 1228 q 614 1210 594 1228 q 633 1165 633 1192 q 625 1133 633 1148 q 601 1110 616 1119 q 567 1101 585 1101 m 826 1101 q 779 1120 799 1101 q 760 1165 760 1140 q 768 1196 760 1182 q 792 1219 777 1210 q 826 1228 808 1228 q 873 1210 853 1228 q 893 1165 893 1192 q 884 1133 893 1148 q 860 1110 875 1119 q 826 1101 844 1101 z "},"Ẁ":{"ha":1389,"x_min":44,"x_max":1344,"o":"m 335 0 l 44 972 l 132 972 l 388 88 l 650 972 l 743 972 l 1004 89 l 1260 972 l 1344 972 l 1056 0 l 953 0 l 697 846 l 438 0 l 335 0 m 675 1107 l 535 1324 l 622 1324 l 753 1107 l 675 1107 z "},"X":{"ha":897,"x_min":54,"x_max":843,"o":"m 54 0 l 383 501 l 75 972 l 169 972 l 443 556 l 740 972 l 831 972 l 497 497 l 843 0 l 749 0 l 439 444 l 144 0 l 54 0 z "},"Y":{"ha":819,"x_min":24,"x_max":796,"o":"m 369 0 l 369 433 l 24 972 l 121 972 l 413 513 l 701 972 l 796 972 l 450 433 l 450 0 l 369 0 z "},"Ý":{"ha":819,"x_min":24,"x_max":796,"o":"m 369 0 l 369 433 l 24 972 l 121 972 l 413 513 l 701 972 l 796 972 l 450 433 l 450 0 l 369 0 m 365 1107 l 497 1324 l 581 1324 l 440 1107 l 365 1107 z "},"Ŷ":{"ha":819,"x_min":24,"x_max":796,"o":"m 369 0 l 369 433 l 24 972 l 121 972 l 413 513 l 701 972 l 796 972 l 450 433 l 450 0 l 369 0 m 185 1107 l 372 1324 l 460 1324 l 635 1107 l 551 1107 l 414 1271 l 271 1107 l 185 1107 z "},"Ÿ":{"ha":819,"x_min":24,"x_max":796,"o":"m 369 0 l 369 433 l 24 972 l 121 972 l 413 513 l 701 972 l 796 972 l 450 433 l 450 0 l 369 0 m 281 1101 q 233 1120 253 1101 q 214 1165 214 1140 q 223 1197 214 1183 q 247 1219 232 1211 q 281 1228 263 1228 q 327 1210 308 1228 q 347 1165 347 1192 q 339 1133 347 1148 q 315 1110 330 1119 q 281 1101 299 1101 m 540 1101 q 493 1120 513 1101 q 474 1165 474 1140 q 482 1196 474 1182 q 506 1219 491 1210 q 540 1228 522 1228 q 587 1210 567 1228 q 607 1165 607 1192 q 598 1133 607 1148 q 574 1110 589 1119 q 540 1101 558 1101 z "},"Ỵ":{"ha":819,"x_min":24,"x_max":796,"o":"m 369 0 l 369 433 l 24 972 l 121 972 l 413 513 l 701 972 l 796 972 l 450 433 l 450 0 l 369 0 m 410 -328 q 364 -309 383 -328 q 344 -262 344 -290 q 364 -216 344 -235 q 410 -197 383 -197 q 456 -216 437 -197 q 475 -262 475 -235 q 456 -309 475 -290 q 410 -328 437 -328 z "},"Ỳ":{"ha":819,"x_min":24,"x_max":796,"o":"m 369 0 l 369 433 l 24 972 l 121 972 l 413 513 l 701 972 l 796 972 l 450 433 l 450 0 l 369 0 m 389 1107 l 249 1324 l 336 1324 l 467 1107 l 389 1107 z "},"Ỷ":{"ha":819,"x_min":24,"x_max":796,"o":"m 369 0 l 369 433 l 24 972 l 121 972 l 413 513 l 701 972 l 796 972 l 450 433 l 450 0 l 369 0 m 367 1107 q 359 1180 344 1151 q 432 1229 374 1210 q 500 1258 484 1247 q 517 1290 517 1269 q 486 1334 517 1317 q 408 1350 456 1350 q 335 1343 372 1350 q 274 1324 299 1335 l 249 1375 q 326 1399 284 1391 q 411 1407 367 1407 q 499 1393 460 1407 q 561 1356 538 1380 q 583 1303 583 1333 q 562 1244 583 1265 q 481 1199 540 1223 q 424 1162 434 1180 q 432 1107 413 1144 l 367 1107 z "},"Ȳ":{"ha":819,"x_min":24,"x_max":796,"o":"m 369 0 l 369 433 l 24 972 l 121 972 l 413 513 l 701 972 l 796 972 l 450 433 l 450 0 l 369 0 m 203 1146 l 203 1215 l 617 1215 l 617 1146 l 203 1146 z "},"Ỹ":{"ha":819,"x_min":24,"x_max":796,"o":"m 369 0 l 369 433 l 24 972 l 121 972 l 413 513 l 701 972 l 796 972 l 450 433 l 450 0 l 369 0 m 217 1135 l 164 1165 q 222 1251 186 1219 q 306 1283 258 1283 q 381 1266 345 1283 q 450 1232 417 1249 q 514 1215 483 1215 q 566 1237 544 1215 q 603 1296 588 1258 l 656 1264 q 595 1179 633 1210 q 513 1149 558 1149 q 438 1165 474 1149 q 370 1199 403 1182 q 306 1215 337 1215 q 255 1195 276 1215 q 217 1135 233 1176 z "},"Z":{"ha":803,"x_min":74,"x_max":738,"o":"m 74 0 l 74 68 l 636 897 l 89 897 l 89 972 l 732 972 l 732 904 l 171 75 l 738 75 l 738 0 l 74 0 z "},"Ź":{"ha":803,"x_min":74,"x_max":738,"o":"m 74 0 l 74 68 l 636 897 l 89 897 l 89 972 l 732 972 l 732 904 l 171 75 l 738 75 l 738 0 l 74 0 m 363 1107 l 494 1324 l 578 1324 l 438 1107 l 363 1107 z "},"Ž":{"ha":803,"x_min":74,"x_max":738,"o":"m 74 0 l 74 68 l 636 897 l 89 897 l 89 972 l 732 972 l 732 904 l 171 75 l 738 75 l 738 0 l 74 0 m 358 1107 l 182 1324 l 265 1324 l 403 1160 l 546 1324 l 632 1324 l 444 1107 l 358 1107 z "},"Ż":{"ha":803,"x_min":74,"x_max":738,"o":"m 74 0 l 74 68 l 636 897 l 89 897 l 89 972 l 732 972 l 732 904 l 171 75 l 738 75 l 738 0 l 74 0 m 407 1101 q 360 1120 379 1101 q 340 1165 340 1140 q 360 1210 340 1192 q 407 1228 380 1228 q 454 1210 434 1228 q 474 1165 474 1192 q 454 1120 474 1140 q 407 1101 434 1101 z "},"a":{"ha":728,"x_min":69,"x_max":619,"o":"m 301 -21 q 176 5 228 -21 q 96 78 124 31 q 69 188 69 125 q 95 282 69 239 q 181 355 122 326 q 337 394 240 384 q 573 388 433 403 l 577 318 q 371 328 454 333 q 239 303 288 323 q 168 253 190 283 q 147 188 147 223 q 190 90 147 125 q 312 54 234 54 q 429 79 377 54 q 511 146 481 103 q 541 243 541 189 l 541 447 q 517 539 541 501 q 450 599 494 578 q 344 619 406 619 q 239 603 291 619 q 135 550 187 588 l 107 619 q 228 678 167 663 q 345 694 290 694 q 497 666 436 694 q 588 582 558 638 q 619 447 619 527 l 619 0 l 541 0 l 541 88 q 441 7 505 35 q 301 -21 377 -21 z "},"á":{"ha":728,"x_min":69,"x_max":619,"o":"m 301 -21 q 176 5 228 -21 q 96 78 124 31 q 69 188 69 125 q 95 282 69 239 q 181 355 122 326 q 337 394 240 384 q 573 388 433 403 l 577 318 q 371 328 454 333 q 239 303 288 323 q 168 253 190 283 q 147 188 147 223 q 190 90 147 125 q 312 54 234 54 q 429 79 377 54 q 511 146 481 103 q 541 243 541 189 l 541 447 q 517 539 541 501 q 450 599 494 578 q 344 619 406 619 q 239 603 291 619 q 135 550 187 588 l 107 619 q 228 678 167 663 q 345 694 290 694 q 497 666 436 694 q 588 582 558 638 q 619 447 619 527 l 619 0 l 541 0 l 541 88 q 441 7 505 35 q 301 -21 377 -21 m 299 813 l 426 1044 l 509 1044 l 374 813 l 299 813 z "},"ă":{"ha":728,"x_min":69,"x_max":619,"o":"m 301 -21 q 176 5 228 -21 q 96 78 124 31 q 69 188 69 125 q 95 282 69 239 q 181 355 122 326 q 337 394 240 384 q 573 388 433 403 l 577 318 q 371 328 454 333 q 239 303 288 323 q 168 253 190 283 q 147 188 147 223 q 190 90 147 125 q 312 54 234 54 q 429 79 377 54 q 511 146 481 103 q 541 243 541 189 l 541 447 q 517 539 541 501 q 450 599 494 578 q 344 619 406 619 q 239 603 291 619 q 135 550 187 588 l 107 619 q 228 678 167 663 q 345 694 290 694 q 497 666 436 694 q 588 582 558 638 q 619 447 619 527 l 619 0 l 541 0 l 541 88 q 441 7 505 35 q 301 -21 377 -21 m 344 806 q 224 837 276 806 q 143 922 172 868 q 117 1044 115 976 l 188 1044 q 228 920 185 967 q 344 872 271 872 q 459 920 417 872 q 497 1044 501 967 l 569 1044 q 542 922 571 976 q 461 837 513 868 q 344 806 410 806 z "},"ắ":{"ha":728,"x_min":69,"x_max":619,"o":"m 301 -21 q 176 5 228 -21 q 96 78 124 31 q 69 188 69 125 q 95 282 69 239 q 181 355 122 326 q 337 394 240 384 q 573 388 433 403 l 577 318 q 371 328 454 333 q 239 303 288 323 q 168 253 190 283 q 147 188 147 223 q 190 90 147 125 q 312 54 234 54 q 429 79 377 54 q 511 146 481 103 q 541 243 541 189 l 541 447 q 517 539 541 501 q 450 599 494 578 q 344 619 406 619 q 239 603 291 619 q 135 550 187 588 l 107 619 q 228 678 167 663 q 345 694 290 694 q 497 666 436 694 q 588 582 558 638 q 619 447 619 527 l 619 0 l 541 0 l 541 88 q 441 7 505 35 q 301 -21 377 -21 m 344 806 q 224 837 276 806 q 143 922 172 868 q 117 1044 115 976 l 188 1044 q 228 920 185 967 q 344 872 271 872 q 459 920 417 872 q 497 1044 501 967 l 569 1044 q 542 922 571 976 q 461 837 513 868 q 344 806 410 806 m 299 1121 l 426 1353 l 509 1353 l 374 1121 l 299 1121 z "},"ặ":{"ha":728,"x_min":69,"x_max":619,"o":"m 301 -21 q 176 5 228 -21 q 96 78 124 31 q 69 188 69 125 q 95 282 69 239 q 181 355 122 326 q 337 394 240 384 q 573 388 433 403 l 577 318 q 371 328 454 333 q 239 303 288 323 q 168 253 190 283 q 147 188 147 223 q 190 90 147 125 q 312 54 234 54 q 429 79 377 54 q 511 146 481 103 q 541 243 541 189 l 541 447 q 517 539 541 501 q 450 599 494 578 q 344 619 406 619 q 239 603 291 619 q 135 550 187 588 l 107 619 q 228 678 167 663 q 345 694 290 694 q 497 666 436 694 q 588 582 558 638 q 619 447 619 527 l 619 0 l 541 0 l 541 88 q 441 7 505 35 q 301 -21 377 -21 m 344 -328 q 298 -309 317 -328 q 278 -262 278 -290 q 298 -216 278 -235 q 344 -197 317 -197 q 390 -216 371 -197 q 409 -262 409 -235 q 390 -309 409 -290 q 344 -328 371 -328 m 344 806 q 224 837 276 806 q 143 922 172 868 q 117 1044 115 976 l 188 1044 q 228 920 185 967 q 344 872 271 872 q 459 920 417 872 q 497 1044 501 967 l 569 1044 q 542 922 571 976 q 461 837 513 868 q 344 806 410 806 z "},"ằ":{"ha":728,"x_min":69,"x_max":619,"o":"m 301 -21 q 176 5 228 -21 q 96 78 124 31 q 69 188 69 125 q 95 282 69 239 q 181 355 122 326 q 337 394 240 384 q 573 388 433 403 l 577 318 q 371 328 454 333 q 239 303 288 323 q 168 253 190 283 q 147 188 147 223 q 190 90 147 125 q 312 54 234 54 q 429 79 377 54 q 511 146 481 103 q 541 243 541 189 l 541 447 q 517 539 541 501 q 450 599 494 578 q 344 619 406 619 q 239 603 291 619 q 135 550 187 588 l 107 619 q 228 678 167 663 q 345 694 290 694 q 497 666 436 694 q 588 582 558 638 q 619 447 619 527 l 619 0 l 541 0 l 541 88 q 441 7 505 35 q 301 -21 377 -21 m 344 806 q 224 837 276 806 q 143 922 172 868 q 117 1044 115 976 l 188 1044 q 228 920 185 967 q 344 872 271 872 q 459 920 417 872 q 497 1044 501 967 l 569 1044 q 542 922 571 976 q 461 837 513 868 q 344 806 410 806 m 322 1121 l 187 1353 l 274 1353 l 399 1121 l 322 1121 z "},"ẳ":{"ha":728,"x_min":69,"x_max":619,"o":"m 301 -21 q 176 5 228 -21 q 96 78 124 31 q 69 188 69 125 q 95 282 69 239 q 181 355 122 326 q 337 394 240 384 q 573 388 433 403 l 577 318 q 371 328 454 333 q 239 303 288 323 q 168 253 190 283 q 147 188 147 223 q 190 90 147 125 q 312 54 234 54 q 429 79 377 54 q 511 146 481 103 q 541 243 541 189 l 541 447 q 517 539 541 501 q 450 599 494 578 q 344 619 406 619 q 239 603 291 619 q 135 550 187 588 l 107 619 q 228 678 167 663 q 345 694 290 694 q 497 666 436 694 q 588 582 558 638 q 619 447 619 527 l 619 0 l 541 0 l 541 88 q 441 7 505 35 q 301 -21 377 -21 m 344 806 q 224 837 276 806 q 143 922 172 868 q 117 1044 115 976 l 188 1044 q 228 920 185 967 q 344 872 271 872 q 459 920 417 872 q 497 1044 501 967 l 569 1044 q 542 922 571 976 q 461 837 513 868 q 344 806 410 806 m 302 1121 q 294 1200 279 1168 q 365 1253 308 1231 q 430 1284 414 1272 q 445 1319 445 1296 q 416 1367 445 1350 q 341 1385 386 1385 q 273 1377 308 1385 q 212 1356 238 1369 l 188 1410 q 263 1435 223 1426 q 345 1443 303 1443 q 465 1411 417 1443 q 512 1332 512 1380 q 491 1269 512 1292 q 413 1221 469 1246 q 358 1181 367 1200 q 366 1121 349 1162 l 302 1121 z "},"ẵ":{"ha":728,"x_min":69,"x_max":619,"o":"m 301 -21 q 176 5 228 -21 q 96 78 124 31 q 69 188 69 125 q 95 282 69 239 q 181 355 122 326 q 337 394 240 384 q 573 388 433 403 l 577 318 q 371 328 454 333 q 239 303 288 323 q 168 253 190 283 q 147 188 147 223 q 190 90 147 125 q 312 54 234 54 q 429 79 377 54 q 511 146 481 103 q 541 243 541 189 l 541 447 q 517 539 541 501 q 450 599 494 578 q 344 619 406 619 q 239 603 291 619 q 135 550 187 588 l 107 619 q 228 678 167 663 q 345 694 290 694 q 497 666 436 694 q 588 582 558 638 q 619 447 619 527 l 619 0 l 541 0 l 541 88 q 441 7 505 35 q 301 -21 377 -21 m 344 806 q 224 837 276 806 q 143 922 172 868 q 117 1044 115 976 l 188 1044 q 228 920 185 967 q 344 872 271 872 q 459 920 417 872 q 497 1044 501 967 l 569 1044 q 542 922 571 976 q 461 837 513 868 q 344 806 410 806 m 158 1153 l 106 1183 q 162 1274 127 1239 q 244 1308 197 1308 q 316 1290 282 1308 q 382 1253 351 1272 q 444 1235 414 1235 q 495 1258 473 1235 q 530 1322 517 1282 l 581 1290 q 524 1199 560 1232 q 444 1167 488 1167 q 371 1185 406 1167 q 305 1221 337 1203 q 244 1239 274 1239 q 193 1217 215 1239 q 158 1153 172 1194 z "},"ǎ":{"ha":728,"x_min":69,"x_max":619,"o":"m 301 -21 q 176 5 228 -21 q 96 78 124 31 q 69 188 69 125 q 95 282 69 239 q 181 355 122 326 q 337 394 240 384 q 573 388 433 403 l 577 318 q 371 328 454 333 q 239 303 288 323 q 168 253 190 283 q 147 188 147 223 q 190 90 147 125 q 312 54 234 54 q 429 79 377 54 q 511 146 481 103 q 541 243 541 189 l 541 447 q 517 539 541 501 q 450 599 494 578 q 344 619 406 619 q 239 603 291 619 q 135 550 187 588 l 107 619 q 228 678 167 663 q 345 694 290 694 q 497 666 436 694 q 588 582 558 638 q 619 447 619 527 l 619 0 l 541 0 l 541 88 q 441 7 505 35 q 301 -21 377 -21 m 297 813 l 126 1044 l 209 1044 l 340 867 l 477 1044 l 562 1044 l 381 813 l 297 813 z "},"â":{"ha":728,"x_min":69,"x_max":619,"o":"m 301 -21 q 176 5 228 -21 q 96 78 124 31 q 69 188 69 125 q 95 282 69 239 q 181 355 122 326 q 337 394 240 384 q 573 388 433 403 l 577 318 q 371 328 454 333 q 239 303 288 323 q 168 253 190 283 q 147 188 147 223 q 190 90 147 125 q 312 54 234 54 q 429 79 377 54 q 511 146 481 103 q 541 243 541 189 l 541 447 q 517 539 541 501 q 450 599 494 578 q 344 619 406 619 q 239 603 291 619 q 135 550 187 588 l 107 619 q 228 678 167 663 q 345 694 290 694 q 497 666 436 694 q 588 582 558 638 q 619 447 619 527 l 619 0 l 541 0 l 541 88 q 441 7 505 35 q 301 -21 377 -21 m 126 813 l 306 1044 l 392 1044 l 562 813 l 478 813 l 348 990 l 210 813 l 126 813 z "},"ấ":{"ha":728,"x_min":69,"x_max":743,"o":"m 301 -21 q 176 5 228 -21 q 96 78 124 31 q 69 188 69 125 q 95 282 69 239 q 181 355 122 326 q 337 394 240 384 q 573 388 433 403 l 577 318 q 371 328 454 333 q 239 303 288 323 q 168 253 190 283 q 147 188 147 223 q 190 90 147 125 q 312 54 234 54 q 429 79 377 54 q 511 146 481 103 q 541 243 541 189 l 541 447 q 517 539 541 501 q 450 599 494 578 q 344 619 406 619 q 239 603 291 619 q 135 550 187 588 l 107 619 q 228 678 167 663 q 345 694 290 694 q 497 666 436 694 q 588 582 558 638 q 619 447 619 527 l 619 0 l 541 0 l 541 88 q 441 7 505 35 q 301 -21 377 -21 m 126 813 l 306 1044 l 392 1044 l 562 813 l 478 813 l 348 990 l 210 813 l 126 813 m 533 996 l 660 1228 l 743 1228 l 608 996 l 533 996 z "},"ậ":{"ha":728,"x_min":69,"x_max":619,"o":"m 301 -21 q 176 5 228 -21 q 96 78 124 31 q 69 188 69 125 q 95 282 69 239 q 181 355 122 326 q 337 394 240 384 q 573 388 433 403 l 577 318 q 371 328 454 333 q 239 303 288 323 q 168 253 190 283 q 147 188 147 223 q 190 90 147 125 q 312 54 234 54 q 429 79 377 54 q 511 146 481 103 q 541 243 541 189 l 541 447 q 517 539 541 501 q 450 599 494 578 q 344 619 406 619 q 239 603 291 619 q 135 550 187 588 l 107 619 q 228 678 167 663 q 345 694 290 694 q 497 666 436 694 q 588 582 558 638 q 619 447 619 527 l 619 0 l 541 0 l 541 88 q 441 7 505 35 q 301 -21 377 -21 m 344 -328 q 298 -309 317 -328 q 278 -262 278 -290 q 298 -216 278 -235 q 344 -197 317 -197 q 390 -216 371 -197 q 409 -262 409 -235 q 390 -309 409 -290 q 344 -328 371 -328 m 126 813 l 306 1044 l 392 1044 l 562 813 l 478 813 l 348 990 l 210 813 l 126 813 z "},"ầ":{"ha":728,"x_min":69,"x_max":619,"o":"m 301 -21 q 176 5 228 -21 q 96 78 124 31 q 69 188 69 125 q 95 282 69 239 q 181 355 122 326 q 337 394 240 384 q 573 388 433 403 l 577 318 q 371 328 454 333 q 239 303 288 323 q 168 253 190 283 q 147 188 147 223 q 190 90 147 125 q 312 54 234 54 q 429 79 377 54 q 511 146 481 103 q 541 243 541 189 l 541 447 q 517 539 541 501 q 450 599 494 578 q 344 619 406 619 q 239 603 291 619 q 135 550 187 588 l 107 619 q 228 678 167 663 q 345 694 290 694 q 497 666 436 694 q 588 582 558 638 q 619 447 619 527 l 619 0 l 541 0 l 541 88 q 441 7 505 35 q 301 -21 377 -21 m 126 813 l 306 1044 l 392 1044 l 562 813 l 478 813 l 348 990 l 210 813 l 126 813 m 537 996 l 402 1228 l 490 1228 l 615 996 l 537 996 z "},"ẩ":{"ha":728,"x_min":69,"x_max":746,"o":"m 301 -21 q 176 5 228 -21 q 96 78 124 31 q 69 188 69 125 q 95 282 69 239 q 181 355 122 326 q 337 394 240 384 q 573 388 433 403 l 577 318 q 371 328 454 333 q 239 303 288 323 q 168 253 190 283 q 147 188 147 223 q 190 90 147 125 q 312 54 234 54 q 429 79 377 54 q 511 146 481 103 q 541 243 541 189 l 541 447 q 517 539 541 501 q 450 599 494 578 q 344 619 406 619 q 239 603 291 619 q 135 550 187 588 l 107 619 q 228 678 167 663 q 345 694 290 694 q 497 666 436 694 q 588 582 558 638 q 619 447 619 527 l 619 0 l 541 0 l 541 88 q 441 7 505 35 q 301 -21 377 -21 m 126 813 l 306 1044 l 392 1044 l 562 813 l 478 813 l 348 990 l 210 813 l 126 813 m 536 996 q 528 1075 513 1043 q 599 1128 542 1106 q 664 1159 648 1147 q 679 1194 679 1171 q 650 1242 679 1225 q 575 1260 620 1260 q 507 1252 542 1260 q 446 1231 472 1244 l 422 1285 q 497 1310 457 1301 q 579 1318 538 1318 q 699 1286 651 1318 q 746 1207 746 1255 q 725 1144 746 1167 q 647 1096 703 1121 q 592 1056 601 1075 q 600 996 583 1037 l 536 996 z "},"ẫ":{"ha":728,"x_min":69,"x_max":619,"o":"m 301 -21 q 176 5 228 -21 q 96 78 124 31 q 69 188 69 125 q 95 282 69 239 q 181 355 122 326 q 337 394 240 384 q 573 388 433 403 l 577 318 q 371 328 454 333 q 239 303 288 323 q 168 253 190 283 q 147 188 147 223 q 190 90 147 125 q 312 54 234 54 q 429 79 377 54 q 511 146 481 103 q 541 243 541 189 l 541 447 q 517 539 541 501 q 450 599 494 578 q 344 619 406 619 q 239 603 291 619 q 135 550 187 588 l 107 619 q 228 678 167 663 q 345 694 290 694 q 497 666 436 694 q 588 582 558 638 q 619 447 619 527 l 619 0 l 541 0 l 541 88 q 441 7 505 35 q 301 -21 377 -21 m 126 813 l 306 1044 l 392 1044 l 562 813 l 478 813 l 348 990 l 210 813 l 126 813 m 158 1181 l 106 1211 q 162 1301 127 1267 q 244 1336 197 1336 q 316 1318 282 1336 q 382 1281 351 1299 q 444 1263 414 1263 q 495 1286 473 1263 q 530 1350 517 1310 l 581 1318 q 524 1227 560 1260 q 444 1194 488 1194 q 371 1213 406 1194 q 305 1249 337 1231 q 244 1267 274 1267 q 193 1244 215 1267 q 158 1181 172 1222 z "},"ȁ":{"ha":728,"x_min":53,"x_max":619,"o":"m 301 -21 q 176 5 228 -21 q 96 78 124 31 q 69 188 69 125 q 95 282 69 239 q 181 355 122 326 q 337 394 240 384 q 573 388 433 403 l 577 318 q 371 328 454 333 q 239 303 288 323 q 168 253 190 283 q 147 188 147 223 q 190 90 147 125 q 312 54 234 54 q 429 79 377 54 q 511 146 481 103 q 541 243 541 189 l 541 447 q 517 539 541 501 q 450 599 494 578 q 344 619 406 619 q 239 603 291 619 q 135 550 187 588 l 107 619 q 228 678 167 663 q 345 694 290 694 q 497 666 436 694 q 588 582 558 638 q 619 447 619 527 l 619 0 l 541 0 l 541 88 q 441 7 505 35 q 301 -21 377 -21 m 424 813 l 290 1044 l 373 1044 l 499 813 l 424 813 m 188 813 l 53 1044 l 137 1044 l 263 813 l 188 813 z "},"ä":{"ha":728,"x_min":69,"x_max":619,"o":"m 301 -21 q 176 5 228 -21 q 96 78 124 31 q 69 188 69 125 q 95 282 69 239 q 181 355 122 326 q 337 394 240 384 q 573 388 433 403 l 577 318 q 371 328 454 333 q 239 303 288 323 q 168 253 190 283 q 147 188 147 223 q 190 90 147 125 q 312 54 234 54 q 429 79 377 54 q 511 146 481 103 q 541 243 541 189 l 541 447 q 517 539 541 501 q 450 599 494 578 q 344 619 406 619 q 239 603 291 619 q 135 550 187 588 l 107 619 q 228 678 167 663 q 345 694 290 694 q 497 666 436 694 q 588 582 558 638 q 619 447 619 527 l 619 0 l 541 0 l 541 88 q 441 7 505 35 q 301 -21 377 -21 m 217 807 q 171 826 190 807 q 152 872 152 845 q 161 905 152 890 q 184 929 169 920 q 217 938 199 938 q 264 918 244 938 q 283 872 283 899 q 274 839 283 854 q 250 816 265 824 q 217 807 235 807 m 470 807 q 424 826 443 807 q 405 872 405 845 q 414 905 405 890 q 437 929 422 920 q 470 938 452 938 q 516 918 497 938 q 535 872 535 899 q 527 839 535 854 q 503 816 518 824 q 470 807 488 807 z "},"ạ":{"ha":728,"x_min":69,"x_max":619,"o":"m 301 -21 q 176 5 228 -21 q 96 78 124 31 q 69 188 69 125 q 95 282 69 239 q 181 355 122 326 q 337 394 240 384 q 573 388 433 403 l 577 318 q 371 328 454 333 q 239 303 288 323 q 168 253 190 283 q 147 188 147 223 q 190 90 147 125 q 312 54 234 54 q 429 79 377 54 q 511 146 481 103 q 541 243 541 189 l 541 447 q 517 539 541 501 q 450 599 494 578 q 344 619 406 619 q 239 603 291 619 q 135 550 187 588 l 107 619 q 228 678 167 663 q 345 694 290 694 q 497 666 436 694 q 588 582 558 638 q 619 447 619 527 l 619 0 l 541 0 l 541 88 q 441 7 505 35 q 301 -21 377 -21 m 344 -328 q 298 -309 317 -328 q 278 -262 278 -290 q 298 -216 278 -235 q 344 -197 317 -197 q 390 -216 371 -197 q 409 -262 409 -235 q 390 -309 409 -290 q 344 -328 371 -328 z "},"à":{"ha":728,"x_min":69,"x_max":619,"o":"m 301 -21 q 176 5 228 -21 q 96 78 124 31 q 69 188 69 125 q 95 282 69 239 q 181 355 122 326 q 337 394 240 384 q 573 388 433 403 l 577 318 q 371 328 454 333 q 239 303 288 323 q 168 253 190 283 q 147 188 147 223 q 190 90 147 125 q 312 54 234 54 q 429 79 377 54 q 511 146 481 103 q 541 243 541 189 l 541 447 q 517 539 541 501 q 450 599 494 578 q 344 619 406 619 q 239 603 291 619 q 135 550 187 588 l 107 619 q 228 678 167 663 q 345 694 290 694 q 497 666 436 694 q 588 582 558 638 q 619 447 619 527 l 619 0 l 541 0 l 541 88 q 441 7 505 35 q 301 -21 377 -21 m 322 813 l 187 1044 l 274 1044 l 399 813 l 322 813 z "},"ả":{"ha":728,"x_min":69,"x_max":619,"o":"m 301 -21 q 176 5 228 -21 q 96 78 124 31 q 69 188 69 125 q 95 282 69 239 q 181 355 122 326 q 337 394 240 384 q 573 388 433 403 l 577 318 q 371 328 454 333 q 239 303 288 323 q 168 253 190 283 q 147 188 147 223 q 190 90 147 125 q 312 54 234 54 q 429 79 377 54 q 511 146 481 103 q 541 243 541 189 l 541 447 q 517 539 541 501 q 450 599 494 578 q 344 619 406 619 q 239 603 291 619 q 135 550 187 588 l 107 619 q 228 678 167 663 q 345 694 290 694 q 497 666 436 694 q 588 582 558 638 q 619 447 619 527 l 619 0 l 541 0 l 541 88 q 441 7 505 35 q 301 -21 377 -21 m 302 813 q 294 891 279 860 q 365 944 308 923 q 430 975 414 963 q 445 1011 445 988 q 416 1059 445 1042 q 341 1076 386 1076 q 273 1069 308 1076 q 212 1047 238 1061 l 188 1101 q 263 1126 223 1118 q 345 1135 303 1135 q 465 1103 417 1135 q 512 1024 512 1072 q 491 960 512 983 q 413 913 469 938 q 358 873 367 892 q 366 813 349 853 l 302 813 z "},"ȃ":{"ha":728,"x_min":69,"x_max":619,"o":"m 301 -21 q 176 5 228 -21 q 96 78 124 31 q 69 188 69 125 q 95 282 69 239 q 181 355 122 326 q 337 394 240 384 q 573 388 433 403 l 577 318 q 371 328 454 333 q 239 303 288 323 q 168 253 190 283 q 147 188 147 223 q 190 90 147 125 q 312 54 234 54 q 429 79 377 54 q 511 146 481 103 q 541 243 541 189 l 541 447 q 517 539 541 501 q 450 599 494 578 q 344 619 406 619 q 239 603 291 619 q 135 550 187 588 l 107 619 q 228 678 167 663 q 345 694 290 694 q 497 666 436 694 q 588 582 558 638 q 619 447 619 527 l 619 0 l 541 0 l 541 88 q 441 7 505 35 q 301 -21 377 -21 m 117 813 q 143 935 115 881 q 224 1020 172 990 q 344 1051 276 1051 q 461 1020 410 1051 q 542 935 513 989 q 569 813 571 881 l 497 813 q 459 937 501 890 q 344 985 417 985 q 228 937 271 985 q 188 813 185 890 l 117 813 z "},"ā":{"ha":728,"x_min":69,"x_max":619,"o":"m 301 -21 q 176 5 228 -21 q 96 78 124 31 q 69 188 69 125 q 95 282 69 239 q 181 355 122 326 q 337 394 240 384 q 573 388 433 403 l 577 318 q 371 328 454 333 q 239 303 288 323 q 168 253 190 283 q 147 188 147 223 q 190 90 147 125 q 312 54 234 54 q 429 79 377 54 q 511 146 481 103 q 541 243 541 189 l 541 447 q 517 539 541 501 q 450 599 494 578 q 344 619 406 619 q 239 603 291 619 q 135 550 187 588 l 107 619 q 228 678 167 663 q 345 694 290 694 q 497 666 436 694 q 588 582 558 638 q 619 447 619 527 l 619 0 l 541 0 l 541 88 q 441 7 505 35 q 301 -21 377 -21 m 144 854 l 144 926 l 544 926 l 544 854 l 144 854 z "},"ą":{"ha":728,"x_min":69,"x_max":620,"o":"m 508 -312 q 403 -273 439 -312 q 369 -177 368 -233 q 402 -76 370 -119 q 484 -2 433 -32 q 594 42 535 27 l 619 0 q 533 -34 570 -13 q 475 -85 496 -55 q 452 -159 453 -116 q 466 -214 451 -191 q 519 -236 481 -236 q 557 -231 539 -236 q 591 -217 576 -226 l 620 -284 q 566 -305 594 -297 q 508 -312 537 -312 m 301 -21 q 176 5 228 -21 q 96 78 124 31 q 69 188 69 125 q 95 282 69 239 q 181 355 122 326 q 337 394 240 384 q 573 388 433 403 l 577 318 q 371 328 454 333 q 239 303 288 323 q 168 253 190 283 q 147 188 147 223 q 190 90 147 125 q 312 54 234 54 q 429 79 377 54 q 511 146 481 103 q 541 243 541 189 l 541 447 q 517 539 541 501 q 450 599 494 578 q 344 619 406 619 q 239 603 291 619 q 135 550 187 588 l 107 619 q 228 678 167 663 q 345 694 290 694 q 497 666 436 694 q 588 582 558 638 q 619 447 619 527 l 619 0 l 541 0 l 541 88 q 441 7 505 35 q 301 -21 377 -21 z "},"å":{"ha":728,"x_min":69,"x_max":619,"o":"m 301 -21 q 176 5 228 -21 q 96 78 124 31 q 69 188 69 125 q 95 282 69 239 q 181 355 122 326 q 337 394 240 384 q 573 388 433 403 l 577 318 q 371 328 454 333 q 239 303 288 323 q 168 253 190 283 q 147 188 147 223 q 190 90 147 125 q 312 54 234 54 q 429 79 377 54 q 511 146 481 103 q 541 243 541 189 l 541 447 q 517 539 541 501 q 450 599 494 578 q 344 619 406 619 q 239 603 291 619 q 135 550 187 588 l 107 619 q 228 678 167 663 q 345 694 290 694 q 497 666 436 694 q 588 582 558 638 q 619 447 619 527 l 619 0 l 541 0 l 541 88 q 441 7 505 35 q 301 -21 377 -21 m 344 764 q 257 785 297 764 q 195 843 218 806 q 172 925 172 879 q 195 1007 172 970 q 257 1066 218 1044 q 344 1088 297 1088 q 429 1066 390 1088 q 491 1007 468 1044 q 515 925 515 970 q 491 843 515 879 q 429 785 468 806 q 344 764 390 764 m 344 825 q 416 854 389 825 q 442 925 442 883 q 416 996 442 967 q 344 1025 389 1025 q 272 996 299 1025 q 244 925 244 967 q 272 854 244 883 q 344 825 299 825 z "},"ǻ":{"ha":728,"x_min":69,"x_max":619,"o":"m 301 -21 q 176 5 228 -21 q 96 78 124 31 q 69 188 69 125 q 95 282 69 239 q 181 355 122 326 q 337 394 240 384 q 573 388 433 403 l 577 318 q 371 328 454 333 q 239 303 288 323 q 168 253 190 283 q 147 188 147 223 q 190 90 147 125 q 312 54 234 54 q 429 79 377 54 q 511 146 481 103 q 541 243 541 189 l 541 447 q 517 539 541 501 q 450 599 494 578 q 344 619 406 619 q 239 603 291 619 q 135 550 187 588 l 107 619 q 228 678 167 663 q 345 694 290 694 q 497 666 436 694 q 588 582 558 638 q 619 447 619 527 l 619 0 l 541 0 l 541 88 q 441 7 505 35 q 301 -21 377 -21 m 344 764 q 257 785 297 764 q 195 843 218 806 q 172 925 172 879 q 195 1007 172 970 q 257 1066 218 1044 q 344 1088 297 1088 q 429 1066 390 1088 q 491 1007 468 1044 q 515 925 515 970 q 491 843 515 879 q 429 785 468 806 q 344 764 390 764 m 344 825 q 416 854 389 825 q 442 925 442 883 q 416 996 442 967 q 344 1025 389 1025 q 272 996 299 1025 q 244 925 244 967 q 272 854 244 883 q 344 825 299 825 m 299 1163 l 426 1394 l 509 1394 l 374 1163 l 299 1163 z "},"ã":{"ha":728,"x_min":69,"x_max":619,"o":"m 301 -21 q 176 5 228 -21 q 96 78 124 31 q 69 188 69 125 q 95 282 69 239 q 181 355 122 326 q 337 394 240 384 q 573 388 433 403 l 577 318 q 371 328 454 333 q 239 303 288 323 q 168 253 190 283 q 147 188 147 223 q 190 90 147 125 q 312 54 234 54 q 429 79 377 54 q 511 146 481 103 q 541 243 541 189 l 541 447 q 517 539 541 501 q 450 599 494 578 q 344 619 406 619 q 239 603 291 619 q 135 550 187 588 l 107 619 q 228 678 167 663 q 345 694 290 694 q 497 666 436 694 q 588 582 558 638 q 619 447 619 527 l 619 0 l 541 0 l 541 88 q 441 7 505 35 q 301 -21 377 -21 m 158 844 l 106 875 q 162 965 127 931 q 244 1000 197 1000 q 316 982 282 1000 q 382 945 351 963 q 444 926 414 926 q 495 950 473 926 q 530 1014 517 974 l 581 982 q 524 891 560 924 q 444 858 488 858 q 371 876 406 858 q 305 913 337 894 q 244 931 274 931 q 193 908 215 931 q 158 844 172 886 z "},"æ":{"ha":1228,"x_min":69,"x_max":1179,"o":"m 301 -21 q 130 36 192 -21 q 69 188 69 94 q 117 309 69 256 q 276 385 166 363 q 572 388 386 408 l 574 318 q 318 323 412 338 q 186 271 225 308 q 147 188 147 234 q 190 90 147 125 q 312 54 234 54 q 429 80 377 54 q 511 154 481 106 q 541 271 541 203 l 541 447 q 489 574 541 528 q 344 619 437 619 q 239 603 291 619 q 135 550 187 588 l 106 619 q 228 678 166 663 q 345 694 290 694 q 527 649 460 694 q 612 518 594 603 l 594 521 q 709 643 635 598 q 874 688 783 688 q 1042 640 972 688 q 1145 510 1111 592 q 1170 325 1179 428 l 633 325 q 698 129 626 203 q 897 54 769 54 q 996 73 946 54 q 1080 128 1046 92 l 1126 63 q 1053 16 1093 34 q 971 -12 1014 -3 q 887 -21 928 -21 q 692 35 776 -21 q 572 190 609 92 l 587 190 q 536 85 575 133 q 438 8 498 38 q 301 -21 377 -21 m 635 397 l 1087 397 q 1029 556 1082 499 q 874 613 976 613 q 712 556 776 613 q 635 397 648 499 z "},"ǽ":{"ha":1228,"x_min":69,"x_max":1179,"o":"m 301 -21 q 130 36 192 -21 q 69 188 69 94 q 117 309 69 256 q 276 385 166 363 q 572 388 386 408 l 574 318 q 318 323 412 338 q 186 271 225 308 q 147 188 147 234 q 190 90 147 125 q 312 54 234 54 q 429 80 377 54 q 511 154 481 106 q 541 271 541 203 l 541 447 q 489 574 541 528 q 344 619 437 619 q 239 603 291 619 q 135 550 187 588 l 106 619 q 228 678 166 663 q 345 694 290 694 q 527 649 460 694 q 612 518 594 603 l 594 521 q 709 643 635 598 q 874 688 783 688 q 1042 640 972 688 q 1145 510 1111 592 q 1170 325 1179 428 l 633 325 q 698 129 626 203 q 897 54 769 54 q 996 73 946 54 q 1080 128 1046 92 l 1126 63 q 1053 16 1093 34 q 971 -12 1014 -3 q 887 -21 928 -21 q 692 35 776 -21 q 572 190 609 92 l 587 190 q 536 85 575 133 q 438 8 498 38 q 301 -21 377 -21 m 635 397 l 1087 397 q 1029 556 1082 499 q 874 613 976 613 q 712 556 776 613 q 635 397 648 499 m 547 813 l 673 1044 l 756 1044 l 622 813 l 547 813 z "},"b":{"ha":871,"x_min":118,"x_max":815,"o":"m 478 -21 q 351 0 407 -21 q 254 57 296 21 q 183 140 213 94 l 196 157 l 196 0 l 118 0 l 118 1000 l 196 1000 l 196 510 l 183 526 q 299 641 227 595 q 478 688 372 688 q 655 639 578 688 q 773 510 731 591 q 815 333 815 430 q 791 197 815 261 q 722 84 767 133 q 615 7 677 35 q 478 -21 553 -21 m 464 54 q 603 89 542 54 q 698 185 663 123 q 732 333 732 248 q 698 482 732 419 q 603 578 663 544 q 464 613 542 613 q 325 578 385 613 q 230 482 265 544 q 196 333 196 419 q 230 185 196 248 q 325 89 265 123 q 464 54 385 54 z "},"c":{"ha":688,"x_min":56,"x_max":643,"o":"m 413 -21 q 227 25 308 -21 q 101 151 147 72 q 56 333 56 231 q 83 476 56 411 q 159 588 110 540 q 276 661 209 635 q 424 688 344 688 q 533 673 483 688 q 628 625 583 658 l 581 561 q 508 599 551 586 q 418 613 466 613 q 270 580 333 613 q 173 484 208 547 q 139 335 139 422 q 214 129 139 203 q 417 54 289 54 q 518 74 471 54 q 590 121 565 93 l 643 61 q 535 1 592 23 q 413 -21 477 -21 z "},"ć":{"ha":688,"x_min":56,"x_max":643,"o":"m 413 -21 q 227 25 308 -21 q 101 151 147 72 q 56 333 56 231 q 83 476 56 411 q 159 588 110 540 q 276 661 209 635 q 424 688 344 688 q 533 673 483 688 q 628 625 583 658 l 581 561 q 508 599 551 586 q 418 613 466 613 q 270 580 333 613 q 173 484 208 547 q 139 335 139 422 q 214 129 139 203 q 417 54 289 54 q 518 74 471 54 q 590 121 565 93 l 643 61 q 535 1 592 23 q 413 -21 477 -21 m 349 813 l 475 1044 l 558 1044 l 424 813 l 349 813 z "},"č":{"ha":688,"x_min":56,"x_max":643,"o":"m 413 -21 q 227 25 308 -21 q 101 151 147 72 q 56 333 56 231 q 83 476 56 411 q 159 588 110 540 q 276 661 209 635 q 424 688 344 688 q 533 673 483 688 q 628 625 583 658 l 581 561 q 508 599 551 586 q 418 613 466 613 q 270 580 333 613 q 173 484 208 547 q 139 335 139 422 q 214 129 139 203 q 417 54 289 54 q 518 74 471 54 q 590 121 565 93 l 643 61 q 535 1 592 23 q 413 -21 477 -21 m 346 813 l 175 1044 l 258 1044 l 389 867 l 526 1044 l 611 1044 l 431 813 l 346 813 z "},"ç":{"ha":688,"x_min":56,"x_max":643,"o":"m 413 -21 q 227 25 308 -21 q 101 151 147 72 q 56 333 56 231 q 83 476 56 411 q 159 588 110 540 q 276 661 209 635 q 424 688 344 688 q 533 673 483 688 q 628 625 583 658 l 581 561 q 508 599 551 586 q 418 613 466 613 q 270 580 333 613 q 173 484 208 547 q 139 335 139 422 q 214 129 139 203 q 417 54 289 54 q 518 74 471 54 q 590 121 565 93 l 643 61 q 535 1 592 23 q 413 -21 477 -21 m 374 -312 q 297 -302 332 -312 q 232 -274 261 -292 l 258 -214 q 304 -239 271 -228 q 371 -250 338 -250 q 432 -236 402 -250 q 461 -187 461 -222 q 423 -137 461 -151 q 340 -129 385 -123 l 317 -87 l 354 28 l 411 28 l 383 -65 q 493 -99 449 -69 q 536 -185 536 -129 q 509 -260 536 -232 q 444 -300 482 -288 q 374 -312 406 -312 z "},"ĉ":{"ha":688,"x_min":56,"x_max":643,"o":"m 413 -21 q 227 25 308 -21 q 101 151 147 72 q 56 333 56 231 q 83 476 56 411 q 159 588 110 540 q 276 661 209 635 q 424 688 344 688 q 533 673 483 688 q 628 625 583 658 l 581 561 q 508 599 551 586 q 418 613 466 613 q 270 580 333 613 q 173 484 208 547 q 139 335 139 422 q 214 129 139 203 q 417 54 289 54 q 518 74 471 54 q 590 121 565 93 l 643 61 q 535 1 592 23 q 413 -21 477 -21 m 175 813 l 356 1044 l 442 1044 l 611 813 l 528 813 l 397 990 l 260 813 l 175 813 z "},"ċ":{"ha":688,"x_min":56,"x_max":643,"o":"m 413 -21 q 227 25 308 -21 q 101 151 147 72 q 56 333 56 231 q 83 476 56 411 q 159 588 110 540 q 276 661 209 635 q 424 688 344 688 q 533 673 483 688 q 628 625 583 658 l 581 561 q 508 599 551 586 q 418 613 466 613 q 270 580 333 613 q 173 484 208 547 q 139 335 139 422 q 214 129 139 203 q 417 54 289 54 q 518 74 471 54 q 590 121 565 93 l 643 61 q 535 1 592 23 q 413 -21 477 -21 m 393 807 q 347 826 366 807 q 328 872 328 845 q 347 918 328 899 q 393 938 366 938 q 439 918 420 938 q 458 872 458 899 q 439 826 458 845 q 393 807 420 807 z "},"d":{"ha":871,"x_min":56,"x_max":753,"o":"m 393 -21 q 216 27 292 -21 q 98 156 140 76 q 56 333 56 237 q 80 470 56 406 q 149 583 104 534 q 256 660 194 632 q 393 688 317 688 q 572 644 499 688 q 688 532 644 601 l 675 515 l 675 1000 l 753 1000 l 753 0 l 675 0 l 675 147 l 688 129 q 575 23 643 66 q 393 -21 507 -21 m 407 54 q 546 89 485 54 q 641 185 606 123 q 675 333 675 248 q 641 482 675 419 q 546 578 606 544 q 407 613 485 613 q 268 578 328 613 q 173 482 208 544 q 139 333 139 419 q 173 185 139 248 q 268 89 208 123 q 407 54 328 54 z "},"ð":{"ha":797,"x_min":56,"x_max":738,"o":"m 393 -21 q 220 27 297 -21 q 100 153 144 74 q 56 326 56 232 q 81 460 56 397 q 152 571 106 523 q 259 646 198 619 q 393 674 321 674 q 472 665 434 674 q 543 640 510 656 q 606 600 577 623 l 614 567 q 553 678 588 624 q 472 783 517 732 q 369 882 426 835 q 247 974 313 930 l 315 1021 q 550 810 456 920 q 691 582 644 700 q 738 340 738 464 q 712 199 738 265 q 639 84 686 133 q 530 7 592 35 q 393 -21 467 -21 m 393 54 q 528 88 469 54 q 621 182 588 121 q 654 326 654 243 q 621 471 654 410 q 528 565 588 532 q 393 599 469 599 q 261 565 319 599 q 172 471 204 532 q 139 326 139 410 q 172 182 139 243 q 261 88 204 121 q 393 54 319 54 m 232 768 l 232 836 l 419 924 l 419 925 l 596 1010 l 596 942 l 419 857 l 419 856 l 232 768 z "},"ď":{"ha":885,"x_min":56,"x_max":913,"o":"m 393 -21 q 216 27 292 -21 q 98 156 140 76 q 56 333 56 237 q 80 470 56 406 q 149 583 104 534 q 256 660 194 632 q 393 688 317 688 q 572 644 499 688 q 688 532 644 601 l 675 515 l 675 1000 l 753 1000 l 753 0 l 675 0 l 675 147 l 688 129 q 575 23 643 66 q 393 -21 507 -21 m 407 54 q 546 89 485 54 q 641 185 606 123 q 675 333 675 248 q 641 482 675 419 q 546 578 606 544 q 407 613 485 613 q 268 578 328 613 q 173 482 208 544 q 139 333 139 419 q 173 185 139 248 q 268 89 208 123 q 407 54 328 54 m 829 731 l 829 1000 l 913 1000 l 883 731 l 829 731 z "},"đ":{"ha":871,"x_min":56,"x_max":849,"o":"m 418 800 l 418 872 l 849 872 l 849 800 l 418 800 m 393 -21 q 216 27 292 -21 q 98 156 140 76 q 56 333 56 237 q 80 470 56 406 q 149 583 104 534 q 256 660 194 632 q 393 688 317 688 q 572 644 499 688 q 688 532 644 601 l 675 515 l 675 1000 l 753 1000 l 753 0 l 675 0 l 675 147 l 688 129 q 575 23 643 66 q 393 -21 507 -21 m 407 54 q 546 89 485 54 q 641 185 606 123 q 675 333 675 248 q 641 482 675 419 q 546 578 606 544 q 407 613 485 613 q 268 578 328 613 q 173 482 208 544 q 139 333 139 419 q 173 185 139 248 q 268 89 208 123 q 407 54 328 54 z "},"ǆ":{"ha":1511,"x_min":56,"x_max":1442,"o":"m 393 -21 q 216 27 292 -21 q 98 156 140 76 q 56 333 56 237 q 80 470 56 406 q 149 583 104 534 q 256 660 194 632 q 393 688 317 688 q 572 644 499 688 q 688 532 644 601 l 675 515 l 675 1000 l 753 1000 l 753 0 l 675 0 l 675 147 l 688 129 q 575 23 643 66 q 393 -21 507 -21 m 407 54 q 546 89 485 54 q 641 185 606 123 q 675 333 675 248 q 641 482 675 419 q 546 578 606 544 q 407 613 485 613 q 268 578 328 613 q 173 482 208 544 q 139 333 139 419 q 173 185 139 248 q 268 89 208 123 q 407 54 328 54 m 940 0 l 940 67 l 1342 594 l 944 594 l 944 667 l 1436 667 l 1436 600 l 1035 72 l 1442 72 l 1442 0 l 940 0 m 1143 813 l 972 1044 l 1056 1044 l 1186 867 l 1324 1044 l 1408 1044 l 1228 813 l 1143 813 z "},"e":{"ha":765,"x_min":56,"x_max":715,"o":"m 410 -21 q 226 23 306 -21 q 101 147 146 67 q 56 331 56 226 q 81 472 56 407 q 153 586 107 538 q 262 661 200 634 q 397 688 324 688 q 535 660 474 688 q 636 583 596 633 q 696 468 677 534 q 707 325 715 402 l 142 325 q 170 183 138 244 q 267 88 203 122 q 419 54 331 54 q 526 73 473 54 q 617 128 579 92 l 662 63 q 585 15 628 34 q 498 -12 543 -3 q 410 -21 453 -21 m 144 397 l 624 397 q 563 556 619 499 q 397 613 506 613 q 224 556 292 613 q 144 397 156 499 z "},"é":{"ha":765,"x_min":56,"x_max":715,"o":"m 410 -21 q 226 23 306 -21 q 101 147 146 67 q 56 331 56 226 q 81 472 56 407 q 153 586 107 538 q 262 661 200 634 q 397 688 324 688 q 535 660 474 688 q 636 583 596 633 q 696 468 677 534 q 707 325 715 402 l 142 325 q 170 183 138 244 q 267 88 203 122 q 419 54 331 54 q 526 73 473 54 q 617 128 579 92 l 662 63 q 585 15 628 34 q 498 -12 543 -3 q 410 -21 453 -21 m 144 397 l 624 397 q 563 556 619 499 q 397 613 506 613 q 224 556 292 613 q 144 397 156 499 m 353 813 l 479 1044 l 563 1044 l 428 813 l 353 813 z "},"ĕ":{"ha":765,"x_min":56,"x_max":715,"o":"m 410 -21 q 226 23 306 -21 q 101 147 146 67 q 56 331 56 226 q 81 472 56 407 q 153 586 107 538 q 262 661 200 634 q 397 688 324 688 q 535 660 474 688 q 636 583 596 633 q 696 468 677 534 q 707 325 715 402 l 142 325 q 170 183 138 244 q 267 88 203 122 q 419 54 331 54 q 526 73 473 54 q 617 128 579 92 l 662 63 q 585 15 628 34 q 498 -12 543 -3 q 410 -21 453 -21 m 144 397 l 624 397 q 563 556 619 499 q 397 613 506 613 q 224 556 292 613 q 144 397 156 499 m 397 806 q 277 837 329 806 q 197 922 225 868 q 171 1044 168 976 l 242 1044 q 282 920 239 967 q 397 872 324 872 q 512 920 470 872 q 550 1044 554 967 l 622 1044 q 595 922 624 976 q 515 837 567 868 q 397 806 463 806 z "},"ě":{"ha":765,"x_min":56,"x_max":715,"o":"m 410 -21 q 226 23 306 -21 q 101 147 146 67 q 56 331 56 226 q 81 472 56 407 q 153 586 107 538 q 262 661 200 634 q 397 688 324 688 q 535 660 474 688 q 636 583 596 633 q 696 468 677 534 q 707 325 715 402 l 142 325 q 170 183 138 244 q 267 88 203 122 q 419 54 331 54 q 526 73 473 54 q 617 128 579 92 l 662 63 q 585 15 628 34 q 498 -12 543 -3 q 410 -21 453 -21 m 144 397 l 624 397 q 563 556 619 499 q 397 613 506 613 q 224 556 292 613 q 144 397 156 499 m 350 813 l 179 1044 l 263 1044 l 393 867 l 531 1044 l 615 1044 l 435 813 l 350 813 z "},"ê":{"ha":765,"x_min":56,"x_max":715,"o":"m 410 -21 q 226 23 306 -21 q 101 147 146 67 q 56 331 56 226 q 81 472 56 407 q 153 586 107 538 q 262 661 200 634 q 397 688 324 688 q 535 660 474 688 q 636 583 596 633 q 696 468 677 534 q 707 325 715 402 l 142 325 q 170 183 138 244 q 267 88 203 122 q 419 54 331 54 q 526 73 473 54 q 617 128 579 92 l 662 63 q 585 15 628 34 q 498 -12 543 -3 q 410 -21 453 -21 m 144 397 l 624 397 q 563 556 619 499 q 397 613 506 613 q 224 556 292 613 q 144 397 156 499 m 179 813 l 360 1044 l 446 1044 l 615 813 l 532 813 l 401 990 l 264 813 l 179 813 z "},"ế":{"ha":765,"x_min":56,"x_max":797,"o":"m 410 -21 q 226 23 306 -21 q 101 147 146 67 q 56 331 56 226 q 81 472 56 407 q 153 586 107 538 q 262 661 200 634 q 397 688 324 688 q 535 660 474 688 q 636 583 596 633 q 696 468 677 534 q 707 325 715 402 l 142 325 q 170 183 138 244 q 267 88 203 122 q 419 54 331 54 q 526 73 473 54 q 617 128 579 92 l 662 63 q 585 15 628 34 q 498 -12 543 -3 q 410 -21 453 -21 m 144 397 l 624 397 q 563 556 619 499 q 397 613 506 613 q 224 556 292 613 q 144 397 156 499 m 179 813 l 360 1044 l 446 1044 l 615 813 l 532 813 l 401 990 l 264 813 l 179 813 m 587 996 l 713 1228 l 797 1228 l 662 996 l 587 996 z "},"ệ":{"ha":765,"x_min":56,"x_max":715,"o":"m 410 -21 q 226 23 306 -21 q 101 147 146 67 q 56 331 56 226 q 81 472 56 407 q 153 586 107 538 q 262 661 200 634 q 397 688 324 688 q 535 660 474 688 q 636 583 596 633 q 696 468 677 534 q 707 325 715 402 l 142 325 q 170 183 138 244 q 267 88 203 122 q 419 54 331 54 q 526 73 473 54 q 617 128 579 92 l 662 63 q 585 15 628 34 q 498 -12 543 -3 q 410 -21 453 -21 m 144 397 l 624 397 q 563 556 619 499 q 397 613 506 613 q 224 556 292 613 q 144 397 156 499 m 386 -328 q 340 -309 359 -328 q 321 -262 321 -290 q 340 -216 321 -235 q 386 -197 359 -197 q 432 -216 413 -197 q 451 -262 451 -235 q 432 -309 451 -290 q 386 -328 413 -328 m 179 813 l 360 1044 l 446 1044 l 615 813 l 532 813 l 401 990 l 264 813 l 179 813 z "},"ề":{"ha":765,"x_min":56,"x_max":715,"o":"m 410 -21 q 226 23 306 -21 q 101 147 146 67 q 56 331 56 226 q 81 472 56 407 q 153 586 107 538 q 262 661 200 634 q 397 688 324 688 q 535 660 474 688 q 636 583 596 633 q 696 468 677 534 q 707 325 715 402 l 142 325 q 170 183 138 244 q 267 88 203 122 q 419 54 331 54 q 526 73 473 54 q 617 128 579 92 l 662 63 q 585 15 628 34 q 498 -12 543 -3 q 410 -21 453 -21 m 144 397 l 624 397 q 563 556 619 499 q 397 613 506 613 q 224 556 292 613 q 144 397 156 499 m 179 813 l 360 1044 l 446 1044 l 615 813 l 532 813 l 401 990 l 264 813 l 179 813 m 590 996 l 456 1228 l 543 1228 l 668 996 l 590 996 z "},"ể":{"ha":765,"x_min":56,"x_max":799,"o":"m 410 -21 q 226 23 306 -21 q 101 147 146 67 q 56 331 56 226 q 81 472 56 407 q 153 586 107 538 q 262 661 200 634 q 397 688 324 688 q 535 660 474 688 q 636 583 596 633 q 696 468 677 534 q 707 325 715 402 l 142 325 q 170 183 138 244 q 267 88 203 122 q 419 54 331 54 q 526 73 473 54 q 617 128 579 92 l 662 63 q 585 15 628 34 q 498 -12 543 -3 q 410 -21 453 -21 m 144 397 l 624 397 q 563 556 619 499 q 397 613 506 613 q 224 556 292 613 q 144 397 156 499 m 179 813 l 360 1044 l 446 1044 l 615 813 l 532 813 l 401 990 l 264 813 l 179 813 m 590 996 q 581 1075 567 1043 q 652 1128 596 1106 q 717 1159 701 1147 q 733 1194 733 1171 q 703 1242 733 1225 q 628 1260 674 1260 q 560 1252 595 1260 q 499 1231 526 1244 l 476 1285 q 551 1310 510 1301 q 633 1318 591 1318 q 752 1286 705 1318 q 799 1207 799 1255 q 778 1144 799 1167 q 701 1096 757 1121 q 645 1056 655 1075 q 653 996 636 1037 l 590 996 z "},"ễ":{"ha":765,"x_min":56,"x_max":715,"o":"m 410 -21 q 226 23 306 -21 q 101 147 146 67 q 56 331 56 226 q 81 472 56 407 q 153 586 107 538 q 262 661 200 634 q 397 688 324 688 q 535 660 474 688 q 636 583 596 633 q 696 468 677 534 q 707 325 715 402 l 142 325 q 170 183 138 244 q 267 88 203 122 q 419 54 331 54 q 526 73 473 54 q 617 128 579 92 l 662 63 q 585 15 628 34 q 498 -12 543 -3 q 410 -21 453 -21 m 144 397 l 624 397 q 563 556 619 499 q 397 613 506 613 q 224 556 292 613 q 144 397 156 499 m 179 813 l 360 1044 l 446 1044 l 615 813 l 532 813 l 401 990 l 264 813 l 179 813 m 211 1181 l 160 1211 q 216 1301 181 1267 q 297 1336 251 1336 q 370 1318 335 1336 q 436 1281 404 1299 q 497 1263 467 1263 q 548 1286 526 1263 q 583 1350 570 1310 l 635 1318 q 577 1227 613 1260 q 497 1194 541 1194 q 425 1213 459 1194 q 359 1249 390 1231 q 297 1267 327 1267 q 247 1244 268 1267 q 211 1181 226 1222 z "},"ȅ":{"ha":765,"x_min":56,"x_max":715,"o":"m 410 -21 q 226 23 306 -21 q 101 147 146 67 q 56 331 56 226 q 81 472 56 407 q 153 586 107 538 q 262 661 200 634 q 397 688 324 688 q 535 660 474 688 q 636 583 596 633 q 696 468 677 534 q 707 325 715 402 l 142 325 q 170 183 138 244 q 267 88 203 122 q 419 54 331 54 q 526 73 473 54 q 617 128 579 92 l 662 63 q 585 15 628 34 q 498 -12 543 -3 q 410 -21 453 -21 m 144 397 l 624 397 q 563 556 619 499 q 397 613 506 613 q 224 556 292 613 q 144 397 156 499 m 478 813 l 343 1044 l 426 1044 l 553 813 l 478 813 m 242 813 l 107 1044 l 190 1044 l 317 813 l 242 813 z "},"ë":{"ha":765,"x_min":56,"x_max":715,"o":"m 410 -21 q 226 23 306 -21 q 101 147 146 67 q 56 331 56 226 q 81 472 56 407 q 153 586 107 538 q 262 661 200 634 q 397 688 324 688 q 535 660 474 688 q 636 583 596 633 q 696 468 677 534 q 707 325 715 402 l 142 325 q 170 183 138 244 q 267 88 203 122 q 419 54 331 54 q 526 73 473 54 q 617 128 579 92 l 662 63 q 585 15 628 34 q 498 -12 543 -3 q 410 -21 453 -21 m 144 397 l 624 397 q 563 556 619 499 q 397 613 506 613 q 224 556 292 613 q 144 397 156 499 m 271 807 q 225 826 244 807 q 206 872 206 845 q 214 905 206 890 q 238 929 223 920 q 271 938 253 938 q 317 918 298 938 q 336 872 336 899 q 327 839 336 854 q 304 816 319 824 q 271 807 289 807 m 524 807 q 477 826 497 807 q 458 872 458 845 q 467 905 458 890 q 491 929 476 920 q 524 938 506 938 q 570 918 551 938 q 589 872 589 899 q 580 839 589 854 q 557 816 572 824 q 524 807 542 807 z "},"ė":{"ha":765,"x_min":56,"x_max":715,"o":"m 410 -21 q 226 23 306 -21 q 101 147 146 67 q 56 331 56 226 q 81 472 56 407 q 153 586 107 538 q 262 661 200 634 q 397 688 324 688 q 535 660 474 688 q 636 583 596 633 q 696 468 677 534 q 707 325 715 402 l 142 325 q 170 183 138 244 q 267 88 203 122 q 419 54 331 54 q 526 73 473 54 q 617 128 579 92 l 662 63 q 585 15 628 34 q 498 -12 543 -3 q 410 -21 453 -21 m 144 397 l 624 397 q 563 556 619 499 q 397 613 506 613 q 224 556 292 613 q 144 397 156 499 m 397 807 q 351 826 370 807 q 332 872 332 845 q 351 918 332 899 q 397 938 370 938 q 443 918 424 938 q 463 872 463 899 q 443 826 463 845 q 397 807 424 807 z "},"ẹ":{"ha":765,"x_min":56,"x_max":715,"o":"m 410 -21 q 226 23 306 -21 q 101 147 146 67 q 56 331 56 226 q 81 472 56 407 q 153 586 107 538 q 262 661 200 634 q 397 688 324 688 q 535 660 474 688 q 636 583 596 633 q 696 468 677 534 q 707 325 715 402 l 142 325 q 170 183 138 244 q 267 88 203 122 q 419 54 331 54 q 526 73 473 54 q 617 128 579 92 l 662 63 q 585 15 628 34 q 498 -12 543 -3 q 410 -21 453 -21 m 144 397 l 624 397 q 563 556 619 499 q 397 613 506 613 q 224 556 292 613 q 144 397 156 499 m 386 -328 q 340 -309 359 -328 q 321 -262 321 -290 q 340 -216 321 -235 q 386 -197 359 -197 q 432 -216 413 -197 q 451 -262 451 -235 q 432 -309 451 -290 q 386 -328 413 -328 z "},"è":{"ha":765,"x_min":56,"x_max":715,"o":"m 410 -21 q 226 23 306 -21 q 101 147 146 67 q 56 331 56 226 q 81 472 56 407 q 153 586 107 538 q 262 661 200 634 q 397 688 324 688 q 535 660 474 688 q 636 583 596 633 q 696 468 677 534 q 707 325 715 402 l 142 325 q 170 183 138 244 q 267 88 203 122 q 419 54 331 54 q 526 73 473 54 q 617 128 579 92 l 662 63 q 585 15 628 34 q 498 -12 543 -3 q 410 -21 453 -21 m 144 397 l 624 397 q 563 556 619 499 q 397 613 506 613 q 224 556 292 613 q 144 397 156 499 m 375 813 l 240 1044 l 328 1044 l 453 813 l 375 813 z "},"ẻ":{"ha":765,"x_min":56,"x_max":715,"o":"m 410 -21 q 226 23 306 -21 q 101 147 146 67 q 56 331 56 226 q 81 472 56 407 q 153 586 107 538 q 262 661 200 634 q 397 688 324 688 q 535 660 474 688 q 636 583 596 633 q 696 468 677 534 q 707 325 715 402 l 142 325 q 170 183 138 244 q 267 88 203 122 q 419 54 331 54 q 526 73 473 54 q 617 128 579 92 l 662 63 q 585 15 628 34 q 498 -12 543 -3 q 410 -21 453 -21 m 144 397 l 624 397 q 563 556 619 499 q 397 613 506 613 q 224 556 292 613 q 144 397 156 499 m 356 813 q 347 891 333 860 q 418 944 362 923 q 483 975 467 963 q 499 1011 499 988 q 469 1059 499 1042 q 394 1076 440 1076 q 326 1069 361 1076 q 265 1047 292 1061 l 242 1101 q 317 1126 276 1118 q 399 1135 357 1135 q 518 1103 471 1135 q 565 1024 565 1072 q 544 960 565 983 q 467 913 523 938 q 411 873 421 892 q 419 813 402 853 l 356 813 z "},"ȇ":{"ha":765,"x_min":56,"x_max":715,"o":"m 410 -21 q 226 23 306 -21 q 101 147 146 67 q 56 331 56 226 q 81 472 56 407 q 153 586 107 538 q 262 661 200 634 q 397 688 324 688 q 535 660 474 688 q 636 583 596 633 q 696 468 677 534 q 707 325 715 402 l 142 325 q 170 183 138 244 q 267 88 203 122 q 419 54 331 54 q 526 73 473 54 q 617 128 579 92 l 662 63 q 585 15 628 34 q 498 -12 543 -3 q 410 -21 453 -21 m 144 397 l 624 397 q 563 556 619 499 q 397 613 506 613 q 224 556 292 613 q 144 397 156 499 m 171 813 q 197 935 168 881 q 277 1020 225 990 q 397 1051 329 1051 q 515 1020 463 1051 q 595 935 567 989 q 622 813 624 881 l 550 813 q 512 937 554 890 q 397 985 470 985 q 282 937 324 985 q 242 813 239 890 l 171 813 z "},"ē":{"ha":765,"x_min":56,"x_max":715,"o":"m 410 -21 q 226 23 306 -21 q 101 147 146 67 q 56 331 56 226 q 81 472 56 407 q 153 586 107 538 q 262 661 200 634 q 397 688 324 688 q 535 660 474 688 q 636 583 596 633 q 696 468 677 534 q 707 325 715 402 l 142 325 q 170 183 138 244 q 267 88 203 122 q 419 54 331 54 q 526 73 473 54 q 617 128 579 92 l 662 63 q 585 15 628 34 q 498 -12 543 -3 q 410 -21 453 -21 m 144 397 l 624 397 q 563 556 619 499 q 397 613 506 613 q 224 556 292 613 q 144 397 156 499 m 197 854 l 197 926 l 597 926 l 597 854 l 197 854 z "},"ę":{"ha":765,"x_min":56,"x_max":715,"o":"m 410 -21 q 226 23 306 -21 q 101 147 146 67 q 56 331 56 226 q 81 472 56 407 q 153 586 107 538 q 262 661 200 634 q 397 688 324 688 q 535 660 474 688 q 636 583 596 633 q 696 468 677 534 q 707 325 715 402 l 142 325 q 170 183 138 244 q 267 88 203 122 q 419 54 331 54 q 526 73 473 54 q 617 128 579 92 l 662 63 q 585 15 628 34 q 498 -12 543 -3 q 410 -21 453 -21 m 144 397 l 624 397 q 563 556 619 499 q 397 613 506 613 q 224 556 292 613 q 144 397 156 499 m 500 -312 q 396 -273 431 -312 q 361 -177 360 -233 q 393 -73 363 -118 q 469 6 423 -28 q 567 63 516 40 l 592 19 q 537 -16 563 2 q 490 -55 510 -34 q 458 -101 469 -76 q 444 -159 446 -126 q 458 -214 444 -191 q 511 -236 473 -236 q 550 -231 531 -236 q 583 -217 568 -226 l 613 -284 q 558 -305 587 -297 q 500 -312 529 -312 z "},"ẽ":{"ha":765,"x_min":56,"x_max":715,"o":"m 410 -21 q 226 23 306 -21 q 101 147 146 67 q 56 331 56 226 q 81 472 56 407 q 153 586 107 538 q 262 661 200 634 q 397 688 324 688 q 535 660 474 688 q 636 583 596 633 q 696 468 677 534 q 707 325 715 402 l 142 325 q 170 183 138 244 q 267 88 203 122 q 419 54 331 54 q 526 73 473 54 q 617 128 579 92 l 662 63 q 585 15 628 34 q 498 -12 543 -3 q 410 -21 453 -21 m 144 397 l 624 397 q 563 556 619 499 q 397 613 506 613 q 224 556 292 613 q 144 397 156 499 m 211 844 l 160 875 q 216 965 181 931 q 297 1000 251 1000 q 370 982 335 1000 q 436 945 404 963 q 497 926 467 926 q 548 950 526 926 q 583 1014 570 974 l 635 982 q 577 891 613 924 q 497 858 541 858 q 425 876 459 858 q 359 913 390 894 q 297 931 327 931 q 247 908 268 931 q 211 844 226 886 z "},"ə":{"ha":764,"x_min":49,"x_max":708,"o":"m 374 -21 q 240 6 301 -21 q 134 81 178 32 q 70 197 90 129 q 58 349 49 265 l 640 349 l 638 276 l 110 276 l 142 304 q 207 120 142 187 q 374 54 272 54 q 509 88 453 54 q 593 187 565 122 q 622 346 622 252 q 589 486 622 426 q 495 579 555 546 q 360 613 436 613 q 240 593 294 613 q 146 538 185 573 l 104 599 q 179 647 138 627 q 265 677 219 667 q 360 688 311 688 q 543 645 465 688 q 665 526 622 603 q 708 346 708 449 q 684 197 708 265 q 615 81 660 130 q 509 6 570 33 q 374 -21 448 -21 z "},"f":{"ha":496,"x_min":42,"x_max":482,"o":"m 194 0 l 194 828 q 245 970 194 919 q 381 1021 297 1021 q 440 1013 415 1021 q 482 994 465 1005 l 460 926 q 419 941 439 937 q 382 946 400 946 q 302 920 334 946 q 271 826 271 894 l 271 667 l 458 667 l 458 594 l 271 594 l 271 0 l 194 0 m 42 594 l 42 667 l 213 667 l 213 594 l 42 594 z "},"g":{"ha":811,"x_min":63,"x_max":779,"o":"m 383 -312 q 249 -299 308 -312 q 148 -259 190 -285 q 84 -197 106 -233 q 63 -117 63 -161 q 82 -48 63 -79 q 141 6 101 -17 q 239 40 180 28 q 176 83 197 59 q 156 139 156 107 q 170 188 156 165 q 214 228 185 210 q 281 258 242 246 q 369 276 321 271 l 396 229 q 313 220 349 229 q 257 195 277 211 q 236 156 236 178 q 270 113 236 124 q 356 97 305 101 l 469 89 q 614 61 556 83 q 703 3 673 40 q 733 -90 733 -35 q 708 -177 733 -137 q 636 -248 683 -218 q 525 -295 590 -278 q 383 -312 461 -312 m 382 -244 q 577 -204 506 -244 q 647 -101 647 -164 q 597 -26 647 -53 q 446 8 546 1 l 328 17 q 231 -3 272 13 q 170 -47 191 -19 q 149 -108 149 -74 q 177 -179 149 -149 q 257 -227 205 -210 q 382 -244 309 -244 m 382 215 q 239 247 303 215 q 136 332 174 278 q 97 451 97 385 q 136 571 97 517 q 239 656 174 624 q 382 688 303 688 q 525 656 460 688 q 628 571 590 624 q 667 451 667 517 q 628 332 667 385 q 525 247 590 278 q 382 215 460 215 m 382 290 q 485 310 441 290 q 555 367 530 331 q 579 451 579 403 q 525 568 579 524 q 382 613 471 613 q 278 592 323 613 q 209 535 234 572 q 185 451 185 499 q 239 335 185 380 q 382 290 294 290 m 490 594 l 463 660 l 779 667 l 778 594 l 490 594 z "},"ğ":{"ha":811,"x_min":63,"x_max":779,"o":"m 383 -312 q 249 -299 308 -312 q 148 -259 190 -285 q 84 -197 106 -233 q 63 -117 63 -161 q 82 -48 63 -79 q 141 6 101 -17 q 239 40 180 28 q 176 83 197 59 q 156 139 156 107 q 170 188 156 165 q 214 228 185 210 q 281 258 242 246 q 369 276 321 271 l 396 229 q 313 220 349 229 q 257 195 277 211 q 236 156 236 178 q 270 113 236 124 q 356 97 305 101 l 469 89 q 614 61 556 83 q 703 3 673 40 q 733 -90 733 -35 q 708 -177 733 -137 q 636 -248 683 -218 q 525 -295 590 -278 q 383 -312 461 -312 m 382 -244 q 577 -204 506 -244 q 647 -101 647 -164 q 597 -26 647 -53 q 446 8 546 1 l 328 17 q 231 -3 272 13 q 170 -47 191 -19 q 149 -108 149 -74 q 177 -179 149 -149 q 257 -227 205 -210 q 382 -244 309 -244 m 382 215 q 239 247 303 215 q 136 332 174 278 q 97 451 97 385 q 136 571 97 517 q 239 656 174 624 q 382 688 303 688 q 525 656 460 688 q 628 571 590 624 q 667 451 667 517 q 628 332 667 385 q 525 247 590 278 q 382 215 460 215 m 382 290 q 485 310 441 290 q 555 367 530 331 q 579 451 579 403 q 525 568 579 524 q 382 613 471 613 q 278 592 323 613 q 209 535 234 572 q 185 451 185 499 q 239 335 185 380 q 382 290 294 290 m 490 594 l 463 660 l 779 667 l 778 594 l 490 594 m 397 806 q 277 837 329 806 q 197 922 225 868 q 171 1044 168 976 l 242 1044 q 282 920 239 967 q 397 872 324 872 q 512 920 470 872 q 550 1044 554 967 l 622 1044 q 595 922 624 976 q 515 837 567 868 q 397 806 463 806 z "},"ǧ":{"ha":811,"x_min":63,"x_max":779,"o":"m 383 -312 q 249 -299 308 -312 q 148 -259 190 -285 q 84 -197 106 -233 q 63 -117 63 -161 q 82 -48 63 -79 q 141 6 101 -17 q 239 40 180 28 q 176 83 197 59 q 156 139 156 107 q 170 188 156 165 q 214 228 185 210 q 281 258 242 246 q 369 276 321 271 l 396 229 q 313 220 349 229 q 257 195 277 211 q 236 156 236 178 q 270 113 236 124 q 356 97 305 101 l 469 89 q 614 61 556 83 q 703 3 673 40 q 733 -90 733 -35 q 708 -177 733 -137 q 636 -248 683 -218 q 525 -295 590 -278 q 383 -312 461 -312 m 382 -244 q 577 -204 506 -244 q 647 -101 647 -164 q 597 -26 647 -53 q 446 8 546 1 l 328 17 q 231 -3 272 13 q 170 -47 191 -19 q 149 -108 149 -74 q 177 -179 149 -149 q 257 -227 205 -210 q 382 -244 309 -244 m 382 215 q 239 247 303 215 q 136 332 174 278 q 97 451 97 385 q 136 571 97 517 q 239 656 174 624 q 382 688 303 688 q 525 656 460 688 q 628 571 590 624 q 667 451 667 517 q 628 332 667 385 q 525 247 590 278 q 382 215 460 215 m 382 290 q 485 310 441 290 q 555 367 530 331 q 579 451 579 403 q 525 568 579 524 q 382 613 471 613 q 278 592 323 613 q 209 535 234 572 q 185 451 185 499 q 239 335 185 380 q 382 290 294 290 m 490 594 l 463 660 l 779 667 l 778 594 l 490 594 m 350 813 l 179 1044 l 263 1044 l 393 867 l 531 1044 l 615 1044 l 435 813 l 350 813 z "},"ĝ":{"ha":811,"x_min":63,"x_max":779,"o":"m 383 -312 q 249 -299 308 -312 q 148 -259 190 -285 q 84 -197 106 -233 q 63 -117 63 -161 q 82 -48 63 -79 q 141 6 101 -17 q 239 40 180 28 q 176 83 197 59 q 156 139 156 107 q 170 188 156 165 q 214 228 185 210 q 281 258 242 246 q 369 276 321 271 l 396 229 q 313 220 349 229 q 257 195 277 211 q 236 156 236 178 q 270 113 236 124 q 356 97 305 101 l 469 89 q 614 61 556 83 q 703 3 673 40 q 733 -90 733 -35 q 708 -177 733 -137 q 636 -248 683 -218 q 525 -295 590 -278 q 383 -312 461 -312 m 382 -244 q 577 -204 506 -244 q 647 -101 647 -164 q 597 -26 647 -53 q 446 8 546 1 l 328 17 q 231 -3 272 13 q 170 -47 191 -19 q 149 -108 149 -74 q 177 -179 149 -149 q 257 -227 205 -210 q 382 -244 309 -244 m 382 215 q 239 247 303 215 q 136 332 174 278 q 97 451 97 385 q 136 571 97 517 q 239 656 174 624 q 382 688 303 688 q 525 656 460 688 q 628 571 590 624 q 667 451 667 517 q 628 332 667 385 q 525 247 590 278 q 382 215 460 215 m 382 290 q 485 310 441 290 q 555 367 530 331 q 579 451 579 403 q 525 568 579 524 q 382 613 471 613 q 278 592 323 613 q 209 535 234 572 q 185 451 185 499 q 239 335 185 380 q 382 290 294 290 m 490 594 l 463 660 l 779 667 l 778 594 l 490 594 m 179 813 l 360 1044 l 446 1044 l 615 813 l 532 813 l 401 990 l 264 813 l 179 813 z "},"ģ":{"ha":811,"x_min":63,"x_max":779,"o":"m 383 -312 q 249 -299 308 -312 q 148 -259 190 -285 q 84 -197 106 -233 q 63 -117 63 -161 q 82 -48 63 -79 q 141 6 101 -17 q 239 40 180 28 q 176 83 197 59 q 156 139 156 107 q 170 188 156 165 q 214 228 185 210 q 281 258 242 246 q 369 276 321 271 l 396 229 q 313 220 349 229 q 257 195 277 211 q 236 156 236 178 q 270 113 236 124 q 356 97 305 101 l 469 89 q 614 61 556 83 q 703 3 673 40 q 733 -90 733 -35 q 708 -177 733 -137 q 636 -248 683 -218 q 525 -295 590 -278 q 383 -312 461 -312 m 382 -244 q 577 -204 506 -244 q 647 -101 647 -164 q 597 -26 647 -53 q 446 8 546 1 l 328 17 q 231 -3 272 13 q 170 -47 191 -19 q 149 -108 149 -74 q 177 -179 149 -149 q 257 -227 205 -210 q 382 -244 309 -244 m 382 215 q 239 247 303 215 q 136 332 174 278 q 97 451 97 385 q 136 571 97 517 q 239 656 174 624 q 382 688 303 688 q 525 656 460 688 q 628 571 590 624 q 667 451 667 517 q 628 332 667 385 q 525 247 590 278 q 382 215 460 215 m 382 290 q 485 310 441 290 q 555 367 530 331 q 579 451 579 403 q 525 568 579 524 q 382 613 471 613 q 278 592 323 613 q 209 535 234 572 q 185 451 185 499 q 239 335 185 380 q 382 290 294 290 m 490 594 l 463 660 l 779 667 l 778 594 l 490 594 m 399 864 q 348 885 367 864 q 329 942 329 906 q 344 1007 329 975 q 389 1068 360 1039 q 461 1125 419 1098 l 497 1086 q 430 1039 461 1065 q 394 989 399 1013 q 429 982 414 990 q 453 959 444 974 q 463 924 463 944 q 444 881 463 899 q 399 864 426 864 z "},"ġ":{"ha":811,"x_min":63,"x_max":779,"o":"m 383 -312 q 249 -299 308 -312 q 148 -259 190 -285 q 84 -197 106 -233 q 63 -117 63 -161 q 82 -48 63 -79 q 141 6 101 -17 q 239 40 180 28 q 176 83 197 59 q 156 139 156 107 q 170 188 156 165 q 214 228 185 210 q 281 258 242 246 q 369 276 321 271 l 396 229 q 313 220 349 229 q 257 195 277 211 q 236 156 236 178 q 270 113 236 124 q 356 97 305 101 l 469 89 q 614 61 556 83 q 703 3 673 40 q 733 -90 733 -35 q 708 -177 733 -137 q 636 -248 683 -218 q 525 -295 590 -278 q 383 -312 461 -312 m 382 -244 q 577 -204 506 -244 q 647 -101 647 -164 q 597 -26 647 -53 q 446 8 546 1 l 328 17 q 231 -3 272 13 q 170 -47 191 -19 q 149 -108 149 -74 q 177 -179 149 -149 q 257 -227 205 -210 q 382 -244 309 -244 m 382 215 q 239 247 303 215 q 136 332 174 278 q 97 451 97 385 q 136 571 97 517 q 239 656 174 624 q 382 688 303 688 q 525 656 460 688 q 628 571 590 624 q 667 451 667 517 q 628 332 667 385 q 525 247 590 278 q 382 215 460 215 m 382 290 q 485 310 441 290 q 555 367 530 331 q 579 451 579 403 q 525 568 579 524 q 382 613 471 613 q 278 592 323 613 q 209 535 234 572 q 185 451 185 499 q 239 335 185 380 q 382 290 294 290 m 490 594 l 463 660 l 779 667 l 778 594 l 490 594 m 397 807 q 351 826 370 807 q 332 872 332 845 q 351 918 332 899 q 397 938 370 938 q 443 918 424 938 q 463 872 463 899 q 443 826 463 845 q 397 807 424 807 z "},"h":{"ha":801,"x_min":118,"x_max":690,"o":"m 118 0 l 118 1000 l 196 1000 l 196 544 l 181 557 q 292 658 226 628 q 425 688 358 688 q 572 651 513 688 q 661 560 631 615 q 690 449 690 505 l 690 0 l 613 0 l 613 425 q 558 560 613 508 q 411 613 503 613 q 302 585 351 613 q 225 509 253 558 q 196 396 196 460 l 196 0 l 118 0 z "},"ħ":{"ha":801,"x_min":22,"x_max":690,"o":"m 118 0 l 118 1000 l 196 1000 l 196 544 l 181 557 q 292 658 226 628 q 425 688 358 688 q 572 651 513 688 q 661 560 631 615 q 690 449 690 505 l 690 0 l 613 0 l 613 425 q 558 560 613 508 q 411 613 503 613 q 302 585 351 613 q 225 509 253 558 q 196 396 196 460 l 196 0 l 118 0 m 22 800 l 22 872 l 453 872 l 453 800 l 22 800 z "},"ĥ":{"ha":801,"x_min":-68,"x_max":690,"o":"m 118 0 l 118 1000 l 196 1000 l 196 544 l 181 557 q 292 658 226 628 q 425 688 358 688 q 572 651 513 688 q 661 560 631 615 q 690 449 690 505 l 690 0 l 613 0 l 613 425 q 558 560 613 508 q 411 613 503 613 q 302 585 351 613 q 225 509 253 558 q 196 396 196 460 l 196 0 l 118 0 m -68 1135 l 119 1351 l 207 1351 l 382 1135 l 299 1135 l 161 1299 l 18 1135 l -68 1135 z "},"i":{"ha":314,"x_min":92,"x_max":222,"o":"m 118 0 l 118 667 l 196 667 l 196 0 l 118 0 m 157 807 q 111 826 130 807 q 92 872 92 845 q 111 918 92 899 q 157 938 130 938 q 203 918 184 938 q 222 872 222 899 q 203 826 222 845 q 157 807 184 807 z "},"ı":{"ha":314,"x_min":118,"x_max":196,"o":"m 118 0 l 118 667 l 196 667 l 196 0 l 118 0 z "},"í":{"ha":314,"x_min":114,"x_max":308,"o":"m 118 0 l 118 667 l 196 667 l 196 0 l 118 0 m 114 813 l 225 1044 l 308 1044 l 188 813 l 114 813 z "},"ĭ":{"ha":314,"x_min":-42,"x_max":354,"o":"m 118 0 l 118 667 l 196 667 l 196 0 l 118 0 m 157 806 q 53 837 98 806 q -17 922 8 868 q -40 1044 -42 976 l 29 1044 q 62 920 26 967 q 157 872 98 872 q 251 920 215 872 q 282 1044 286 967 l 353 1044 q 329 922 354 976 q 259 837 304 868 q 157 806 215 806 z "},"î":{"ha":314,"x_min":-35,"x_max":350,"o":"m 118 0 l 118 667 l 196 667 l 196 0 l 118 0 m -35 813 l 121 1044 l 203 1044 l 350 813 l 268 813 l 160 990 l 47 813 l -35 813 z "},"ȉ":{"ha":314,"x_min":-57,"x_max":290,"o":"m 118 0 l 118 667 l 196 667 l 196 0 l 118 0 m 290 813 l 217 813 l 133 1044 l 215 1044 l 290 813 m 99 813 l 26 813 l -57 1044 l 24 1044 l 99 813 z "},"ï":{"ha":314,"x_min":0,"x_max":314,"o":"m 118 0 l 118 667 l 196 667 l 196 0 l 118 0 m 65 807 q 19 826 38 807 q 0 872 0 845 q 19 918 0 899 q 65 938 38 938 q 111 918 92 938 q 131 872 131 899 q 111 826 131 845 q 65 807 92 807 m 249 807 q 202 826 222 807 q 183 872 183 845 q 202 918 183 899 q 249 938 222 938 q 295 918 276 938 q 314 872 314 899 q 295 826 314 845 q 249 807 276 807 z "},"ị":{"ha":314,"x_min":92,"x_max":222,"o":"m 118 0 l 118 667 l 196 667 l 196 0 l 118 0 m 157 807 q 111 826 130 807 q 92 872 92 845 q 111 918 92 899 q 157 938 130 938 q 203 918 184 938 q 222 872 222 899 q 203 826 222 845 q 157 807 184 807 m 157 -328 q 111 -309 130 -328 q 92 -262 92 -290 q 111 -216 92 -235 q 157 -197 130 -197 q 203 -216 184 -197 q 222 -262 222 -235 q 203 -309 222 -290 q 157 -328 184 -328 z "},"ì":{"ha":314,"x_min":14,"x_max":210,"o":"m 118 0 l 118 667 l 196 667 l 196 0 l 118 0 m 133 813 l 14 1044 l 100 1044 l 210 813 l 133 813 z "},"ỉ":{"ha":314,"x_min":18,"x_max":307,"o":"m 118 0 l 118 667 l 196 667 l 196 0 l 118 0 m 118 813 q 110 892 97 860 q 172 944 124 923 q 228 975 214 963 q 242 1011 242 988 q 216 1059 242 1042 q 151 1076 190 1076 q 93 1069 124 1076 q 39 1047 62 1061 l 18 1101 q 85 1126 49 1118 q 158 1135 122 1135 q 265 1103 222 1135 q 307 1024 307 1072 q 289 961 307 984 q 221 913 270 938 q 173 873 181 892 q 179 813 164 853 l 118 813 z "},"ȋ":{"ha":314,"x_min":-42,"x_max":354,"o":"m 118 0 l 118 667 l 196 667 l 196 0 l 118 0 m -40 813 q -17 935 -42 881 q 53 1020 8 990 q 157 1051 98 1051 q 259 1020 215 1051 q 329 935 304 989 q 353 813 354 881 l 282 813 q 251 937 286 890 q 157 985 215 985 q 62 937 98 985 q 29 813 26 890 l -40 813 z "},"ĳ":{"ha":628,"x_min":92,"x_max":536,"o":"m 118 0 l 118 667 l 196 667 l 196 0 l 118 0 m 157 807 q 111 826 130 807 q 92 872 92 845 q 111 918 92 899 q 157 938 130 938 q 203 918 184 938 q 222 872 222 899 q 203 826 222 845 q 157 807 184 807 m 351 -312 q 285 -304 315 -312 q 235 -285 256 -295 l 261 -218 q 295 -232 278 -226 q 340 -237 313 -237 q 412 -208 392 -237 q 432 -121 432 -178 l 432 667 l 510 667 l 510 -135 q 491 -231 510 -191 q 436 -291 472 -270 q 351 -312 401 -312 m 471 807 q 425 826 444 807 q 406 872 406 845 q 425 918 406 899 q 471 938 444 938 q 517 918 498 938 q 536 872 536 899 q 517 826 536 845 q 471 807 498 807 z "},"ī":{"ha":314,"x_min":-17,"x_max":332,"o":"m 118 0 l 118 667 l 196 667 l 196 0 l 118 0 m -17 854 l -17 926 l 332 926 l 332 854 l -17 854 z "},"į":{"ha":314,"x_min":-56,"x_max":222,"o":"m 118 0 l 118 667 l 196 667 l 196 0 l 118 0 m 157 807 q 111 826 130 807 q 92 872 92 845 q 111 918 92 899 q 157 938 130 938 q 203 918 184 938 q 222 872 222 899 q 203 826 222 845 q 157 807 184 807 m 84 -312 q -20 -273 15 -312 q -55 -177 -56 -233 q -22 -73 -53 -118 q 59 2 9 -28 q 167 47 109 33 l 195 0 q 109 -34 147 -13 q 51 -85 72 -55 q 28 -159 30 -116 q 42 -214 28 -191 q 95 -236 57 -236 q 134 -231 115 -236 q 167 -217 152 -226 l 197 -284 q 142 -305 171 -297 q 84 -312 113 -312 z "},"ĩ":{"ha":314,"x_min":-50,"x_max":363,"o":"m 118 0 l 118 667 l 196 667 l 196 0 l 118 0 m -4 844 l -50 875 q -1 965 -31 931 q 71 1000 29 1000 q 134 982 104 1000 q 190 945 163 963 q 243 926 217 926 q 286 950 267 926 q 317 1014 306 974 l 363 982 q 314 891 345 924 q 243 858 282 858 q 180 876 210 858 q 124 913 151 894 q 71 931 97 931 q 27 907 45 931 q -4 844 8 884 z "},"j":{"ha":314,"x_min":-79,"x_max":222,"o":"m 38 -312 q -28 -304 1 -312 q -79 -285 -58 -295 l -53 -218 q -19 -232 -36 -226 q 26 -237 -1 -237 q 98 -208 78 -237 q 118 -121 118 -178 l 118 667 l 196 667 l 196 -135 q 177 -231 196 -191 q 122 -291 158 -270 q 38 -312 87 -312 m 157 807 q 111 826 130 807 q 92 872 92 845 q 111 918 92 899 q 157 938 130 938 q 203 918 184 938 q 222 872 222 899 q 203 826 222 845 q 157 807 184 807 z "},"ȷ":{"ha":314,"x_min":-79,"x_max":196,"o":"m 38 -312 q -28 -304 1 -312 q -79 -285 -58 -295 l -53 -218 q -19 -232 -36 -226 q 26 -237 -1 -237 q 98 -208 78 -237 q 118 -121 118 -178 l 118 667 l 196 667 l 196 -135 q 177 -231 196 -191 q 122 -291 158 -270 q 38 -312 87 -312 z "},"ĵ":{"ha":314,"x_min":-79,"x_max":350,"o":"m 38 -312 q -28 -304 1 -312 q -79 -285 -58 -295 l -53 -218 q -19 -232 -36 -226 q 26 -237 -1 -237 q 98 -208 78 -237 q 118 -121 118 -178 l 118 667 l 196 667 l 196 -135 q 177 -231 196 -191 q 122 -291 158 -270 q 38 -312 87 -312 m -35 813 l 121 1044 l 203 1044 l 350 813 l 268 813 l 160 990 l 47 813 l -35 813 z "},"k":{"ha":713,"x_min":118,"x_max":671,"o":"m 118 0 l 118 1000 l 196 1000 l 196 343 l 524 667 l 621 667 l 383 426 l 671 0 l 574 0 l 326 376 l 196 247 l 196 0 l 118 0 z "},"ķ":{"ha":713,"x_min":118,"x_max":671,"o":"m 118 0 l 118 1000 l 196 1000 l 196 343 l 524 667 l 621 667 l 383 426 l 671 0 l 574 0 l 326 376 l 196 247 l 196 0 l 118 0 m 320 -453 l 283 -410 q 352 -366 322 -391 q 390 -317 383 -340 q 353 -311 369 -318 q 326 -290 336 -303 q 317 -258 317 -276 q 336 -215 317 -232 q 385 -197 356 -197 q 439 -218 419 -197 q 459 -278 459 -240 q 443 -339 459 -308 q 395 -400 426 -370 q 320 -453 364 -429 z "},"ĸ":{"ha":713,"x_min":118,"x_max":671,"o":"m 118 0 l 118 667 l 196 667 l 196 343 l 524 667 l 621 667 l 383 426 l 671 0 l 574 0 l 326 376 l 196 247 l 196 0 l 118 0 z "},"l":{"ha":314,"x_min":118,"x_max":196,"o":"m 118 0 l 118 1000 l 196 1000 l 196 0 l 118 0 z "},"ĺ":{"ha":314,"x_min":113,"x_max":328,"o":"m 118 0 l 118 1000 l 196 1000 l 196 0 l 118 0 m 113 1135 l 244 1351 l 328 1351 l 188 1135 l 113 1135 z "},"ľ":{"ha":328,"x_min":118,"x_max":356,"o":"m 118 0 l 118 1000 l 196 1000 l 196 0 l 118 0 m 272 731 l 272 1000 l 356 1000 l 326 731 l 272 731 z "},"ļ":{"ha":314,"x_min":53,"x_max":230,"o":"m 118 0 l 118 1000 l 196 1000 l 196 0 l 118 0 m 91 -453 l 53 -410 q 123 -366 93 -391 q 160 -317 153 -340 q 124 -311 140 -318 q 97 -290 107 -303 q 88 -258 88 -276 q 107 -215 88 -232 q 156 -197 126 -197 q 210 -218 190 -197 q 230 -278 230 -240 q 214 -339 230 -308 q 166 -400 197 -370 q 91 -453 135 -429 z "},"ŀ":{"ha":439,"x_min":118,"x_max":453,"o":"m 118 0 l 118 1000 l 196 1000 l 196 0 l 118 0 m 376 382 q 322 402 344 382 q 300 454 300 423 q 310 491 300 475 q 338 517 320 508 q 376 526 355 526 q 431 506 409 526 q 453 454 453 485 q 443 417 453 433 q 415 391 433 401 q 376 382 398 382 z "},"ǉ":{"ha":628,"x_min":118,"x_max":536,"o":"m 118 0 l 118 1000 l 196 1000 l 196 0 l 118 0 m 351 -312 q 285 -304 315 -312 q 235 -285 256 -295 l 261 -218 q 295 -232 278 -226 q 340 -237 313 -237 q 412 -208 392 -237 q 432 -121 432 -178 l 432 667 l 510 667 l 510 -135 q 491 -231 510 -191 q 436 -291 472 -270 q 351 -312 401 -312 m 471 807 q 425 826 444 807 q 406 872 406 845 q 425 918 406 899 q 471 938 444 938 q 517 918 498 938 q 536 872 536 899 q 517 826 536 845 q 471 807 498 807 z "},"ł":{"ha":411,"x_min":33,"x_max":378,"o":"m 58 349 l 33 406 l 206 486 l 206 479 l 352 548 l 378 492 l 206 411 l 206 418 l 58 349 m 167 0 l 167 1000 l 244 1000 l 244 0 l 167 0 z "},"m":{"ha":1263,"x_min":118,"x_max":1151,"o":"m 118 0 l 118 667 l 196 667 l 196 565 q 264 636 226 610 q 342 675 301 663 q 425 688 383 688 q 571 649 516 688 q 651 554 626 610 q 778 662 712 637 q 903 688 844 688 q 1046 651 991 688 q 1126 560 1101 615 q 1151 449 1151 505 l 1151 0 l 1074 0 l 1074 425 q 1027 560 1074 508 q 889 613 981 613 q 780 585 829 613 q 702 509 731 558 q 674 396 674 460 l 674 0 l 596 0 l 596 425 q 549 560 596 508 q 411 613 503 613 q 302 585 351 613 q 225 509 253 558 q 196 396 196 460 l 196 0 l 118 0 z "},"n":{"ha":801,"x_min":118,"x_max":690,"o":"m 118 0 l 118 667 l 196 667 l 196 567 q 302 659 242 631 q 425 688 363 688 q 572 651 513 688 q 661 560 631 615 q 690 449 690 505 l 690 0 l 613 0 l 613 425 q 558 560 613 508 q 411 613 503 613 q 302 585 351 613 q 225 509 253 558 q 196 396 196 460 l 196 0 l 118 0 z "},"ń":{"ha":801,"x_min":118,"x_max":690,"o":"m 118 0 l 118 667 l 196 667 l 196 567 q 302 659 242 631 q 425 688 363 688 q 572 651 513 688 q 661 560 631 615 q 690 449 690 505 l 690 0 l 613 0 l 613 425 q 558 560 613 508 q 411 613 503 613 q 302 585 351 613 q 225 509 253 558 q 196 396 196 460 l 196 0 l 118 0 m 367 813 l 493 1044 l 576 1044 l 442 813 l 367 813 z "},"ň":{"ha":801,"x_min":118,"x_max":690,"o":"m 118 0 l 118 667 l 196 667 l 196 567 q 302 659 242 631 q 425 688 363 688 q 572 651 513 688 q 661 560 631 615 q 690 449 690 505 l 690 0 l 613 0 l 613 425 q 558 560 613 508 q 411 613 503 613 q 302 585 351 613 q 225 509 253 558 q 196 396 196 460 l 196 0 l 118 0 m 364 813 l 193 1044 l 276 1044 l 407 867 l 544 1044 l 629 1044 l 449 813 l 364 813 z "},"ņ":{"ha":801,"x_min":118,"x_max":690,"o":"m 118 0 l 118 667 l 196 667 l 196 567 q 302 659 242 631 q 425 688 363 688 q 572 651 513 688 q 661 560 631 615 q 690 449 690 505 l 690 0 l 613 0 l 613 425 q 558 560 613 508 q 411 613 503 613 q 302 585 351 613 q 225 509 253 558 q 196 396 196 460 l 196 0 l 118 0 m 338 -453 l 301 -410 q 370 -366 340 -391 q 408 -317 401 -340 q 371 -311 388 -318 q 344 -290 354 -303 q 335 -258 335 -276 q 354 -215 335 -232 q 403 -197 374 -197 q 457 -218 437 -197 q 477 -278 477 -240 q 461 -339 477 -308 q 413 -400 444 -370 q 338 -453 382 -429 z "},"ǌ":{"ha":1115,"x_min":118,"x_max":1024,"o":"m 118 0 l 118 667 l 196 667 l 196 567 q 302 659 242 631 q 425 688 363 688 q 572 651 513 688 q 661 560 631 615 q 690 449 690 505 l 690 0 l 613 0 l 613 425 q 558 560 613 508 q 411 613 503 613 q 302 585 351 613 q 225 509 253 558 q 196 396 196 460 l 196 0 l 118 0 m 839 -312 q 773 -304 803 -312 q 722 -285 743 -295 l 749 -218 q 783 -232 765 -226 q 828 -237 800 -237 q 900 -208 880 -237 q 919 -121 919 -178 l 919 667 l 997 667 l 997 -135 q 978 -231 997 -191 q 924 -291 959 -270 q 839 -312 888 -312 m 958 807 q 912 826 931 807 q 893 872 893 845 q 912 918 893 899 q 958 938 931 938 q 1005 918 985 938 q 1024 872 1024 899 q 1005 826 1024 845 q 958 807 985 807 z "},"ñ":{"ha":801,"x_min":118,"x_max":690,"o":"m 118 0 l 118 667 l 196 667 l 196 567 q 302 659 242 631 q 425 688 363 688 q 572 651 513 688 q 661 560 631 615 q 690 449 690 505 l 690 0 l 613 0 l 613 425 q 558 560 613 508 q 411 613 503 613 q 302 585 351 613 q 225 509 253 558 q 196 396 196 460 l 196 0 l 118 0 m 225 844 l 174 875 q 230 965 194 931 q 311 1000 265 1000 q 384 982 349 1000 q 450 945 418 963 q 511 926 481 926 q 562 950 540 926 q 597 1014 584 974 l 649 982 q 591 891 627 924 q 511 858 555 858 q 439 876 473 858 q 373 913 404 894 q 311 931 341 931 q 261 908 282 931 q 225 844 240 886 z "},"ŋ":{"ha":796,"x_min":118,"x_max":685,"o":"m 526 -312 q 461 -304 491 -312 q 410 -285 431 -295 l 436 -218 q 470 -232 453 -226 q 515 -237 488 -237 q 587 -208 567 -237 q 607 -121 607 -178 l 607 425 q 553 560 607 508 q 408 613 499 613 q 301 585 349 613 q 224 509 253 558 q 196 396 196 460 l 196 0 l 118 0 l 118 667 l 196 667 l 196 567 q 301 659 241 631 q 422 688 361 688 q 568 651 510 688 q 656 560 626 615 q 685 449 685 505 l 685 -135 q 666 -231 685 -191 q 611 -291 647 -270 q 526 -312 576 -312 z "},"o":{"ha":814,"x_min":56,"x_max":758,"o":"m 407 -21 q 227 27 306 -21 q 101 156 147 76 q 56 333 56 237 q 82 470 56 406 q 156 583 108 534 q 267 660 203 632 q 407 688 331 688 q 587 639 508 688 q 713 510 667 591 q 758 333 758 430 q 732 197 758 261 q 658 84 706 133 q 547 7 611 35 q 407 -21 483 -21 m 407 54 q 546 89 485 54 q 641 185 606 123 q 675 333 675 248 q 641 482 675 419 q 546 578 606 544 q 407 613 485 613 q 268 578 328 613 q 173 482 208 544 q 139 333 139 419 q 173 185 139 248 q 268 89 208 123 q 407 54 328 54 z "},"ó":{"ha":814,"x_min":56,"x_max":758,"o":"m 407 -21 q 227 27 306 -21 q 101 156 147 76 q 56 333 56 237 q 82 470 56 406 q 156 583 108 534 q 267 660 203 632 q 407 688 331 688 q 587 639 508 688 q 713 510 667 591 q 758 333 758 430 q 732 197 758 261 q 658 84 706 133 q 547 7 611 35 q 407 -21 483 -21 m 407 54 q 546 89 485 54 q 641 185 606 123 q 675 333 675 248 q 641 482 675 419 q 546 578 606 544 q 407 613 485 613 q 268 578 328 613 q 173 482 208 544 q 139 333 139 419 q 173 185 139 248 q 268 89 208 123 q 407 54 328 54 m 363 813 l 489 1044 l 572 1044 l 438 813 l 363 813 z "},"ŏ":{"ha":814,"x_min":56,"x_max":758,"o":"m 407 -21 q 227 27 306 -21 q 101 156 147 76 q 56 333 56 237 q 82 470 56 406 q 156 583 108 534 q 267 660 203 632 q 407 688 331 688 q 587 639 508 688 q 713 510 667 591 q 758 333 758 430 q 732 197 758 261 q 658 84 706 133 q 547 7 611 35 q 407 -21 483 -21 m 407 54 q 546 89 485 54 q 641 185 606 123 q 675 333 675 248 q 641 482 675 419 q 546 578 606 544 q 407 613 485 613 q 268 578 328 613 q 173 482 208 544 q 139 333 139 419 q 173 185 139 248 q 268 89 208 123 q 407 54 328 54 m 407 806 q 287 837 339 806 q 206 922 235 868 q 181 1044 178 976 l 251 1044 q 291 920 249 967 q 407 872 334 872 q 522 920 480 872 q 560 1044 564 967 l 632 1044 q 605 922 634 976 q 525 837 576 868 q 407 806 473 806 z "},"ô":{"ha":814,"x_min":56,"x_max":758,"o":"m 407 -21 q 227 27 306 -21 q 101 156 147 76 q 56 333 56 237 q 82 470 56 406 q 156 583 108 534 q 267 660 203 632 q 407 688 331 688 q 587 639 508 688 q 713 510 667 591 q 758 333 758 430 q 732 197 758 261 q 658 84 706 133 q 547 7 611 35 q 407 -21 483 -21 m 407 54 q 546 89 485 54 q 641 185 606 123 q 675 333 675 248 q 641 482 675 419 q 546 578 606 544 q 407 613 485 613 q 268 578 328 613 q 173 482 208 544 q 139 333 139 419 q 173 185 139 248 q 268 89 208 123 q 407 54 328 54 m 189 813 l 369 1044 l 456 1044 l 625 813 l 542 813 l 411 990 l 274 813 l 189 813 z "},"ố":{"ha":814,"x_min":56,"x_max":806,"o":"m 407 -21 q 227 27 306 -21 q 101 156 147 76 q 56 333 56 237 q 82 470 56 406 q 156 583 108 534 q 267 660 203 632 q 407 688 331 688 q 587 639 508 688 q 713 510 667 591 q 758 333 758 430 q 732 197 758 261 q 658 84 706 133 q 547 7 611 35 q 407 -21 483 -21 m 407 54 q 546 89 485 54 q 641 185 606 123 q 675 333 675 248 q 641 482 675 419 q 546 578 606 544 q 407 613 485 613 q 268 578 328 613 q 173 482 208 544 q 139 333 139 419 q 173 185 139 248 q 268 89 208 123 q 407 54 328 54 m 189 813 l 369 1044 l 456 1044 l 625 813 l 542 813 l 411 990 l 274 813 l 189 813 m 597 996 l 723 1228 l 806 1228 l 672 996 l 597 996 z "},"ộ":{"ha":814,"x_min":56,"x_max":758,"o":"m 407 -21 q 227 27 306 -21 q 101 156 147 76 q 56 333 56 237 q 82 470 56 406 q 156 583 108 534 q 267 660 203 632 q 407 688 331 688 q 587 639 508 688 q 713 510 667 591 q 758 333 758 430 q 732 197 758 261 q 658 84 706 133 q 547 7 611 35 q 407 -21 483 -21 m 407 54 q 546 89 485 54 q 641 185 606 123 q 675 333 675 248 q 641 482 675 419 q 546 578 606 544 q 407 613 485 613 q 268 578 328 613 q 173 482 208 544 q 139 333 139 419 q 173 185 139 248 q 268 89 208 123 q 407 54 328 54 m 407 -328 q 361 -309 380 -328 q 342 -262 342 -290 q 361 -216 342 -235 q 407 -197 380 -197 q 453 -216 434 -197 q 472 -262 472 -235 q 453 -309 472 -290 q 407 -328 434 -328 m 189 813 l 369 1044 l 456 1044 l 625 813 l 542 813 l 411 990 l 274 813 l 189 813 z "},"ồ":{"ha":814,"x_min":56,"x_max":758,"o":"m 407 -21 q 227 27 306 -21 q 101 156 147 76 q 56 333 56 237 q 82 470 56 406 q 156 583 108 534 q 267 660 203 632 q 407 688 331 688 q 587 639 508 688 q 713 510 667 591 q 758 333 758 430 q 732 197 758 261 q 658 84 706 133 q 547 7 611 35 q 407 -21 483 -21 m 407 54 q 546 89 485 54 q 641 185 606 123 q 675 333 675 248 q 641 482 675 419 q 546 578 606 544 q 407 613 485 613 q 268 578 328 613 q 173 482 208 544 q 139 333 139 419 q 173 185 139 248 q 268 89 208 123 q 407 54 328 54 m 189 813 l 369 1044 l 456 1044 l 625 813 l 542 813 l 411 990 l 274 813 l 189 813 m 600 996 l 465 1228 l 553 1228 l 678 996 l 600 996 z "},"ổ":{"ha":814,"x_min":56,"x_max":809,"o":"m 407 -21 q 227 27 306 -21 q 101 156 147 76 q 56 333 56 237 q 82 470 56 406 q 156 583 108 534 q 267 660 203 632 q 407 688 331 688 q 587 639 508 688 q 713 510 667 591 q 758 333 758 430 q 732 197 758 261 q 658 84 706 133 q 547 7 611 35 q 407 -21 483 -21 m 407 54 q 546 89 485 54 q 641 185 606 123 q 675 333 675 248 q 641 482 675 419 q 546 578 606 544 q 407 613 485 613 q 268 578 328 613 q 173 482 208 544 q 139 333 139 419 q 173 185 139 248 q 268 89 208 123 q 407 54 328 54 m 189 813 l 369 1044 l 456 1044 l 625 813 l 542 813 l 411 990 l 274 813 l 189 813 m 599 996 q 591 1075 576 1043 q 662 1128 606 1106 q 727 1159 711 1147 q 742 1194 742 1171 q 713 1242 742 1225 q 638 1260 683 1260 q 570 1252 605 1260 q 509 1231 535 1244 l 485 1285 q 560 1310 520 1301 q 642 1318 601 1318 q 762 1286 715 1318 q 809 1207 809 1255 q 788 1144 809 1167 q 710 1096 767 1121 q 655 1056 665 1075 q 663 996 646 1037 l 599 996 z "},"ỗ":{"ha":814,"x_min":56,"x_max":758,"o":"m 407 -21 q 227 27 306 -21 q 101 156 147 76 q 56 333 56 237 q 82 470 56 406 q 156 583 108 534 q 267 660 203 632 q 407 688 331 688 q 587 639 508 688 q 713 510 667 591 q 758 333 758 430 q 732 197 758 261 q 658 84 706 133 q 547 7 611 35 q 407 -21 483 -21 m 407 54 q 546 89 485 54 q 641 185 606 123 q 675 333 675 248 q 641 482 675 419 q 546 578 606 544 q 407 613 485 613 q 268 578 328 613 q 173 482 208 544 q 139 333 139 419 q 173 185 139 248 q 268 89 208 123 q 407 54 328 54 m 189 813 l 369 1044 l 456 1044 l 625 813 l 542 813 l 411 990 l 274 813 l 189 813 m 221 1181 l 169 1211 q 225 1301 190 1267 q 307 1336 260 1336 q 380 1318 345 1336 q 445 1281 414 1299 q 507 1263 477 1263 q 558 1286 536 1263 q 593 1350 580 1310 l 644 1318 q 587 1227 623 1260 q 507 1194 551 1194 q 434 1213 469 1194 q 368 1249 400 1231 q 307 1267 337 1267 q 257 1244 278 1267 q 221 1181 235 1222 z "},"ȍ":{"ha":814,"x_min":56,"x_max":758,"o":"m 407 -21 q 227 27 306 -21 q 101 156 147 76 q 56 333 56 237 q 82 470 56 406 q 156 583 108 534 q 267 660 203 632 q 407 688 331 688 q 587 639 508 688 q 713 510 667 591 q 758 333 758 430 q 732 197 758 261 q 658 84 706 133 q 547 7 611 35 q 407 -21 483 -21 m 407 54 q 546 89 485 54 q 641 185 606 123 q 675 333 675 248 q 641 482 675 419 q 546 578 606 544 q 407 613 485 613 q 268 578 328 613 q 173 482 208 544 q 139 333 139 419 q 173 185 139 248 q 268 89 208 123 q 407 54 328 54 m 488 813 l 353 1044 l 436 1044 l 563 813 l 488 813 m 251 813 l 117 1044 l 200 1044 l 326 813 l 251 813 z "},"ö":{"ha":814,"x_min":56,"x_max":758,"o":"m 407 -21 q 227 27 306 -21 q 101 156 147 76 q 56 333 56 237 q 82 470 56 406 q 156 583 108 534 q 267 660 203 632 q 407 688 331 688 q 587 639 508 688 q 713 510 667 591 q 758 333 758 430 q 732 197 758 261 q 658 84 706 133 q 547 7 611 35 q 407 -21 483 -21 m 407 54 q 546 89 485 54 q 641 185 606 123 q 675 333 675 248 q 641 482 675 419 q 546 578 606 544 q 407 613 485 613 q 268 578 328 613 q 173 482 208 544 q 139 333 139 419 q 173 185 139 248 q 268 89 208 123 q 407 54 328 54 m 281 807 q 234 826 253 807 q 215 872 215 845 q 224 905 215 890 q 248 929 233 920 q 281 938 263 938 q 327 918 308 938 q 346 872 346 899 q 337 839 346 854 q 314 816 328 824 q 281 807 299 807 m 533 807 q 487 826 506 807 q 468 872 468 845 q 477 905 468 890 q 500 929 485 920 q 533 938 515 938 q 580 918 560 938 q 599 872 599 899 q 590 839 599 854 q 566 816 581 824 q 533 807 551 807 z "},"ȫ":{"ha":814,"x_min":56,"x_max":758,"o":"m 407 -21 q 227 27 306 -21 q 101 156 147 76 q 56 333 56 237 q 82 470 56 406 q 156 583 108 534 q 267 660 203 632 q 407 688 331 688 q 587 639 508 688 q 713 510 667 591 q 758 333 758 430 q 732 197 758 261 q 658 84 706 133 q 547 7 611 35 q 407 -21 483 -21 m 407 54 q 546 89 485 54 q 641 185 606 123 q 675 333 675 248 q 641 482 675 419 q 546 578 606 544 q 407 613 485 613 q 268 578 328 613 q 173 482 208 544 q 139 333 139 419 q 173 185 139 248 q 268 89 208 123 q 407 54 328 54 m 281 807 q 234 826 253 807 q 215 872 215 845 q 224 905 215 890 q 248 929 233 920 q 281 938 263 938 q 327 918 308 938 q 346 872 346 899 q 337 839 346 854 q 314 816 328 824 q 281 807 299 807 m 533 807 q 487 826 506 807 q 468 872 468 845 q 477 905 468 890 q 500 929 485 920 q 533 938 515 938 q 580 918 560 938 q 599 872 599 899 q 590 839 599 854 q 566 816 581 824 q 533 807 551 807 m 207 1079 l 207 1151 l 607 1151 l 607 1079 l 207 1079 z "},"ȱ":{"ha":814,"x_min":56,"x_max":758,"o":"m 407 -21 q 227 27 306 -21 q 101 156 147 76 q 56 333 56 237 q 82 470 56 406 q 156 583 108 534 q 267 660 203 632 q 407 688 331 688 q 587 639 508 688 q 713 510 667 591 q 758 333 758 430 q 732 197 758 261 q 658 84 706 133 q 547 7 611 35 q 407 -21 483 -21 m 407 54 q 546 89 485 54 q 641 185 606 123 q 675 333 675 248 q 641 482 675 419 q 546 578 606 544 q 407 613 485 613 q 268 578 328 613 q 173 482 208 544 q 139 333 139 419 q 173 185 139 248 q 268 89 208 123 q 407 54 328 54 m 407 807 q 361 826 380 807 q 342 872 342 845 q 361 918 342 899 q 407 938 380 938 q 453 918 434 938 q 472 872 472 899 q 453 826 472 845 q 407 807 434 807 m 207 1079 l 207 1151 l 607 1151 l 607 1079 l 207 1079 z "},"ọ":{"ha":814,"x_min":56,"x_max":758,"o":"m 407 -21 q 227 27 306 -21 q 101 156 147 76 q 56 333 56 237 q 82 470 56 406 q 156 583 108 534 q 267 660 203 632 q 407 688 331 688 q 587 639 508 688 q 713 510 667 591 q 758 333 758 430 q 732 197 758 261 q 658 84 706 133 q 547 7 611 35 q 407 -21 483 -21 m 407 54 q 546 89 485 54 q 641 185 606 123 q 675 333 675 248 q 641 482 675 419 q 546 578 606 544 q 407 613 485 613 q 268 578 328 613 q 173 482 208 544 q 139 333 139 419 q 173 185 139 248 q 268 89 208 123 q 407 54 328 54 m 407 -328 q 361 -309 380 -328 q 342 -262 342 -290 q 361 -216 342 -235 q 407 -197 380 -197 q 453 -216 434 -197 q 472 -262 472 -235 q 453 -309 472 -290 q 407 -328 434 -328 z "},"ò":{"ha":814,"x_min":56,"x_max":758,"o":"m 407 -21 q 227 27 306 -21 q 101 156 147 76 q 56 333 56 237 q 82 470 56 406 q 156 583 108 534 q 267 660 203 632 q 407 688 331 688 q 587 639 508 688 q 713 510 667 591 q 758 333 758 430 q 732 197 758 261 q 658 84 706 133 q 547 7 611 35 q 407 -21 483 -21 m 407 54 q 546 89 485 54 q 641 185 606 123 q 675 333 675 248 q 641 482 675 419 q 546 578 606 544 q 407 613 485 613 q 268 578 328 613 q 173 482 208 544 q 139 333 139 419 q 173 185 139 248 q 268 89 208 123 q 407 54 328 54 m 385 813 l 250 1044 l 338 1044 l 463 813 l 385 813 z "},"ỏ":{"ha":814,"x_min":56,"x_max":758,"o":"m 407 -21 q 227 27 306 -21 q 101 156 147 76 q 56 333 56 237 q 82 470 56 406 q 156 583 108 534 q 267 660 203 632 q 407 688 331 688 q 587 639 508 688 q 713 510 667 591 q 758 333 758 430 q 732 197 758 261 q 658 84 706 133 q 547 7 611 35 q 407 -21 483 -21 m 407 54 q 546 89 485 54 q 641 185 606 123 q 675 333 675 248 q 641 482 675 419 q 546 578 606 544 q 407 613 485 613 q 268 578 328 613 q 173 482 208 544 q 139 333 139 419 q 173 185 139 248 q 268 89 208 123 q 407 54 328 54 m 365 813 q 357 891 342 860 q 428 944 372 923 q 493 975 477 963 q 508 1011 508 988 q 479 1059 508 1042 q 404 1076 449 1076 q 336 1069 371 1076 q 275 1047 301 1061 l 251 1101 q 326 1126 286 1118 q 408 1135 367 1135 q 528 1103 481 1135 q 575 1024 575 1072 q 554 960 575 983 q 476 913 533 938 q 421 873 431 892 q 429 813 412 853 l 365 813 z "},"ơ":{"ha":828,"x_min":56,"x_max":824,"o":"m 407 -21 q 227 27 306 -21 q 101 156 147 76 q 56 333 56 237 q 82 470 56 406 q 156 583 108 534 q 267 660 203 632 q 407 688 331 688 q 587 639 508 688 q 713 510 667 591 q 758 333 758 430 q 732 197 758 261 q 658 84 706 133 q 547 7 611 35 q 407 -21 483 -21 m 407 54 q 546 89 485 54 q 641 185 606 123 q 675 333 675 248 q 641 482 675 419 q 546 578 606 544 q 407 613 485 613 q 268 578 328 613 q 173 482 208 544 q 139 333 139 419 q 173 185 139 248 q 268 89 208 123 q 407 54 328 54 m 690 585 q 635 593 666 585 q 569 613 605 601 q 493 632 533 624 q 408 640 453 640 l 408 688 q 516 676 464 688 q 610 654 569 665 q 676 643 652 643 q 733 658 716 643 q 750 696 750 673 q 740 737 750 714 q 707 785 729 760 l 771 814 q 811 755 798 785 q 824 697 824 724 q 809 641 824 667 q 764 600 794 615 q 690 585 735 585 z "},"ớ":{"ha":828,"x_min":56,"x_max":824,"o":"m 407 -21 q 227 27 306 -21 q 101 156 147 76 q 56 333 56 237 q 82 470 56 406 q 156 583 108 534 q 267 660 203 632 q 407 688 331 688 q 587 639 508 688 q 713 510 667 591 q 758 333 758 430 q 732 197 758 261 q 658 84 706 133 q 547 7 611 35 q 407 -21 483 -21 m 407 54 q 546 89 485 54 q 641 185 606 123 q 675 333 675 248 q 641 482 675 419 q 546 578 606 544 q 407 613 485 613 q 268 578 328 613 q 173 482 208 544 q 139 333 139 419 q 173 185 139 248 q 268 89 208 123 q 407 54 328 54 m 690 585 q 635 593 666 585 q 569 613 605 601 q 493 632 533 624 q 408 640 453 640 l 408 688 q 516 676 464 688 q 610 654 569 665 q 676 643 652 643 q 733 658 716 643 q 750 696 750 673 q 740 737 750 714 q 707 785 729 760 l 771 814 q 811 755 798 785 q 824 697 824 724 q 809 641 824 667 q 764 600 794 615 q 690 585 735 585 m 363 813 l 489 1044 l 572 1044 l 438 813 l 363 813 z "},"ợ":{"ha":828,"x_min":56,"x_max":824,"o":"m 407 -21 q 227 27 306 -21 q 101 156 147 76 q 56 333 56 237 q 82 470 56 406 q 156 583 108 534 q 267 660 203 632 q 407 688 331 688 q 587 639 508 688 q 713 510 667 591 q 758 333 758 430 q 732 197 758 261 q 658 84 706 133 q 547 7 611 35 q 407 -21 483 -21 m 407 54 q 546 89 485 54 q 641 185 606 123 q 675 333 675 248 q 641 482 675 419 q 546 578 606 544 q 407 613 485 613 q 268 578 328 613 q 173 482 208 544 q 139 333 139 419 q 173 185 139 248 q 268 89 208 123 q 407 54 328 54 m 690 585 q 635 593 666 585 q 569 613 605 601 q 493 632 533 624 q 408 640 453 640 l 408 688 q 516 676 464 688 q 610 654 569 665 q 676 643 652 643 q 733 658 716 643 q 750 696 750 673 q 740 737 750 714 q 707 785 729 760 l 771 814 q 811 755 798 785 q 824 697 824 724 q 809 641 824 667 q 764 600 794 615 q 690 585 735 585 m 407 -328 q 361 -309 380 -328 q 342 -262 342 -290 q 361 -216 342 -235 q 407 -197 380 -197 q 453 -216 434 -197 q 472 -262 472 -235 q 453 -309 472 -290 q 407 -328 434 -328 z "},"ờ":{"ha":828,"x_min":56,"x_max":824,"o":"m 407 -21 q 227 27 306 -21 q 101 156 147 76 q 56 333 56 237 q 82 470 56 406 q 156 583 108 534 q 267 660 203 632 q 407 688 331 688 q 587 639 508 688 q 713 510 667 591 q 758 333 758 430 q 732 197 758 261 q 658 84 706 133 q 547 7 611 35 q 407 -21 483 -21 m 407 54 q 546 89 485 54 q 641 185 606 123 q 675 333 675 248 q 641 482 675 419 q 546 578 606 544 q 407 613 485 613 q 268 578 328 613 q 173 482 208 544 q 139 333 139 419 q 173 185 139 248 q 268 89 208 123 q 407 54 328 54 m 690 585 q 635 593 666 585 q 569 613 605 601 q 493 632 533 624 q 408 640 453 640 l 408 688 q 516 676 464 688 q 610 654 569 665 q 676 643 652 643 q 733 658 716 643 q 750 696 750 673 q 740 737 750 714 q 707 785 729 760 l 771 814 q 811 755 798 785 q 824 697 824 724 q 809 641 824 667 q 764 600 794 615 q 690 585 735 585 m 385 813 l 250 1044 l 338 1044 l 463 813 l 385 813 z "},"ở":{"ha":828,"x_min":56,"x_max":824,"o":"m 407 -21 q 227 27 306 -21 q 101 156 147 76 q 56 333 56 237 q 82 470 56 406 q 156 583 108 534 q 267 660 203 632 q 407 688 331 688 q 587 639 508 688 q 713 510 667 591 q 758 333 758 430 q 732 197 758 261 q 658 84 706 133 q 547 7 611 35 q 407 -21 483 -21 m 407 54 q 546 89 485 54 q 641 185 606 123 q 675 333 675 248 q 641 482 675 419 q 546 578 606 544 q 407 613 485 613 q 268 578 328 613 q 173 482 208 544 q 139 333 139 419 q 173 185 139 248 q 268 89 208 123 q 407 54 328 54 m 690 585 q 635 593 666 585 q 569 613 605 601 q 493 632 533 624 q 408 640 453 640 l 408 688 q 516 676 464 688 q 610 654 569 665 q 676 643 652 643 q 733 658 716 643 q 750 696 750 673 q 740 737 750 714 q 707 785 729 760 l 771 814 q 811 755 798 785 q 824 697 824 724 q 809 641 824 667 q 764 600 794 615 q 690 585 735 585 m 365 813 q 357 891 342 860 q 428 944 372 923 q 493 975 477 963 q 508 1011 508 988 q 479 1059 508 1042 q 404 1076 449 1076 q 336 1069 371 1076 q 275 1047 301 1061 l 251 1101 q 326 1126 286 1118 q 408 1135 367 1135 q 528 1103 481 1135 q 575 1024 575 1072 q 554 960 575 983 q 476 913 533 938 q 421 873 431 892 q 429 813 412 853 l 365 813 z "},"ỡ":{"ha":828,"x_min":56,"x_max":824,"o":"m 407 -21 q 227 27 306 -21 q 101 156 147 76 q 56 333 56 237 q 82 470 56 406 q 156 583 108 534 q 267 660 203 632 q 407 688 331 688 q 587 639 508 688 q 713 510 667 591 q 758 333 758 430 q 732 197 758 261 q 658 84 706 133 q 547 7 611 35 q 407 -21 483 -21 m 407 54 q 546 89 485 54 q 641 185 606 123 q 675 333 675 248 q 641 482 675 419 q 546 578 606 544 q 407 613 485 613 q 268 578 328 613 q 173 482 208 544 q 139 333 139 419 q 173 185 139 248 q 268 89 208 123 q 407 54 328 54 m 690 585 q 635 593 666 585 q 569 613 605 601 q 493 632 533 624 q 408 640 453 640 l 408 688 q 516 676 464 688 q 610 654 569 665 q 676 643 652 643 q 733 658 716 643 q 750 696 750 673 q 740 737 750 714 q 707 785 729 760 l 771 814 q 811 755 798 785 q 824 697 824 724 q 809 641 824 667 q 764 600 794 615 q 690 585 735 585 m 221 844 l 169 875 q 225 965 190 931 q 307 1000 260 1000 q 380 982 345 1000 q 445 945 414 963 q 507 926 477 926 q 558 950 536 926 q 593 1014 580 974 l 644 982 q 587 891 623 924 q 507 858 551 858 q 434 876 469 858 q 368 913 400 894 q 307 931 337 931 q 257 908 278 931 q 221 844 235 886 z "},"ő":{"ha":814,"x_min":56,"x_max":758,"o":"m 407 -21 q 227 27 306 -21 q 101 156 147 76 q 56 333 56 237 q 82 470 56 406 q 156 583 108 534 q 267 660 203 632 q 407 688 331 688 q 587 639 508 688 q 713 510 667 591 q 758 333 758 430 q 732 197 758 261 q 658 84 706 133 q 547 7 611 35 q 407 -21 483 -21 m 407 54 q 546 89 485 54 q 641 185 606 123 q 675 333 675 248 q 641 482 675 419 q 546 578 606 544 q 407 613 485 613 q 268 578 328 613 q 173 482 208 544 q 139 333 139 419 q 173 185 139 248 q 268 89 208 123 q 407 54 328 54 m 488 813 l 614 1044 l 697 1044 l 563 813 l 488 813 m 251 813 l 378 1044 l 461 1044 l 326 813 l 251 813 z "},"ȏ":{"ha":814,"x_min":56,"x_max":758,"o":"m 407 -21 q 227 27 306 -21 q 101 156 147 76 q 56 333 56 237 q 82 470 56 406 q 156 583 108 534 q 267 660 203 632 q 407 688 331 688 q 587 639 508 688 q 713 510 667 591 q 758 333 758 430 q 732 197 758 261 q 658 84 706 133 q 547 7 611 35 q 407 -21 483 -21 m 407 54 q 546 89 485 54 q 641 185 606 123 q 675 333 675 248 q 641 482 675 419 q 546 578 606 544 q 407 613 485 613 q 268 578 328 613 q 173 482 208 544 q 139 333 139 419 q 173 185 139 248 q 268 89 208 123 q 407 54 328 54 m 181 813 q 206 935 178 881 q 287 1020 235 990 q 407 1051 339 1051 q 525 1020 473 1051 q 605 935 576 989 q 632 813 634 881 l 560 813 q 522 937 564 890 q 407 985 480 985 q 291 937 334 985 q 251 813 249 890 l 181 813 z "},"ō":{"ha":814,"x_min":56,"x_max":758,"o":"m 407 -21 q 227 27 306 -21 q 101 156 147 76 q 56 333 56 237 q 82 470 56 406 q 156 583 108 534 q 267 660 203 632 q 407 688 331 688 q 587 639 508 688 q 713 510 667 591 q 758 333 758 430 q 732 197 758 261 q 658 84 706 133 q 547 7 611 35 q 407 -21 483 -21 m 407 54 q 546 89 485 54 q 641 185 606 123 q 675 333 675 248 q 641 482 675 419 q 546 578 606 544 q 407 613 485 613 q 268 578 328 613 q 173 482 208 544 q 139 333 139 419 q 173 185 139 248 q 268 89 208 123 q 407 54 328 54 m 207 854 l 207 926 l 607 926 l 607 854 l 207 854 z "},"ǫ":{"ha":814,"x_min":56,"x_max":758,"o":"m 446 -312 q 342 -273 377 -312 q 307 -177 306 -233 q 331 -89 308 -128 q 389 -20 353 -50 q 218 33 293 -15 q 99 161 142 82 q 56 333 56 240 q 82 470 56 406 q 156 583 108 534 q 267 660 203 632 q 407 688 331 688 q 587 639 508 688 q 713 510 667 591 q 758 333 758 430 q 728 189 758 256 q 645 71 699 121 q 521 -4 592 21 q 427 -62 463 -24 q 390 -159 392 -99 q 404 -214 390 -191 q 457 -236 419 -236 q 495 -231 477 -236 q 529 -217 514 -226 l 558 -284 q 504 -305 533 -297 q 446 -312 475 -312 m 407 54 q 546 89 485 54 q 641 185 606 123 q 675 333 675 248 q 641 482 675 419 q 546 578 606 544 q 407 613 485 613 q 268 578 328 613 q 173 482 208 544 q 139 333 139 419 q 173 185 139 248 q 268 89 208 123 q 407 54 328 54 z "},"ø":{"ha":814,"x_min":56,"x_max":758,"o":"m 149 -35 l 99 7 l 158 81 q 83 195 110 130 q 56 333 56 260 q 82 470 56 406 q 156 583 108 534 q 267 660 203 632 q 407 688 331 688 q 514 672 463 688 q 606 628 564 656 l 665 701 l 715 660 l 656 586 q 731 473 703 538 q 758 333 758 408 q 732 197 758 261 q 658 84 706 133 q 547 7 610 35 q 407 -21 483 -21 q 300 -5 351 -21 q 208 39 250 11 l 149 -35 m 206 139 l 558 571 q 489 602 527 591 q 407 613 451 613 q 268 578 328 613 q 173 482 208 544 q 139 333 139 419 q 157 224 139 273 q 206 139 174 174 m 407 54 q 546 89 485 54 q 641 185 606 123 q 675 333 675 248 q 657 443 675 394 q 608 528 640 492 l 256 96 q 325 65 287 76 q 407 54 363 54 z "},"ǿ":{"ha":814,"x_min":56,"x_max":758,"o":"m 149 -35 l 99 7 l 158 81 q 83 195 110 130 q 56 333 56 260 q 82 470 56 406 q 156 583 108 534 q 267 660 203 632 q 407 688 331 688 q 514 672 463 688 q 606 628 564 656 l 665 701 l 715 660 l 656 586 q 731 473 703 538 q 758 333 758 408 q 732 197 758 261 q 658 84 706 133 q 547 7 610 35 q 407 -21 483 -21 q 300 -5 351 -21 q 208 39 250 11 l 149 -35 m 206 139 l 558 571 q 489 602 527 591 q 407 613 451 613 q 268 578 328 613 q 173 482 208 544 q 139 333 139 419 q 157 224 139 273 q 206 139 174 174 m 407 54 q 546 89 485 54 q 641 185 606 123 q 675 333 675 248 q 657 443 675 394 q 608 528 640 492 l 256 96 q 325 65 287 76 q 407 54 363 54 m 363 813 l 489 1044 l 572 1044 l 438 813 l 363 813 z "},"õ":{"ha":814,"x_min":56,"x_max":758,"o":"m 407 -21 q 227 27 306 -21 q 101 156 147 76 q 56 333 56 237 q 82 470 56 406 q 156 583 108 534 q 267 660 203 632 q 407 688 331 688 q 587 639 508 688 q 713 510 667 591 q 758 333 758 430 q 732 197 758 261 q 658 84 706 133 q 547 7 611 35 q 407 -21 483 -21 m 407 54 q 546 89 485 54 q 641 185 606 123 q 675 333 675 248 q 641 482 675 419 q 546 578 606 544 q 407 613 485 613 q 268 578 328 613 q 173 482 208 544 q 139 333 139 419 q 173 185 139 248 q 268 89 208 123 q 407 54 328 54 m 221 844 l 169 875 q 225 965 190 931 q 307 1000 260 1000 q 380 982 345 1000 q 445 945 414 963 q 507 926 477 926 q 558 950 536 926 q 593 1014 580 974 l 644 982 q 587 891 623 924 q 507 858 551 858 q 434 876 469 858 q 368 913 400 894 q 307 931 337 931 q 257 908 278 931 q 221 844 235 886 z "},"ȭ":{"ha":814,"x_min":56,"x_max":758,"o":"m 407 -21 q 227 27 306 -21 q 101 156 147 76 q 56 333 56 237 q 82 470 56 406 q 156 583 108 534 q 267 660 203 632 q 407 688 331 688 q 587 639 508 688 q 713 510 667 591 q 758 333 758 430 q 732 197 758 261 q 658 84 706 133 q 547 7 611 35 q 407 -21 483 -21 m 407 54 q 546 89 485 54 q 641 185 606 123 q 675 333 675 248 q 641 482 675 419 q 546 578 606 544 q 407 613 485 613 q 268 578 328 613 q 173 482 208 544 q 139 333 139 419 q 173 185 139 248 q 268 89 208 123 q 407 54 328 54 m 221 844 l 169 875 q 225 965 190 931 q 307 1000 260 1000 q 380 982 345 1000 q 445 945 414 963 q 507 926 477 926 q 558 950 536 926 q 593 1014 580 974 l 644 982 q 587 891 623 924 q 507 858 551 858 q 434 876 469 858 q 368 913 400 894 q 307 931 337 931 q 257 908 278 931 q 221 844 235 886 m 207 1121 l 207 1193 l 607 1193 l 607 1121 l 207 1121 z "},"œ":{"ha":1384,"x_min":56,"x_max":1336,"o":"m 407 -21 q 227 27 306 -21 q 101 156 147 76 q 56 333 56 237 q 82 470 56 406 q 156 583 108 534 q 267 660 203 632 q 407 688 331 688 q 587 639 508 688 q 713 510 667 591 q 758 333 758 430 q 732 197 758 261 q 658 84 706 133 q 547 7 610 35 q 407 -21 483 -21 m 407 54 q 546 89 485 54 q 641 185 606 123 q 675 333 675 248 q 641 482 675 419 q 546 578 606 544 q 407 613 485 613 q 268 578 328 613 q 173 482 208 544 q 139 333 139 419 q 173 185 139 248 q 268 89 208 123 q 407 54 328 54 m 1029 -21 q 845 23 925 -21 q 720 147 765 67 q 675 331 675 226 q 701 472 675 407 q 773 586 726 538 q 882 661 819 634 q 1017 688 944 688 q 1192 640 1119 688 q 1301 510 1265 592 q 1326 325 1336 428 l 761 325 q 790 183 757 244 q 886 88 822 122 q 1039 54 950 54 q 1145 73 1092 54 q 1236 128 1199 92 l 1282 63 q 1205 16 1247 34 q 1118 -12 1163 -3 q 1029 -21 1073 -21 m 764 397 l 1243 397 q 1182 556 1238 499 q 1017 613 1125 613 q 844 556 912 613 q 764 397 776 499 z "},"p":{"ha":871,"x_min":118,"x_max":815,"o":"m 118 -292 l 118 667 l 196 667 l 196 554 q 306 650 240 612 q 478 688 372 688 q 655 639 578 688 q 773 510 731 591 q 815 333 815 430 q 791 197 815 261 q 722 84 767 133 q 615 7 677 35 q 478 -21 553 -21 q 309 17 379 -21 q 196 117 240 56 l 196 -292 l 118 -292 m 464 54 q 603 89 542 54 q 698 185 663 123 q 732 333 732 248 q 698 482 732 419 q 603 578 663 544 q 464 613 542 613 q 325 578 385 613 q 230 482 265 544 q 196 333 196 419 q 230 185 196 248 q 325 89 265 123 q 464 54 385 54 z "},"þ":{"ha":871,"x_min":118,"x_max":815,"o":"m 118 -292 l 118 1000 l 196 1000 l 196 544 q 309 647 240 606 q 478 688 379 688 q 655 639 578 688 q 773 510 731 591 q 815 333 815 430 q 791 197 815 261 q 722 84 767 133 q 615 7 677 35 q 478 -21 553 -21 q 309 17 379 -21 q 196 117 240 56 l 196 -292 l 118 -292 m 464 54 q 603 89 542 54 q 698 185 663 123 q 732 333 732 248 q 698 482 732 419 q 603 578 663 544 q 464 613 542 613 q 325 578 385 613 q 230 482 265 544 q 196 333 196 419 q 230 185 196 248 q 325 89 265 123 q 464 54 385 54 z "},"q":{"ha":871,"x_min":56,"x_max":753,"o":"m 675 -292 l 675 151 l 688 135 q 572 23 644 66 q 393 -21 499 -21 q 216 27 292 -21 q 98 156 140 76 q 56 333 56 237 q 80 470 56 406 q 149 583 104 534 q 256 660 194 632 q 393 688 317 688 q 524 668 469 688 q 618 614 578 648 q 688 538 658 580 l 675 519 l 675 667 l 753 667 l 753 -292 l 675 -292 m 407 54 q 546 89 485 54 q 641 185 606 123 q 675 333 675 248 q 641 482 675 419 q 546 578 606 544 q 407 613 485 613 q 268 578 328 613 q 173 482 208 544 q 139 333 139 419 q 173 185 139 248 q 268 89 208 123 q 407 54 328 54 z "},"r":{"ha":525,"x_min":118,"x_max":497,"o":"m 118 0 l 118 667 l 196 667 l 196 560 q 300 660 242 633 q 424 688 358 688 q 461 686 442 688 q 497 681 480 685 l 483 599 q 449 605 466 603 q 415 607 432 607 q 258 546 319 607 q 196 388 196 485 l 196 0 l 118 0 z "},"ŕ":{"ha":525,"x_min":118,"x_max":497,"o":"m 118 0 l 118 667 l 196 667 l 196 560 q 300 660 242 633 q 424 688 358 688 q 461 686 442 688 q 497 681 480 685 l 483 599 q 449 605 466 603 q 415 607 432 607 q 258 546 319 607 q 196 388 196 485 l 196 0 l 118 0 m 263 813 l 389 1044 l 472 1044 l 338 813 l 263 813 z "},"ř":{"ha":525,"x_min":89,"x_max":525,"o":"m 118 0 l 118 667 l 196 667 l 196 560 q 300 660 242 633 q 424 688 358 688 q 461 686 442 688 q 497 681 480 685 l 483 599 q 449 605 466 603 q 415 607 432 607 q 258 546 319 607 q 196 388 196 485 l 196 0 l 118 0 m 260 813 l 89 1044 l 172 1044 l 303 867 l 440 1044 l 525 1044 l 344 813 l 260 813 z "},"ŗ":{"ha":525,"x_min":53,"x_max":497,"o":"m 118 0 l 118 667 l 196 667 l 196 560 q 300 660 242 633 q 424 688 358 688 q 461 686 442 688 q 497 681 480 685 l 483 599 q 449 605 466 603 q 415 607 432 607 q 258 546 319 607 q 196 388 196 485 l 196 0 l 118 0 m 91 -453 l 53 -410 q 123 -366 93 -391 q 160 -317 153 -340 q 124 -311 140 -318 q 97 -290 107 -303 q 88 -258 88 -276 q 107 -215 88 -232 q 156 -197 126 -197 q 210 -218 190 -197 q 230 -278 230 -240 q 214 -339 230 -308 q 166 -400 197 -370 q 91 -453 135 -429 z "},"ȑ":{"ha":525,"x_min":17,"x_max":497,"o":"m 118 0 l 118 667 l 196 667 l 196 560 q 300 660 242 633 q 424 688 358 688 q 461 686 442 688 q 497 681 480 685 l 483 599 q 449 605 466 603 q 415 607 432 607 q 258 546 319 607 q 196 388 196 485 l 196 0 l 118 0 m 388 813 l 253 1044 l 336 1044 l 463 813 l 388 813 m 151 813 l 17 1044 l 100 1044 l 226 813 l 151 813 z "},"ȓ":{"ha":525,"x_min":78,"x_max":534,"o":"m 118 0 l 118 667 l 196 667 l 196 560 q 300 660 242 633 q 424 688 358 688 q 461 686 442 688 q 497 681 480 685 l 483 599 q 449 605 466 603 q 415 607 432 607 q 258 546 319 607 q 196 388 196 485 l 196 0 l 118 0 m 81 813 q 106 935 78 881 q 187 1020 135 990 q 307 1051 239 1051 q 425 1020 373 1051 q 505 935 476 989 q 532 813 534 881 l 460 813 q 422 937 464 890 q 307 985 380 985 q 191 937 234 985 q 151 813 149 890 l 81 813 z "},"s":{"ha":647,"x_min":68,"x_max":568,"o":"m 315 -21 q 177 3 244 -21 q 68 65 110 27 l 111 132 q 204 73 150 94 q 317 51 258 51 q 444 83 397 51 q 490 172 490 115 q 451 253 490 226 q 308 307 412 280 q 140 381 192 338 q 89 503 89 425 q 119 601 89 558 q 203 669 150 644 q 326 694 257 694 q 455 674 395 694 q 558 614 514 653 l 518 546 q 465 586 496 569 q 398 613 434 603 q 324 622 362 622 q 210 592 254 622 q 165 507 165 561 q 210 424 165 451 q 349 375 254 398 q 516 302 465 347 q 568 178 568 257 q 537 73 568 117 q 449 4 506 28 q 315 -21 392 -21 z "},"ś":{"ha":647,"x_min":68,"x_max":568,"o":"m 315 -21 q 177 3 244 -21 q 68 65 110 27 l 111 132 q 204 73 150 94 q 317 51 258 51 q 444 83 397 51 q 490 172 490 115 q 451 253 490 226 q 308 307 412 280 q 140 381 192 338 q 89 503 89 425 q 119 601 89 558 q 203 669 150 644 q 326 694 257 694 q 455 674 395 694 q 558 614 514 653 l 518 546 q 465 586 496 569 q 398 613 434 603 q 324 622 362 622 q 210 592 254 622 q 165 507 165 561 q 210 424 165 451 q 349 375 254 398 q 516 302 465 347 q 568 178 568 257 q 537 73 568 117 q 449 4 506 28 q 315 -21 392 -21 m 282 813 l 408 1044 l 492 1044 l 357 813 l 282 813 z "},"š":{"ha":647,"x_min":68,"x_max":568,"o":"m 315 -21 q 177 3 244 -21 q 68 65 110 27 l 111 132 q 204 73 150 94 q 317 51 258 51 q 444 83 397 51 q 490 172 490 115 q 451 253 490 226 q 308 307 412 280 q 140 381 192 338 q 89 503 89 425 q 119 601 89 558 q 203 669 150 644 q 326 694 257 694 q 455 674 395 694 q 558 614 514 653 l 518 546 q 465 586 496 569 q 398 613 434 603 q 324 622 362 622 q 210 592 254 622 q 165 507 165 561 q 210 424 165 451 q 349 375 254 398 q 516 302 465 347 q 568 178 568 257 q 537 73 568 117 q 449 4 506 28 q 315 -21 392 -21 m 279 813 l 108 1044 l 192 1044 l 322 867 l 460 1044 l 544 1044 l 364 813 l 279 813 z "},"ş":{"ha":647,"x_min":68,"x_max":568,"o":"m 315 -21 q 177 3 244 -21 q 68 65 110 27 l 111 132 q 204 73 150 94 q 317 51 258 51 q 444 83 397 51 q 490 172 490 115 q 451 253 490 226 q 308 307 412 280 q 140 381 192 338 q 89 503 89 425 q 119 601 89 558 q 203 669 150 644 q 326 694 257 694 q 455 674 395 694 q 558 614 514 653 l 518 546 q 465 586 496 569 q 398 613 434 603 q 324 622 362 622 q 210 592 254 622 q 165 507 165 561 q 210 424 165 451 q 349 375 254 398 q 516 302 465 347 q 568 178 568 257 q 537 73 568 117 q 449 4 506 28 q 315 -21 392 -21 m 304 -312 q 227 -302 263 -312 q 163 -274 192 -292 l 189 -214 q 235 -239 201 -228 q 301 -250 268 -250 q 362 -236 333 -250 q 392 -187 392 -222 q 354 -137 392 -151 q 271 -129 316 -123 l 247 -87 l 285 28 l 342 28 l 314 -65 q 423 -99 380 -69 q 467 -185 467 -129 q 440 -260 467 -232 q 375 -300 413 -288 q 304 -312 337 -312 z "},"ŝ":{"ha":647,"x_min":68,"x_max":568,"o":"m 315 -21 q 177 3 244 -21 q 68 65 110 27 l 111 132 q 204 73 150 94 q 317 51 258 51 q 444 83 397 51 q 490 172 490 115 q 451 253 490 226 q 308 307 412 280 q 140 381 192 338 q 89 503 89 425 q 119 601 89 558 q 203 669 150 644 q 326 694 257 694 q 455 674 395 694 q 558 614 514 653 l 518 546 q 465 586 496 569 q 398 613 434 603 q 324 622 362 622 q 210 592 254 622 q 165 507 165 561 q 210 424 165 451 q 349 375 254 398 q 516 302 465 347 q 568 178 568 257 q 537 73 568 117 q 449 4 506 28 q 315 -21 392 -21 m 108 813 l 289 1044 l 375 1044 l 544 813 l 461 813 l 331 990 l 193 813 l 108 813 z "}}}
